<?xml version="1.0" encoding="utf-8"?>
<!DOCTYPE svg PUBLIC "-//W3C//DTD SVG 1.0//EN" "http://www.w3.org/TR/2001/REC-SVG-20010904/DTD/svg10.dtd">
<svg xmlns="http://www.w3.org/2000/svg" xml:space="preserve" xmlns:xlink="http://www.w3.org/1999/xlink" width="74" height="74" viewBox="0 0 74 74">
<desc></desc>
<rect width="74" height="74" fill="#ffffff" cx="0" cy="0" />
<defs>
<rect id="p" width="2" height="2" />
</defs>
<g fill="#000000">
<use x="0" y="0" xlink:href="#p" />
<use x="2" y="0" xlink:href="#p" />
<use x="4" y="0" xlink:href="#p" />
<use x="6" y="0" xlink:href="#p" />
<use x="8" y="0" xlink:href="#p" />
<use x="10" y="0" xlink:href="#p" />
<use x="12" y="0" xlink:href="#p" />
<use x="20" y="0" xlink:href="#p" />
<use x="22" y="0" xlink:href="#p" />
<use x="28" y="0" xlink:href="#p" />
<use x="30" y="0" xlink:href="#p" />
<use x="32" y="0" xlink:href="#p" />
<use x="34" y="0" xlink:href="#p" />
<use x="44" y="0" xlink:href="#p" />
<use x="46" y="0" xlink:href="#p" />
<use x="48" y="0" xlink:href="#p" />
<use x="50" y="0" xlink:href="#p" />
<use x="54" y="0" xlink:href="#p" />
<use x="56" y="0" xlink:href="#p" />
<use x="60" y="0" xlink:href="#p" />
<use x="62" y="0" xlink:href="#p" />
<use x="64" y="0" xlink:href="#p" />
<use x="66" y="0" xlink:href="#p" />
<use x="68" y="0" xlink:href="#p" />
<use x="70" y="0" xlink:href="#p" />
<use x="72" y="0" xlink:href="#p" />
<use x="0" y="2" xlink:href="#p" />
<use x="12" y="2" xlink:href="#p" />
<use x="16" y="2" xlink:href="#p" />
<use x="20" y="2" xlink:href="#p" />
<use x="22" y="2" xlink:href="#p" />
<use x="24" y="2" xlink:href="#p" />
<use x="26" y="2" xlink:href="#p" />
<use x="30" y="2" xlink:href="#p" />
<use x="34" y="2" xlink:href="#p" />
<use x="40" y="2" xlink:href="#p" />
<use x="42" y="2" xlink:href="#p" />
<use x="44" y="2" xlink:href="#p" />
<use x="52" y="2" xlink:href="#p" />
<use x="56" y="2" xlink:href="#p" />
<use x="60" y="2" xlink:href="#p" />
<use x="72" y="2" xlink:href="#p" />
<use x="0" y="4" xlink:href="#p" />
<use x="4" y="4" xlink:href="#p" />
<use x="6" y="4" xlink:href="#p" />
<use x="8" y="4" xlink:href="#p" />
<use x="12" y="4" xlink:href="#p" />
<use x="20" y="4" xlink:href="#p" />
<use x="22" y="4" xlink:href="#p" />
<use x="26" y="4" xlink:href="#p" />
<use x="28" y="4" xlink:href="#p" />
<use x="30" y="4" xlink:href="#p" />
<use x="32" y="4" xlink:href="#p" />
<use x="38" y="4" xlink:href="#p" />
<use x="40" y="4" xlink:href="#p" />
<use x="42" y="4" xlink:href="#p" />
<use x="44" y="4" xlink:href="#p" />
<use x="52" y="4" xlink:href="#p" />
<use x="54" y="4" xlink:href="#p" />
<use x="60" y="4" xlink:href="#p" />
<use x="64" y="4" xlink:href="#p" />
<use x="66" y="4" xlink:href="#p" />
<use x="68" y="4" xlink:href="#p" />
<use x="72" y="4" xlink:href="#p" />
<use x="0" y="6" xlink:href="#p" />
<use x="4" y="6" xlink:href="#p" />
<use x="6" y="6" xlink:href="#p" />
<use x="8" y="6" xlink:href="#p" />
<use x="12" y="6" xlink:href="#p" />
<use x="20" y="6" xlink:href="#p" />
<use x="22" y="6" xlink:href="#p" />
<use x="28" y="6" xlink:href="#p" />
<use x="32" y="6" xlink:href="#p" />
<use x="34" y="6" xlink:href="#p" />
<use x="36" y="6" xlink:href="#p" />
<use x="50" y="6" xlink:href="#p" />
<use x="52" y="6" xlink:href="#p" />
<use x="56" y="6" xlink:href="#p" />
<use x="60" y="6" xlink:href="#p" />
<use x="64" y="6" xlink:href="#p" />
<use x="66" y="6" xlink:href="#p" />
<use x="68" y="6" xlink:href="#p" />
<use x="72" y="6" xlink:href="#p" />
<use x="0" y="8" xlink:href="#p" />
<use x="4" y="8" xlink:href="#p" />
<use x="6" y="8" xlink:href="#p" />
<use x="8" y="8" xlink:href="#p" />
<use x="12" y="8" xlink:href="#p" />
<use x="20" y="8" xlink:href="#p" />
<use x="24" y="8" xlink:href="#p" />
<use x="28" y="8" xlink:href="#p" />
<use x="32" y="8" xlink:href="#p" />
<use x="34" y="8" xlink:href="#p" />
<use x="36" y="8" xlink:href="#p" />
<use x="40" y="8" xlink:href="#p" />
<use x="44" y="8" xlink:href="#p" />
<use x="50" y="8" xlink:href="#p" />
<use x="52" y="8" xlink:href="#p" />
<use x="54" y="8" xlink:href="#p" />
<use x="60" y="8" xlink:href="#p" />
<use x="64" y="8" xlink:href="#p" />
<use x="66" y="8" xlink:href="#p" />
<use x="68" y="8" xlink:href="#p" />
<use x="72" y="8" xlink:href="#p" />
<use x="0" y="10" xlink:href="#p" />
<use x="12" y="10" xlink:href="#p" />
<use x="16" y="10" xlink:href="#p" />
<use x="20" y="10" xlink:href="#p" />
<use x="24" y="10" xlink:href="#p" />
<use x="26" y="10" xlink:href="#p" />
<use x="30" y="10" xlink:href="#p" />
<use x="38" y="10" xlink:href="#p" />
<use x="46" y="10" xlink:href="#p" />
<use x="48" y="10" xlink:href="#p" />
<use x="52" y="10" xlink:href="#p" />
<use x="56" y="10" xlink:href="#p" />
<use x="60" y="10" xlink:href="#p" />
<use x="72" y="10" xlink:href="#p" />
<use x="0" y="12" xlink:href="#p" />
<use x="2" y="12" xlink:href="#p" />
<use x="4" y="12" xlink:href="#p" />
<use x="6" y="12" xlink:href="#p" />
<use x="8" y="12" xlink:href="#p" />
<use x="10" y="12" xlink:href="#p" />
<use x="12" y="12" xlink:href="#p" />
<use x="16" y="12" xlink:href="#p" />
<use x="20" y="12" xlink:href="#p" />
<use x="24" y="12" xlink:href="#p" />
<use x="28" y="12" xlink:href="#p" />
<use x="32" y="12" xlink:href="#p" />
<use x="36" y="12" xlink:href="#p" />
<use x="40" y="12" xlink:href="#p" />
<use x="44" y="12" xlink:href="#p" />
<use x="48" y="12" xlink:href="#p" />
<use x="52" y="12" xlink:href="#p" />
<use x="56" y="12" xlink:href="#p" />
<use x="60" y="12" xlink:href="#p" />
<use x="62" y="12" xlink:href="#p" />
<use x="64" y="12" xlink:href="#p" />
<use x="66" y="12" xlink:href="#p" />
<use x="68" y="12" xlink:href="#p" />
<use x="70" y="12" xlink:href="#p" />
<use x="72" y="12" xlink:href="#p" />
<use x="16" y="14" xlink:href="#p" />
<use x="18" y="14" xlink:href="#p" />
<use x="26" y="14" xlink:href="#p" />
<use x="28" y="14" xlink:href="#p" />
<use x="32" y="14" xlink:href="#p" />
<use x="36" y="14" xlink:href="#p" />
<use x="48" y="14" xlink:href="#p" />
<use x="8" y="16" xlink:href="#p" />
<use x="10" y="16" xlink:href="#p" />
<use x="12" y="16" xlink:href="#p" />
<use x="14" y="16" xlink:href="#p" />
<use x="18" y="16" xlink:href="#p" />
<use x="22" y="16" xlink:href="#p" />
<use x="24" y="16" xlink:href="#p" />
<use x="26" y="16" xlink:href="#p" />
<use x="30" y="16" xlink:href="#p" />
<use x="32" y="16" xlink:href="#p" />
<use x="34" y="16" xlink:href="#p" />
<use x="36" y="16" xlink:href="#p" />
<use x="38" y="16" xlink:href="#p" />
<use x="46" y="16" xlink:href="#p" />
<use x="52" y="16" xlink:href="#p" />
<use x="54" y="16" xlink:href="#p" />
<use x="56" y="16" xlink:href="#p" />
<use x="60" y="16" xlink:href="#p" />
<use x="62" y="16" xlink:href="#p" />
<use x="70" y="16" xlink:href="#p" />
<use x="2" y="18" xlink:href="#p" />
<use x="4" y="18" xlink:href="#p" />
<use x="10" y="18" xlink:href="#p" />
<use x="20" y="18" xlink:href="#p" />
<use x="24" y="18" xlink:href="#p" />
<use x="30" y="18" xlink:href="#p" />
<use x="34" y="18" xlink:href="#p" />
<use x="38" y="18" xlink:href="#p" />
<use x="42" y="18" xlink:href="#p" />
<use x="44" y="18" xlink:href="#p" />
<use x="46" y="18" xlink:href="#p" />
<use x="48" y="18" xlink:href="#p" />
<use x="54" y="18" xlink:href="#p" />
<use x="58" y="18" xlink:href="#p" />
<use x="64" y="18" xlink:href="#p" />
<use x="66" y="18" xlink:href="#p" />
<use x="68" y="18" xlink:href="#p" />
<use x="2" y="20" xlink:href="#p" />
<use x="4" y="20" xlink:href="#p" />
<use x="6" y="20" xlink:href="#p" />
<use x="12" y="20" xlink:href="#p" />
<use x="16" y="20" xlink:href="#p" />
<use x="18" y="20" xlink:href="#p" />
<use x="26" y="20" xlink:href="#p" />
<use x="30" y="20" xlink:href="#p" />
<use x="38" y="20" xlink:href="#p" />
<use x="40" y="20" xlink:href="#p" />
<use x="48" y="20" xlink:href="#p" />
<use x="50" y="20" xlink:href="#p" />
<use x="52" y="20" xlink:href="#p" />
<use x="54" y="20" xlink:href="#p" />
<use x="58" y="20" xlink:href="#p" />
<use x="62" y="20" xlink:href="#p" />
<use x="8" y="22" xlink:href="#p" />
<use x="10" y="22" xlink:href="#p" />
<use x="14" y="22" xlink:href="#p" />
<use x="18" y="22" xlink:href="#p" />
<use x="20" y="22" xlink:href="#p" />
<use x="22" y="22" xlink:href="#p" />
<use x="24" y="22" xlink:href="#p" />
<use x="28" y="22" xlink:href="#p" />
<use x="30" y="22" xlink:href="#p" />
<use x="34" y="22" xlink:href="#p" />
<use x="40" y="22" xlink:href="#p" />
<use x="42" y="22" xlink:href="#p" />
<use x="44" y="22" xlink:href="#p" />
<use x="52" y="22" xlink:href="#p" />
<use x="54" y="22" xlink:href="#p" />
<use x="56" y="22" xlink:href="#p" />
<use x="58" y="22" xlink:href="#p" />
<use x="62" y="22" xlink:href="#p" />
<use x="68" y="22" xlink:href="#p" />
<use x="70" y="22" xlink:href="#p" />
<use x="0" y="24" xlink:href="#p" />
<use x="2" y="24" xlink:href="#p" />
<use x="4" y="24" xlink:href="#p" />
<use x="6" y="24" xlink:href="#p" />
<use x="8" y="24" xlink:href="#p" />
<use x="12" y="24" xlink:href="#p" />
<use x="14" y="24" xlink:href="#p" />
<use x="16" y="24" xlink:href="#p" />
<use x="24" y="24" xlink:href="#p" />
<use x="28" y="24" xlink:href="#p" />
<use x="32" y="24" xlink:href="#p" />
<use x="36" y="24" xlink:href="#p" />
<use x="40" y="24" xlink:href="#p" />
<use x="42" y="24" xlink:href="#p" />
<use x="48" y="24" xlink:href="#p" />
<use x="54" y="24" xlink:href="#p" />
<use x="56" y="24" xlink:href="#p" />
<use x="58" y="24" xlink:href="#p" />
<use x="60" y="24" xlink:href="#p" />
<use x="62" y="24" xlink:href="#p" />
<use x="66" y="24" xlink:href="#p" />
<use x="68" y="24" xlink:href="#p" />
<use x="72" y="24" xlink:href="#p" />
<use x="2" y="26" xlink:href="#p" />
<use x="10" y="26" xlink:href="#p" />
<use x="14" y="26" xlink:href="#p" />
<use x="22" y="26" xlink:href="#p" />
<use x="26" y="26" xlink:href="#p" />
<use x="28" y="26" xlink:href="#p" />
<use x="34" y="26" xlink:href="#p" />
<use x="38" y="26" xlink:href="#p" />
<use x="40" y="26" xlink:href="#p" />
<use x="42" y="26" xlink:href="#p" />
<use x="50" y="26" xlink:href="#p" />
<use x="52" y="26" xlink:href="#p" />
<use x="54" y="26" xlink:href="#p" />
<use x="56" y="26" xlink:href="#p" />
<use x="58" y="26" xlink:href="#p" />
<use x="64" y="26" xlink:href="#p" />
<use x="68" y="26" xlink:href="#p" />
<use x="70" y="26" xlink:href="#p" />
<use x="2" y="28" xlink:href="#p" />
<use x="8" y="28" xlink:href="#p" />
<use x="12" y="28" xlink:href="#p" />
<use x="16" y="28" xlink:href="#p" />
<use x="28" y="28" xlink:href="#p" />
<use x="36" y="28" xlink:href="#p" />
<use x="40" y="28" xlink:href="#p" />
<use x="44" y="28" xlink:href="#p" />
<use x="54" y="28" xlink:href="#p" />
<use x="60" y="28" xlink:href="#p" />
<use x="64" y="28" xlink:href="#p" />
<use x="66" y="28" xlink:href="#p" />
<use x="68" y="28" xlink:href="#p" />
<use x="2" y="30" xlink:href="#p" />
<use x="4" y="30" xlink:href="#p" />
<use x="8" y="30" xlink:href="#p" />
<use x="16" y="30" xlink:href="#p" />
<use x="18" y="30" xlink:href="#p" />
<use x="24" y="30" xlink:href="#p" />
<use x="28" y="30" xlink:href="#p" />
<use x="32" y="30" xlink:href="#p" />
<use x="40" y="30" xlink:href="#p" />
<use x="42" y="30" xlink:href="#p" />
<use x="46" y="30" xlink:href="#p" />
<use x="58" y="30" xlink:href="#p" />
<use x="60" y="30" xlink:href="#p" />
<use x="62" y="30" xlink:href="#p" />
<use x="64" y="30" xlink:href="#p" />
<use x="68" y="30" xlink:href="#p" />
<use x="70" y="30" xlink:href="#p" />
<use x="72" y="30" xlink:href="#p" />
<use x="4" y="32" xlink:href="#p" />
<use x="6" y="32" xlink:href="#p" />
<use x="10" y="32" xlink:href="#p" />
<use x="12" y="32" xlink:href="#p" />
<use x="26" y="32" xlink:href="#p" />
<use x="28" y="32" xlink:href="#p" />
<use x="36" y="32" xlink:href="#p" />
<use x="38" y="32" xlink:href="#p" />
<use x="40" y="32" xlink:href="#p" />
<use x="42" y="32" xlink:href="#p" />
<use x="44" y="32" xlink:href="#p" />
<use x="46" y="32" xlink:href="#p" />
<use x="48" y="32" xlink:href="#p" />
<use x="54" y="32" xlink:href="#p" />
<use x="58" y="32" xlink:href="#p" />
<use x="60" y="32" xlink:href="#p" />
<use x="62" y="32" xlink:href="#p" />
<use x="66" y="32" xlink:href="#p" />
<use x="68" y="32" xlink:href="#p" />
<use x="70" y="32" xlink:href="#p" />
<use x="72" y="32" xlink:href="#p" />
<use x="0" y="34" xlink:href="#p" />
<use x="8" y="34" xlink:href="#p" />
<use x="10" y="34" xlink:href="#p" />
<use x="14" y="34" xlink:href="#p" />
<use x="18" y="34" xlink:href="#p" />
<use x="20" y="34" xlink:href="#p" />
<use x="24" y="34" xlink:href="#p" />
<use x="30" y="34" xlink:href="#p" />
<use x="32" y="34" xlink:href="#p" />
<use x="36" y="34" xlink:href="#p" />
<use x="38" y="34" xlink:href="#p" />
<use x="40" y="34" xlink:href="#p" />
<use x="48" y="34" xlink:href="#p" />
<use x="50" y="34" xlink:href="#p" />
<use x="52" y="34" xlink:href="#p" />
<use x="54" y="34" xlink:href="#p" />
<use x="56" y="34" xlink:href="#p" />
<use x="58" y="34" xlink:href="#p" />
<use x="62" y="34" xlink:href="#p" />
<use x="64" y="34" xlink:href="#p" />
<use x="2" y="36" xlink:href="#p" />
<use x="6" y="36" xlink:href="#p" />
<use x="8" y="36" xlink:href="#p" />
<use x="12" y="36" xlink:href="#p" />
<use x="14" y="36" xlink:href="#p" />
<use x="16" y="36" xlink:href="#p" />
<use x="22" y="36" xlink:href="#p" />
<use x="26" y="36" xlink:href="#p" />
<use x="28" y="36" xlink:href="#p" />
<use x="34" y="36" xlink:href="#p" />
<use x="36" y="36" xlink:href="#p" />
<use x="42" y="36" xlink:href="#p" />
<use x="44" y="36" xlink:href="#p" />
<use x="46" y="36" xlink:href="#p" />
<use x="48" y="36" xlink:href="#p" />
<use x="54" y="36" xlink:href="#p" />
<use x="58" y="36" xlink:href="#p" />
<use x="60" y="36" xlink:href="#p" />
<use x="62" y="36" xlink:href="#p" />
<use x="64" y="36" xlink:href="#p" />
<use x="66" y="36" xlink:href="#p" />
<use x="68" y="36" xlink:href="#p" />
<use x="0" y="38" xlink:href="#p" />
<use x="2" y="38" xlink:href="#p" />
<use x="10" y="38" xlink:href="#p" />
<use x="16" y="38" xlink:href="#p" />
<use x="22" y="38" xlink:href="#p" />
<use x="24" y="38" xlink:href="#p" />
<use x="26" y="38" xlink:href="#p" />
<use x="28" y="38" xlink:href="#p" />
<use x="30" y="38" xlink:href="#p" />
<use x="36" y="38" xlink:href="#p" />
<use x="38" y="38" xlink:href="#p" />
<use x="42" y="38" xlink:href="#p" />
<use x="52" y="38" xlink:href="#p" />
<use x="54" y="38" xlink:href="#p" />
<use x="56" y="38" xlink:href="#p" />
<use x="68" y="38" xlink:href="#p" />
<use x="72" y="38" xlink:href="#p" />
<use x="6" y="40" xlink:href="#p" />
<use x="8" y="40" xlink:href="#p" />
<use x="12" y="40" xlink:href="#p" />
<use x="18" y="40" xlink:href="#p" />
<use x="22" y="40" xlink:href="#p" />
<use x="26" y="40" xlink:href="#p" />
<use x="30" y="40" xlink:href="#p" />
<use x="32" y="40" xlink:href="#p" />
<use x="34" y="40" xlink:href="#p" />
<use x="36" y="40" xlink:href="#p" />
<use x="42" y="40" xlink:href="#p" />
<use x="46" y="40" xlink:href="#p" />
<use x="48" y="40" xlink:href="#p" />
<use x="54" y="40" xlink:href="#p" />
<use x="58" y="40" xlink:href="#p" />
<use x="60" y="40" xlink:href="#p" />
<use x="68" y="40" xlink:href="#p" />
<use x="8" y="42" xlink:href="#p" />
<use x="10" y="42" xlink:href="#p" />
<use x="20" y="42" xlink:href="#p" />
<use x="26" y="42" xlink:href="#p" />
<use x="32" y="42" xlink:href="#p" />
<use x="36" y="42" xlink:href="#p" />
<use x="38" y="42" xlink:href="#p" />
<use x="40" y="42" xlink:href="#p" />
<use x="42" y="42" xlink:href="#p" />
<use x="44" y="42" xlink:href="#p" />
<use x="46" y="42" xlink:href="#p" />
<use x="50" y="42" xlink:href="#p" />
<use x="52" y="42" xlink:href="#p" />
<use x="54" y="42" xlink:href="#p" />
<use x="64" y="42" xlink:href="#p" />
<use x="66" y="42" xlink:href="#p" />
<use x="68" y="42" xlink:href="#p" />
<use x="0" y="44" xlink:href="#p" />
<use x="4" y="44" xlink:href="#p" />
<use x="6" y="44" xlink:href="#p" />
<use x="12" y="44" xlink:href="#p" />
<use x="16" y="44" xlink:href="#p" />
<use x="18" y="44" xlink:href="#p" />
<use x="20" y="44" xlink:href="#p" />
<use x="24" y="44" xlink:href="#p" />
<use x="28" y="44" xlink:href="#p" />
<use x="30" y="44" xlink:href="#p" />
<use x="32" y="44" xlink:href="#p" />
<use x="38" y="44" xlink:href="#p" />
<use x="40" y="44" xlink:href="#p" />
<use x="46" y="44" xlink:href="#p" />
<use x="52" y="44" xlink:href="#p" />
<use x="54" y="44" xlink:href="#p" />
<use x="56" y="44" xlink:href="#p" />
<use x="70" y="44" xlink:href="#p" />
<use x="2" y="46" xlink:href="#p" />
<use x="6" y="46" xlink:href="#p" />
<use x="8" y="46" xlink:href="#p" />
<use x="14" y="46" xlink:href="#p" />
<use x="20" y="46" xlink:href="#p" />
<use x="22" y="46" xlink:href="#p" />
<use x="24" y="46" xlink:href="#p" />
<use x="32" y="46" xlink:href="#p" />
<use x="36" y="46" xlink:href="#p" />
<use x="38" y="46" xlink:href="#p" />
<use x="42" y="46" xlink:href="#p" />
<use x="44" y="46" xlink:href="#p" />
<use x="52" y="46" xlink:href="#p" />
<use x="56" y="46" xlink:href="#p" />
<use x="60" y="46" xlink:href="#p" />
<use x="62" y="46" xlink:href="#p" />
<use x="68" y="46" xlink:href="#p" />
<use x="72" y="46" xlink:href="#p" />
<use x="2" y="48" xlink:href="#p" />
<use x="8" y="48" xlink:href="#p" />
<use x="10" y="48" xlink:href="#p" />
<use x="12" y="48" xlink:href="#p" />
<use x="14" y="48" xlink:href="#p" />
<use x="16" y="48" xlink:href="#p" />
<use x="28" y="48" xlink:href="#p" />
<use x="30" y="48" xlink:href="#p" />
<use x="32" y="48" xlink:href="#p" />
<use x="36" y="48" xlink:href="#p" />
<use x="38" y="48" xlink:href="#p" />
<use x="40" y="48" xlink:href="#p" />
<use x="42" y="48" xlink:href="#p" />
<use x="44" y="48" xlink:href="#p" />
<use x="46" y="48" xlink:href="#p" />
<use x="48" y="48" xlink:href="#p" />
<use x="52" y="48" xlink:href="#p" />
<use x="54" y="48" xlink:href="#p" />
<use x="56" y="48" xlink:href="#p" />
<use x="60" y="48" xlink:href="#p" />
<use x="62" y="48" xlink:href="#p" />
<use x="66" y="48" xlink:href="#p" />
<use x="68" y="48" xlink:href="#p" />
<use x="72" y="48" xlink:href="#p" />
<use x="0" y="50" xlink:href="#p" />
<use x="4" y="50" xlink:href="#p" />
<use x="6" y="50" xlink:href="#p" />
<use x="10" y="50" xlink:href="#p" />
<use x="16" y="50" xlink:href="#p" />
<use x="28" y="50" xlink:href="#p" />
<use x="34" y="50" xlink:href="#p" />
<use x="38" y="50" xlink:href="#p" />
<use x="40" y="50" xlink:href="#p" />
<use x="44" y="50" xlink:href="#p" />
<use x="50" y="50" xlink:href="#p" />
<use x="54" y="50" xlink:href="#p" />
<use x="64" y="50" xlink:href="#p" />
<use x="66" y="50" xlink:href="#p" />
<use x="70" y="50" xlink:href="#p" />
<use x="4" y="52" xlink:href="#p" />
<use x="12" y="52" xlink:href="#p" />
<use x="16" y="52" xlink:href="#p" />
<use x="18" y="52" xlink:href="#p" />
<use x="26" y="52" xlink:href="#p" />
<use x="28" y="52" xlink:href="#p" />
<use x="32" y="52" xlink:href="#p" />
<use x="38" y="52" xlink:href="#p" />
<use x="40" y="52" xlink:href="#p" />
<use x="44" y="52" xlink:href="#p" />
<use x="52" y="52" xlink:href="#p" />
<use x="54" y="52" xlink:href="#p" />
<use x="58" y="52" xlink:href="#p" />
<use x="62" y="52" xlink:href="#p" />
<use x="66" y="52" xlink:href="#p" />
<use x="4" y="54" xlink:href="#p" />
<use x="6" y="54" xlink:href="#p" />
<use x="16" y="54" xlink:href="#p" />
<use x="18" y="54" xlink:href="#p" />
<use x="20" y="54" xlink:href="#p" />
<use x="26" y="54" xlink:href="#p" />
<use x="30" y="54" xlink:href="#p" />
<use x="32" y="54" xlink:href="#p" />
<use x="36" y="54" xlink:href="#p" />
<use x="42" y="54" xlink:href="#p" />
<use x="44" y="54" xlink:href="#p" />
<use x="48" y="54" xlink:href="#p" />
<use x="60" y="54" xlink:href="#p" />
<use x="64" y="54" xlink:href="#p" />
<use x="68" y="54" xlink:href="#p" />
<use x="0" y="56" xlink:href="#p" />
<use x="2" y="56" xlink:href="#p" />
<use x="4" y="56" xlink:href="#p" />
<use x="8" y="56" xlink:href="#p" />
<use x="10" y="56" xlink:href="#p" />
<use x="12" y="56" xlink:href="#p" />
<use x="14" y="56" xlink:href="#p" />
<use x="16" y="56" xlink:href="#p" />
<use x="18" y="56" xlink:href="#p" />
<use x="22" y="56" xlink:href="#p" />
<use x="24" y="56" xlink:href="#p" />
<use x="38" y="56" xlink:href="#p" />
<use x="40" y="56" xlink:href="#p" />
<use x="44" y="56" xlink:href="#p" />
<use x="46" y="56" xlink:href="#p" />
<use x="54" y="56" xlink:href="#p" />
<use x="56" y="56" xlink:href="#p" />
<use x="58" y="56" xlink:href="#p" />
<use x="60" y="56" xlink:href="#p" />
<use x="62" y="56" xlink:href="#p" />
<use x="64" y="56" xlink:href="#p" />
<use x="68" y="56" xlink:href="#p" />
<use x="16" y="58" xlink:href="#p" />
<use x="18" y="58" xlink:href="#p" />
<use x="22" y="58" xlink:href="#p" />
<use x="24" y="58" xlink:href="#p" />
<use x="30" y="58" xlink:href="#p" />
<use x="34" y="58" xlink:href="#p" />
<use x="44" y="58" xlink:href="#p" />
<use x="46" y="58" xlink:href="#p" />
<use x="52" y="58" xlink:href="#p" />
<use x="56" y="58" xlink:href="#p" />
<use x="64" y="58" xlink:href="#p" />
<use x="66" y="58" xlink:href="#p" />
<use x="70" y="58" xlink:href="#p" />
<use x="0" y="60" xlink:href="#p" />
<use x="2" y="60" xlink:href="#p" />
<use x="4" y="60" xlink:href="#p" />
<use x="6" y="60" xlink:href="#p" />
<use x="8" y="60" xlink:href="#p" />
<use x="10" y="60" xlink:href="#p" />
<use x="12" y="60" xlink:href="#p" />
<use x="16" y="60" xlink:href="#p" />
<use x="18" y="60" xlink:href="#p" />
<use x="20" y="60" xlink:href="#p" />
<use x="22" y="60" xlink:href="#p" />
<use x="24" y="60" xlink:href="#p" />
<use x="40" y="60" xlink:href="#p" />
<use x="46" y="60" xlink:href="#p" />
<use x="48" y="60" xlink:href="#p" />
<use x="52" y="60" xlink:href="#p" />
<use x="56" y="60" xlink:href="#p" />
<use x="60" y="60" xlink:href="#p" />
<use x="64" y="60" xlink:href="#p" />
<use x="66" y="60" xlink:href="#p" />
<use x="68" y="60" xlink:href="#p" />
<use x="0" y="62" xlink:href="#p" />
<use x="12" y="62" xlink:href="#p" />
<use x="16" y="62" xlink:href="#p" />
<use x="22" y="62" xlink:href="#p" />
<use x="26" y="62" xlink:href="#p" />
<use x="30" y="62" xlink:href="#p" />
<use x="32" y="62" xlink:href="#p" />
<use x="34" y="62" xlink:href="#p" />
<use x="36" y="62" xlink:href="#p" />
<use x="38" y="62" xlink:href="#p" />
<use x="42" y="62" xlink:href="#p" />
<use x="44" y="62" xlink:href="#p" />
<use x="46" y="62" xlink:href="#p" />
<use x="48" y="62" xlink:href="#p" />
<use x="54" y="62" xlink:href="#p" />
<use x="56" y="62" xlink:href="#p" />
<use x="64" y="62" xlink:href="#p" />
<use x="68" y="62" xlink:href="#p" />
<use x="0" y="64" xlink:href="#p" />
<use x="4" y="64" xlink:href="#p" />
<use x="6" y="64" xlink:href="#p" />
<use x="8" y="64" xlink:href="#p" />
<use x="12" y="64" xlink:href="#p" />
<use x="16" y="64" xlink:href="#p" />
<use x="20" y="64" xlink:href="#p" />
<use x="26" y="64" xlink:href="#p" />
<use x="28" y="64" xlink:href="#p" />
<use x="30" y="64" xlink:href="#p" />
<use x="32" y="64" xlink:href="#p" />
<use x="34" y="64" xlink:href="#p" />
<use x="36" y="64" xlink:href="#p" />
<use x="38" y="64" xlink:href="#p" />
<use x="40" y="64" xlink:href="#p" />
<use x="42" y="64" xlink:href="#p" />
<use x="48" y="64" xlink:href="#p" />
<use x="56" y="64" xlink:href="#p" />
<use x="58" y="64" xlink:href="#p" />
<use x="60" y="64" xlink:href="#p" />
<use x="62" y="64" xlink:href="#p" />
<use x="64" y="64" xlink:href="#p" />
<use x="66" y="64" xlink:href="#p" />
<use x="68" y="64" xlink:href="#p" />
<use x="70" y="64" xlink:href="#p" />
<use x="72" y="64" xlink:href="#p" />
<use x="0" y="66" xlink:href="#p" />
<use x="4" y="66" xlink:href="#p" />
<use x="6" y="66" xlink:href="#p" />
<use x="8" y="66" xlink:href="#p" />
<use x="12" y="66" xlink:href="#p" />
<use x="22" y="66" xlink:href="#p" />
<use x="24" y="66" xlink:href="#p" />
<use x="28" y="66" xlink:href="#p" />
<use x="30" y="66" xlink:href="#p" />
<use x="36" y="66" xlink:href="#p" />
<use x="42" y="66" xlink:href="#p" />
<use x="48" y="66" xlink:href="#p" />
<use x="56" y="66" xlink:href="#p" />
<use x="60" y="66" xlink:href="#p" />
<use x="62" y="66" xlink:href="#p" />
<use x="66" y="66" xlink:href="#p" />
<use x="68" y="66" xlink:href="#p" />
<use x="0" y="68" xlink:href="#p" />
<use x="4" y="68" xlink:href="#p" />
<use x="6" y="68" xlink:href="#p" />
<use x="8" y="68" xlink:href="#p" />
<use x="12" y="68" xlink:href="#p" />
<use x="18" y="68" xlink:href="#p" />
<use x="24" y="68" xlink:href="#p" />
<use x="26" y="68" xlink:href="#p" />
<use x="30" y="68" xlink:href="#p" />
<use x="32" y="68" xlink:href="#p" />
<use x="36" y="68" xlink:href="#p" />
<use x="38" y="68" xlink:href="#p" />
<use x="40" y="68" xlink:href="#p" />
<use x="42" y="68" xlink:href="#p" />
<use x="44" y="68" xlink:href="#p" />
<use x="46" y="68" xlink:href="#p" />
<use x="48" y="68" xlink:href="#p" />
<use x="52" y="68" xlink:href="#p" />
<use x="60" y="68" xlink:href="#p" />
<use x="70" y="68" xlink:href="#p" />
<use x="0" y="70" xlink:href="#p" />
<use x="12" y="70" xlink:href="#p" />
<use x="18" y="70" xlink:href="#p" />
<use x="24" y="70" xlink:href="#p" />
<use x="34" y="70" xlink:href="#p" />
<use x="42" y="70" xlink:href="#p" />
<use x="48" y="70" xlink:href="#p" />
<use x="54" y="70" xlink:href="#p" />
<use x="58" y="70" xlink:href="#p" />
<use x="62" y="70" xlink:href="#p" />
<use x="64" y="70" xlink:href="#p" />
<use x="68" y="70" xlink:href="#p" />
<use x="70" y="70" xlink:href="#p" />
<use x="0" y="72" xlink:href="#p" />
<use x="2" y="72" xlink:href="#p" />
<use x="4" y="72" xlink:href="#p" />
<use x="6" y="72" xlink:href="#p" />
<use x="8" y="72" xlink:href="#p" />
<use x="10" y="72" xlink:href="#p" />
<use x="12" y="72" xlink:href="#p" />
<use x="18" y="72" xlink:href="#p" />
<use x="22" y="72" xlink:href="#p" />
<use x="26" y="72" xlink:href="#p" />
<use x="30" y="72" xlink:href="#p" />
<use x="48" y="72" xlink:href="#p" />
<use x="54" y="72" xlink:href="#p" />
<use x="58" y="72" xlink:href="#p" />
<use x="62" y="72" xlink:href="#p" />
<use x="64" y="72" xlink:href="#p" />
<use x="66" y="72" xlink:href="#p" />
<use x="68" y="72" xlink:href="#p" />
<use x="70" y="72" xlink:href="#p" />
<use x="72" y="72" xlink:href="#p" />
</g>
</svg>