<svg width="96" height="96" viewBox="0 0 96 96" fill="none" xmlns="http://www.w3.org/2000/svg">
<path fill-rule="evenodd" clip-rule="evenodd" d="M47.9999 60.6668C54.9954 60.6668 60.6666 54.9956 60.6666 48.0002C60.6666 41.0046 54.9954 35.3335 47.9999 35.3335C41.0043 35.3335 35.3333 41.0046 35.3333 48.0002C35.3333 54.9956 41.0043 60.6668 47.9999 60.6668ZM47.9999 54.6397C44.3329 54.6397 41.3604 51.6672 41.3604 48.0002C41.3604 44.3332 44.3329 41.3606 47.9999 41.3606C51.6669 41.3606 54.6395 44.3332 54.6395 48.0002C54.6395 51.6672 51.6669 54.6397 47.9999 54.6397Z" fill="#009DFF"/>
<path d="M32.1666 48.0002C32.1666 49.7491 30.7488 51.1668 28.9999 51.1668C27.251 51.1668 25.8333 49.7491 25.8333 48.0002C25.8333 46.2512 27.251 44.8335 28.9999 44.8335C30.7488 44.8335 32.1666 46.2512 32.1666 48.0002Z" fill="#009DFF"/>
<path d="M66.9999 51.1668C68.7489 51.1668 70.1666 49.7491 70.1666 48.0002C70.1666 46.2512 68.7489 44.8335 66.9999 44.8335C65.251 44.8335 63.8333 46.2512 63.8333 48.0002C63.8333 49.7491 65.251 51.1668 66.9999 51.1668Z" fill="#009DFF"/>
<path fill-rule="evenodd" clip-rule="evenodd" d="M76.5 25.8335C81.7469 25.8335 86 30.0868 86 35.3335V60.6668C86 65.9137 81.7469 70.1668 76.5 70.1668H19.5C14.2533 70.1668 10 65.9137 10 60.6668V35.3335C10 30.0868 14.2533 25.8335 19.5 25.8335H76.5ZM22.6667 32.1668H73.3333C73.3333 32.9985 73.4971 33.8221 73.8153 34.5905C74.1339 35.3589 74.6003 36.0571 75.1884 36.6452C75.7764 37.2333 76.4747 37.6998 77.2429 38.0181C78.0115 38.3364 78.8351 38.5002 79.6667 38.5002V57.5002C78.8351 57.5002 78.0115 57.6639 77.2429 57.9821C76.4747 58.3007 75.7764 58.7671 75.1884 59.3552C74.6003 59.9432 74.1339 60.6415 73.8153 61.4097C73.4971 62.1783 73.3333 63.0019 73.3333 63.8335H22.6667C22.6667 63.0019 22.5029 62.1783 22.1846 61.4097C21.8663 60.6415 21.3998 59.9432 20.8117 59.3552C20.2236 58.7671 19.5254 58.3007 18.757 57.9821C17.9886 57.6639 17.165 57.5002 16.3333 57.5002V38.5002C17.165 38.5002 17.9886 38.3364 18.757 38.0181C19.5254 37.6998 20.2236 37.2333 20.8117 36.6452C21.3998 36.0571 21.8663 35.3589 22.1846 34.5905C22.5029 33.8221 22.6667 32.9985 22.6667 32.1668Z" fill="#009DFF"/>
</svg>
