<svg xmlns="http://www.w3.org/2000/svg" xmlns:xlink="http://www.w3.org/1999/xlink" width="96" zoomAndPan="magnify" viewBox="0 0 72 72" height="96" preserveAspectRatio="xMidYMid meet" version="1.2"><defs><clipPath id="4635070014"><path d="M 7.527344 10.101562 L 64.417969 10.101562 L 64.417969 61.847656 L 7.527344 61.847656 Z M 7.527344 10.101562 "/></clipPath><clipPath id="3edef05908"><path d="M 8.28125 12.875 L 64.417969 12.875 L 64.417969 61.847656 L 8.28125 61.847656 Z M 8.28125 12.875 "/></clipPath></defs><g id="4d627afb92"><g clip-rule="nonzero" clip-path="url(#4635070014)"><path style=" stroke:none;fill-rule:nonzero;fill:#db2700;fill-opacity:1;" d="M 8.273438 53.28125 L 30.96875 13.023438 C 33.164062 9.125 38.78125 9.125 40.980469 13.023438 L 63.671875 53.28125 C 65.828125 57.109375 63.0625 61.847656 58.664062 61.847656 L 13.28125 61.847656 C 8.882812 61.847656 6.117188 57.109375 8.273438 53.28125 "/></g><g clip-rule="nonzero" clip-path="url(#3edef05908)"><path style=" stroke:none;fill-rule:nonzero;fill:#db2700;fill-opacity:1;" d="M 63.671875 53.28125 L 40.980469 13.023438 C 39.769531 10.878906 58.09375 50.410156 58.09375 50.410156 C 60.25 54.238281 57.484375 58.976562 53.085938 58.976562 L 8.304688 58.976562 C 9.273438 60.652344 11.070312 61.847656 13.28125 61.847656 L 58.664062 61.847656 C 63.0625 61.847656 65.828125 57.109375 63.671875 53.28125 "/></g><path style=" stroke:none;fill-rule:nonzero;fill:#ffffff;fill-opacity:1;" d="M 35.972656 47 C 34.207031 47 32.777344 48.429688 32.777344 50.195312 C 32.777344 51.960938 34.207031 53.390625 35.972656 53.390625 C 37.738281 53.390625 39.167969 51.960938 39.167969 50.195312 C 39.167969 48.429688 37.738281 47 35.972656 47 "/><path style=" stroke:none;fill-rule:nonzero;fill:#ffffff;fill-opacity:1;" d="M 35.972656 21.429688 C 33.171875 21.429688 30.976562 23.832031 31.226562 26.625 L 32.488281 40.625 C 32.652344 42.425781 34.164062 43.808594 35.972656 43.808594 C 37.78125 43.808594 39.292969 42.425781 39.457031 40.625 L 40.71875 26.625 C 40.96875 23.832031 38.773438 21.429688 35.972656 21.429688 "/></g></svg>