<svg width="31" height="30" viewBox="0 0 31 30" fill="none" xmlns="http://www.w3.org/2000/svg">
<path d="M5.82495 13.7749V19.9874C5.82495 22.2624 5.82495 22.2624 7.97495 23.7124L13.8874 27.1249C14.7749 27.6374 16.2249 27.6374 17.1124 27.1249L23.0249 23.7124C25.1749 22.2624 25.1749 22.2624 25.1749 19.9874V13.7749C25.1749 11.4999 25.1749 11.4999 23.0249 10.0499L17.1124 6.63743C16.2249 6.12493 14.7749 6.12493 13.8874 6.63743L7.97495 10.0499C5.82495 11.4999 5.82495 11.4999 5.82495 13.7749Z" stroke="#009DFF" stroke-width="1.5" stroke-linecap="round" stroke-linejoin="round"/>
<path d="M22.375 9.5375V6.25C22.375 3.75 21.125 2.5 18.625 2.5H12.375C9.875 2.5 8.625 3.75 8.625 6.25V9.45" stroke="#009DFF" stroke-width="1.5" stroke-linecap="round" stroke-linejoin="round"/>
<path d="M16.2874 13.7375L16.9999 14.85C17.1124 15.025 17.3624 15.2 17.5499 15.25L18.8249 15.575C19.6124 15.775 19.8249 16.45 19.3124 17.075L18.4749 18.0875C18.3499 18.25 18.2499 18.5375 18.2624 18.7375L18.3374 20.05C18.3874 20.8625 17.8124 21.275 17.0624 20.975L15.8374 20.4875C15.6499 20.4125 15.3374 20.4125 15.1499 20.4875L13.9249 20.975C13.1749 21.275 12.6 20.85 12.65 20.05L12.725 18.7375C12.7375 18.5375 12.6375 18.2375 12.5125 18.0875L11.675 17.075C11.1625 16.45 11.375 15.775 12.1625 15.575L13.4374 15.25C13.6374 15.2 13.8874 15.0125 13.9874 14.85L14.6999 13.7375C15.1499 13.0625 15.8499 13.0625 16.2874 13.7375Z" stroke="#009DFF" stroke-width="1.5" stroke-linecap="round" stroke-linejoin="round"/>
</svg>
