<svg xmlns="http://www.w3.org/2000/svg" xmlns:xlink="http://www.w3.org/1999/xlink" width="96" zoomAndPan="magnify" viewBox="0 0 72 72" height="96" preserveAspectRatio="xMidYMid meet" version="1.2"><defs><clipPath id="e9133a46cf"><path d="M 7.5 19.476562 L 29 19.476562 L 29 52.476562 L 7.5 52.476562 Z M 7.5 19.476562 "/></clipPath><clipPath id="7c46bc63d0"><path d="M 7.5 34 L 64.5 34 L 64.5 38 L 7.5 38 Z M 7.5 34 "/></clipPath></defs><g id="989d764b7c"><g clip-rule="nonzero" clip-path="url(#e9133a46cf)"><path style=" stroke:none;fill-rule:nonzero;fill:#009dff;fill-opacity:1;" d="M 28.203125 21.703125 C 28.203125 22.207031 28.011719 22.710938 27.570312 23.027344 L 12.234375 36.03125 L 27.570312 49.035156 C 28.328125 49.667969 28.390625 50.800781 27.761719 51.496094 C 27.128906 52.253906 25.992188 52.316406 25.234375 51.6875 L 8.320312 37.355469 C 7.5 36.664062 7.5 35.335938 8.320312 34.644531 L 25.234375 20.3125 C 25.992188 19.683594 27.128906 19.746094 27.761719 20.503906 C 28.078125 20.882812 28.203125 21.324219 28.203125 21.703125 Z M 28.203125 21.703125 "/></g><g clip-rule="nonzero" clip-path="url(#7c46bc63d0)"><path style=" stroke:none;fill-rule:nonzero;fill:#009dff;fill-opacity:1;" d="M 64.5 36.03125 C 64.5 36.976562 63.679688 37.800781 62.730469 37.800781 L 9.457031 37.800781 C 8.507812 37.800781 7.6875 36.976562 7.6875 36.03125 C 7.6875 35.085938 8.507812 34.265625 9.457031 34.265625 L 62.730469 34.265625 C 63.679688 34.265625 64.5 35.085938 64.5 36.03125 Z M 64.5 36.03125 "/></g></g></svg>