<svg xmlns="http://www.w3.org/2000/svg" xmlns:xlink="http://www.w3.org/1999/xlink" width="96" zoomAndPan="magnify" viewBox="0 0 72 72" height="96" preserveAspectRatio="xMidYMid meet" version="1.2"><defs><clipPath id="3562992aba"><path d="M 14 7.5 L 58.664062 7.5 L 58.664062 64.5 L 14 64.5 Z M 14 7.5 "/></clipPath></defs><g id="fee5e31bab"><path style=" stroke:none;fill-rule:nonzero;fill:#009dff;fill-opacity:1;" d="M 23.054688 15.183594 C 23.316406 15.183594 23.539062 15.089844 23.722656 14.90625 C 23.910156 14.71875 24 14.496094 24 14.234375 L 24 13.285156 C 24 13.023438 23.910156 12.800781 23.722656 12.613281 C 23.539062 12.429688 23.316406 12.335938 23.054688 12.335938 C 22.792969 12.335938 22.566406 12.429688 22.382812 12.613281 C 22.199219 12.800781 22.105469 13.023438 22.105469 13.285156 L 22.105469 14.234375 C 22.105469 14.496094 22.199219 14.71875 22.382812 14.90625 C 22.566406 15.089844 22.792969 15.183594 23.054688 15.183594 Z M 23.054688 15.183594 "/><path style=" stroke:none;fill-rule:nonzero;fill:#009dff;fill-opacity:1;" d="M 21.0625 14.835938 L 20.238281 14.359375 C 20.011719 14.230469 19.773438 14.203125 19.523438 14.269531 C 19.269531 14.339844 19.082031 14.484375 18.949219 14.710938 C 18.820312 14.9375 18.789062 15.175781 18.855469 15.429688 C 18.921875 15.679688 19.066406 15.871094 19.292969 16.003906 L 20.113281 16.476562 C 20.339844 16.605469 20.578125 16.636719 20.832031 16.570312 C 21.082031 16.5 21.273438 16.351562 21.402344 16.128906 C 21.535156 15.902344 21.566406 15.664062 21.5 15.410156 C 21.433594 15.160156 21.285156 14.96875 21.0625 14.835938 Z M 21.0625 14.835938 "/><path style=" stroke:none;fill-rule:nonzero;fill:#009dff;fill-opacity:1;" d="M 20.113281 17.679688 L 19.292969 18.15625 C 19.0625 18.285156 18.914062 18.476562 18.84375 18.730469 C 18.777344 18.984375 18.808594 19.226562 18.9375 19.453125 C 19.070312 19.679688 19.265625 19.828125 19.519531 19.894531 C 19.773438 19.964844 20.011719 19.929688 20.238281 19.796875 L 21.0625 19.324219 C 21.285156 19.191406 21.433594 19 21.5 18.746094 C 21.566406 18.496094 21.535156 18.257812 21.402344 18.03125 C 21.273438 17.804688 21.082031 17.65625 20.832031 17.589844 C 20.578125 17.519531 20.339844 17.550781 20.113281 17.679688 Z M 20.113281 17.679688 "/><path style=" stroke:none;fill-rule:nonzero;fill:#009dff;fill-opacity:1;" d="M 25.519531 16.605469 C 25.6875 16.605469 25.847656 16.5625 25.992188 16.476562 L 26.816406 16.003906 C 27.042969 15.875 27.191406 15.679688 27.261719 15.425781 C 27.328125 15.171875 27.296875 14.933594 27.167969 14.703125 C 27.035156 14.476562 26.84375 14.328125 26.589844 14.261719 C 26.332031 14.195312 26.09375 14.226562 25.867188 14.359375 L 25.042969 14.835938 C 24.859375 14.941406 24.726562 15.09375 24.644531 15.292969 C 24.5625 15.492188 24.546875 15.695312 24.601562 15.902344 C 24.660156 16.109375 24.769531 16.277344 24.941406 16.410156 C 25.113281 16.539062 25.304688 16.605469 25.519531 16.605469 Z M 25.519531 16.605469 "/><g clip-rule="nonzero" clip-path="url(#3562992aba)"><path style=" stroke:none;fill-rule:nonzero;fill:#009dff;fill-opacity:1;" d="M 58.113281 8.292969 C 58.042969 8.042969 57.894531 7.851562 57.667969 7.722656 C 57.4375 7.589844 57.199219 7.5625 56.945312 7.628906 L 46.515625 10.476562 C 46.21875 10.554688 46.011719 10.734375 45.890625 11.015625 L 43.292969 17.078125 L 31.589844 17.078125 C 31.589844 16.472656 31.527344 15.871094 31.398438 15.277344 C 31.269531 14.683594 31.082031 14.109375 30.832031 13.554688 C 30.582031 13 30.277344 12.480469 29.914062 11.992188 C 29.554688 11.503906 29.144531 11.058594 28.6875 10.65625 C 28.230469 10.253906 27.738281 9.90625 27.207031 9.609375 C 26.675781 9.3125 26.121094 9.078125 25.539062 8.898438 C 24.960938 8.722656 24.367188 8.605469 23.761719 8.554688 C 23.15625 8.503906 22.550781 8.519531 21.949219 8.597656 C 21.34375 8.675781 20.757812 8.816406 20.183594 9.019531 C 19.613281 9.222656 19.066406 9.484375 18.550781 9.804688 C 18.035156 10.121094 17.558594 10.492188 17.117188 10.914062 C 16.679688 11.335938 16.292969 11.800781 15.953125 12.304688 C 15.613281 12.808594 15.332031 13.34375 15.109375 13.90625 C 14.882812 14.472656 14.71875 15.054688 14.617188 15.652344 C 14.519531 16.25 14.480469 16.855469 14.507812 17.460938 C 14.535156 18.070312 14.628906 18.667969 14.785156 19.253906 C 14.9375 19.839844 15.15625 20.40625 15.429688 20.945312 C 15.707031 21.488281 16.035156 21.996094 16.417969 22.464844 C 16.804688 22.9375 17.234375 23.363281 17.707031 23.742188 C 18.179688 24.121094 18.691406 24.449219 19.234375 24.71875 C 19.777344 24.988281 20.34375 25.199219 20.933594 25.351562 C 21.523438 25.5 22.121094 25.585938 22.726562 25.609375 C 23.335938 25.632812 23.9375 25.589844 24.535156 25.484375 C 25.136719 25.378906 25.714844 25.210938 26.277344 24.980469 L 26.253906 24.941406 L 36.332031 41.066406 L 36.332031 62.601562 L 28.742188 62.601562 C 28.480469 62.601562 28.257812 62.695312 28.074219 62.882812 C 27.886719 63.066406 27.796875 63.289062 27.796875 63.550781 C 27.796875 63.8125 27.886719 64.035156 28.074219 64.222656 C 28.257812 64.40625 28.480469 64.5 28.742188 64.5 L 45.816406 64.5 C 46.078125 64.5 46.300781 64.40625 46.484375 64.222656 C 46.671875 64.035156 46.761719 63.8125 46.761719 63.550781 C 46.761719 63.289062 46.671875 63.066406 46.484375 62.882812 C 46.300781 62.695312 46.078125 62.601562 45.816406 62.601562 L 38.226562 62.601562 L 38.226562 41.066406 L 48.496094 24.636719 L 52.3125 18.53125 C 52.507812 18.214844 52.519531 17.894531 52.335938 17.566406 C 52.15625 17.242188 51.878906 17.078125 51.503906 17.078125 L 45.355469 17.078125 L 47.453125 12.183594 L 57.445312 9.457031 C 57.699219 9.390625 57.890625 9.242188 58.019531 9.015625 C 58.148438 8.785156 58.179688 8.546875 58.113281 8.292969 Z M 25.253906 23.339844 C 24.542969 23.59375 23.808594 23.71875 23.054688 23.71875 C 22.617188 23.71875 22.183594 23.675781 21.757812 23.589844 C 21.332031 23.503906 20.914062 23.378906 20.511719 23.210938 C 20.109375 23.046875 19.726562 22.839844 19.363281 22.597656 C 19.003906 22.355469 18.667969 22.082031 18.359375 21.773438 C 18.050781 21.464844 17.773438 21.128906 17.53125 20.765625 C 17.289062 20.40625 17.085938 20.023438 16.917969 19.621094 C 16.753906 19.21875 16.625 18.800781 16.542969 18.375 C 16.457031 17.945312 16.414062 17.515625 16.414062 17.078125 C 16.414062 16.644531 16.457031 16.210938 16.542969 15.785156 C 16.625 15.355469 16.753906 14.941406 16.917969 14.539062 C 17.085938 14.136719 17.289062 13.753906 17.53125 13.390625 C 17.773438 13.027344 18.050781 12.691406 18.359375 12.382812 C 18.667969 12.078125 19.003906 11.800781 19.363281 11.558594 C 19.726562 11.316406 20.109375 11.113281 20.511719 10.945312 C 20.914062 10.777344 21.332031 10.652344 21.757812 10.566406 C 22.183594 10.484375 22.617188 10.441406 23.054688 10.441406 C 23.488281 10.441406 23.921875 10.484375 24.347656 10.566406 C 24.777344 10.652344 25.191406 10.777344 25.59375 10.945312 C 25.996094 11.113281 26.378906 11.316406 26.742188 11.558594 C 27.105469 11.800781 27.4375 12.078125 27.746094 12.382812 C 28.054688 12.691406 28.332031 13.027344 28.574219 13.390625 C 28.816406 13.753906 29.019531 14.136719 29.1875 14.539062 C 29.355469 14.941406 29.480469 15.355469 29.566406 15.785156 C 29.648438 16.210938 29.691406 16.644531 29.691406 17.078125 L 23.054688 17.078125 C 22.679688 17.078125 22.402344 17.242188 22.222656 17.566406 C 22.042969 17.894531 22.050781 18.214844 22.25 18.53125 L 25.496094 23.726562 Z M 27.871094 23.945312 L 24.761719 18.976562 L 42.476562 18.976562 L 40.433594 23.738281 C 37.253906 23.875 36.925781 24.667969 33.164062 24.667969 C 31.367188 24.652344 29.605469 24.410156 27.871094 23.945312 Z M 49.796875 18.976562 L 46.414062 24.386719 C 45.128906 24.054688 43.824219 23.839844 42.5 23.746094 L 44.542969 18.976562 Z M 49.796875 18.976562 "/></g></g></svg>