<svg xmlns="http://www.w3.org/2000/svg" xmlns:xlink="http://www.w3.org/1999/xlink" width="96" zoomAndPan="magnify" viewBox="0 0 72 72" height="96" preserveAspectRatio="xMidYMid meet" version="1.2"><defs><clipPath id="ebad600abe"><path d="M 13.984375 7.5 L 58.234375 7.5 L 58.234375 64.5 L 13.984375 64.5 Z M 13.984375 7.5 "/></clipPath></defs><g id="ad918a7319"><g clip-rule="nonzero" clip-path="url(#ebad600abe)"><path style=" stroke:none;fill-rule:evenodd;fill:#ffffff;fill-opacity:1;" d="M 58.015625 60.054688 L 58.015625 11.949219 C 58.015625 10.726562 57.515625 9.613281 56.707031 8.804688 C 55.902344 8 54.789062 7.5 53.5625 7.5 L 18.433594 7.5 C 17.210938 7.5 16.097656 8 15.292969 8.804688 C 14.484375 9.613281 13.984375 10.726562 13.984375 11.949219 L 13.984375 60.054688 C 13.984375 61.28125 14.484375 62.394531 15.292969 63.199219 C 16.097656 64.003906 17.210938 64.507812 18.433594 64.507812 L 53.5625 64.507812 C 54.789062 64.507812 55.902344 64.003906 56.707031 63.199219 C 57.515625 62.394531 58.015625 61.28125 58.015625 60.054688 Z M 20.492188 29.953125 L 24.964844 29.953125 C 25.730469 29.953125 26.429688 30.226562 26.933594 30.664062 C 27.4375 31.105469 27.753906 31.710938 27.753906 32.378906 L 27.753906 35.953125 C 27.753906 36.621094 27.4375 37.226562 26.933594 37.667969 C 26.429688 38.105469 25.730469 38.378906 24.964844 38.378906 L 20.492188 38.378906 C 19.726562 38.378906 19.027344 38.105469 18.523438 37.667969 C 18.015625 37.226562 17.703125 36.621094 17.703125 35.953125 L 17.703125 32.378906 C 17.703125 31.710938 18.015625 31.105469 18.523438 30.664062 C 19.027344 30.226562 19.726562 29.953125 20.492188 29.953125 Z M 33.386719 29.953125 L 37.855469 29.953125 C 38.625 29.953125 39.320312 30.226562 39.828125 30.664062 C 40.332031 31.105469 40.644531 31.710938 40.644531 32.378906 L 40.644531 35.953125 C 40.644531 36.621094 40.332031 37.226562 39.828125 37.667969 C 39.320312 38.105469 38.625 38.378906 37.855469 38.378906 L 33.386719 38.378906 C 32.617188 38.378906 31.921875 38.105469 31.414062 37.667969 C 30.910156 37.226562 30.597656 36.621094 30.597656 35.953125 L 30.597656 32.378906 C 30.597656 31.710938 30.910156 31.105469 31.414062 30.664062 C 31.921875 30.226562 32.617188 29.953125 33.386719 29.953125 Z M 46.28125 29.953125 L 50.75 29.953125 C 51.515625 29.953125 52.214844 30.226562 52.71875 30.664062 C 53.226562 31.105469 53.539062 31.710938 53.539062 32.378906 L 53.539062 35.953125 C 53.539062 36.621094 53.226562 37.226562 52.71875 37.667969 C 52.214844 38.105469 51.515625 38.378906 50.75 38.378906 L 46.28125 38.378906 C 45.511719 38.378906 44.8125 38.105469 44.308594 37.667969 C 43.804688 37.226562 43.488281 36.621094 43.488281 35.953125 L 43.488281 32.378906 C 43.488281 31.710938 43.804688 31.105469 44.308594 30.664062 C 44.8125 30.226562 45.511719 29.953125 46.28125 29.953125 Z M 20.492188 41.027344 L 24.964844 41.027344 C 25.730469 41.027344 26.429688 41.300781 26.933594 41.738281 C 27.4375 42.179688 27.753906 42.785156 27.753906 43.453125 L 27.753906 47.027344 C 27.753906 47.695312 27.4375 48.300781 26.933594 48.742188 C 26.429688 49.179688 25.730469 49.453125 24.964844 49.453125 L 20.492188 49.453125 C 19.726562 49.453125 19.027344 49.179688 18.523438 48.742188 C 18.015625 48.300781 17.703125 47.695312 17.703125 47.027344 L 17.703125 43.453125 C 17.703125 42.785156 18.015625 42.179688 18.523438 41.738281 C 19.027344 41.300781 19.726562 41.027344 20.492188 41.027344 Z M 33.386719 41.027344 L 37.855469 41.027344 C 38.625 41.027344 39.320312 41.300781 39.828125 41.738281 C 40.332031 42.179688 40.644531 42.785156 40.644531 43.453125 L 40.644531 47.027344 C 40.644531 47.695312 40.332031 48.300781 39.828125 48.742188 C 39.320312 49.179688 38.625 49.453125 37.855469 49.453125 L 33.386719 49.453125 C 32.617188 49.453125 31.921875 49.179688 31.414062 48.742188 C 30.910156 48.300781 30.597656 47.695312 30.597656 47.027344 L 30.597656 43.453125 C 30.597656 42.785156 30.910156 42.179688 31.414062 41.738281 C 31.921875 41.300781 32.617188 41.027344 33.386719 41.027344 Z M 46.28125 41.027344 L 50.75 41.027344 C 51.515625 41.027344 52.214844 41.300781 52.71875 41.738281 C 53.226562 42.179688 53.539062 42.785156 53.539062 43.453125 L 53.539062 58.101562 C 53.539062 58.769531 53.226562 59.375 52.71875 59.816406 C 52.214844 60.253906 51.515625 60.527344 50.75 60.527344 L 46.28125 60.527344 C 45.511719 60.527344 44.8125 60.253906 44.308594 59.816406 C 43.804688 59.375 43.488281 58.769531 43.488281 58.101562 L 43.488281 43.453125 C 43.488281 42.785156 43.804688 42.179688 44.308594 41.738281 C 44.8125 41.300781 45.511719 41.027344 46.28125 41.027344 Z M 20.492188 52.101562 L 24.964844 52.101562 C 25.730469 52.101562 26.429688 52.375 26.933594 52.816406 C 27.4375 53.253906 27.753906 53.859375 27.753906 54.527344 L 27.753906 58.101562 C 27.753906 58.769531 27.4375 59.375 26.933594 59.816406 C 26.429688 60.253906 25.730469 60.527344 24.964844 60.527344 L 20.492188 60.527344 C 19.726562 60.527344 19.027344 60.253906 18.523438 59.816406 C 18.015625 59.375 17.703125 58.769531 17.703125 58.101562 L 17.703125 54.527344 C 17.703125 53.859375 18.015625 53.253906 18.523438 52.816406 C 19.027344 52.375 19.726562 52.101562 20.492188 52.101562 Z M 33.386719 52.101562 L 37.855469 52.101562 C 38.625 52.101562 39.320312 52.375 39.828125 52.816406 C 40.332031 53.253906 40.644531 53.859375 40.644531 54.527344 L 40.644531 58.101562 C 40.644531 58.769531 40.332031 59.375 39.828125 59.816406 C 39.320312 60.253906 38.625 60.527344 37.855469 60.527344 L 33.386719 60.527344 C 32.617188 60.527344 31.921875 60.253906 31.414062 59.816406 C 30.910156 59.375 30.597656 58.769531 30.597656 58.101562 L 30.597656 54.527344 C 30.597656 53.859375 30.910156 53.253906 31.414062 52.816406 C 31.921875 52.375 32.617188 52.101562 33.386719 52.101562 Z M 53.644531 23.539062 C 53.644531 24.09375 53.402344 24.597656 53.007812 24.964844 C 52.617188 25.332031 52.078125 25.5625 51.484375 25.5625 L 20.515625 25.5625 C 19.921875 25.5625 19.382812 25.332031 18.992188 24.964844 C 18.601562 24.597656 18.355469 24.09375 18.355469 23.539062 L 18.355469 14.648438 C 18.355469 14.09375 18.601562 13.585938 18.992188 13.222656 C 19.382812 12.855469 19.921875 12.625 20.515625 12.625 L 51.484375 12.625 C 52.078125 12.625 52.617188 12.855469 53.007812 13.222656 C 53.402344 13.585938 53.644531 14.09375 53.644531 14.648438 L 53.644531 23.539062 "/></g></g></svg>