<svg xmlns="http://www.w3.org/2000/svg" xmlns:xlink="http://www.w3.org/1999/xlink" width="96" zoomAndPan="magnify" viewBox="0 0 72 72" height="96" preserveAspectRatio="xMidYMid meet" version="1.2"><defs><clipPath id="f72f813add"><path d="M 7.5 12 L 64.5 12 L 64.5 64.5 L 7.5 64.5 Z M 7.5 12 "/></clipPath><clipPath id="adfd6be5d0"><path d="M 17 7.5 L 23 7.5 L 23 20 L 17 20 Z M 17 7.5 "/></clipPath><clipPath id="9a5f227872"><path d="M 48 7.5 L 54 7.5 L 54 20 L 48 20 Z M 48 7.5 "/></clipPath></defs><g id="73be0a86fd"><g clip-rule="nonzero" clip-path="url(#f72f813add)"><path style=" stroke:none;fill-rule:nonzero;fill:#ffffff;fill-opacity:1;" d="M 59.265625 12.542969 L 55.671875 12.542969 L 55.671875 16.769531 C 55.671875 19.039062 53.78125 20.929688 51.511719 20.929688 L 51.257812 20.929688 C 48.988281 20.929688 47.097656 19.039062 47.097656 16.769531 L 47.097656 12.542969 L 24.460938 12.542969 L 24.460938 16.769531 C 24.460938 19.039062 22.570312 20.929688 20.300781 20.929688 L 20.046875 20.929688 C 17.777344 20.929688 15.886719 19.039062 15.886719 16.769531 L 15.886719 12.542969 L 12.734375 12.542969 C 9.894531 12.542969 7.625 14.8125 7.625 17.652344 L 7.625 59.394531 C 7.625 62.230469 9.894531 64.5 12.734375 64.5 L 53.023438 64.5 L 53.59375 64.375 C 53.71875 64.3125 53.90625 64.183594 54.03125 64.058594 L 63.429688 54.160156 C 63.429688 54.160156 63.429688 54.097656 63.492188 54.097656 C 64.058594 53.527344 64.375 52.710938 64.375 51.890625 L 64.375 17.652344 C 64.375 14.8125 62.105469 12.542969 59.265625 12.542969 Z M 61.472656 52.332031 L 52.835938 61.347656 L 52.835938 54.539062 C 52.835938 53.214844 53.90625 52.140625 55.230469 52.140625 L 61.597656 52.140625 C 61.535156 52.203125 61.472656 52.269531 61.472656 52.332031 Z M 61.664062 49.429688 L 55.230469 49.429688 C 52.394531 49.429688 50.125 51.699219 50.125 54.539062 L 50.125 61.726562 L 12.734375 61.726562 C 11.410156 61.726562 10.335938 60.652344 10.335938 59.328125 L 10.335938 26.792969 L 61.597656 26.792969 L 61.597656 49.429688 Z M 61.664062 49.429688 "/></g><g clip-rule="nonzero" clip-path="url(#adfd6be5d0)"><path style=" stroke:none;fill-rule:nonzero;fill:#ffffff;fill-opacity:1;" d="M 20.300781 19.101562 C 21.625 19.101562 22.695312 18.03125 22.695312 16.707031 L 22.695312 9.894531 C 22.695312 8.570312 21.625 7.5 20.300781 7.5 L 20.046875 7.5 C 18.722656 7.5 17.652344 8.570312 17.652344 9.894531 L 17.652344 16.707031 C 17.652344 18.03125 18.722656 19.101562 20.046875 19.101562 Z M 20.300781 19.101562 "/></g><g clip-rule="nonzero" clip-path="url(#9a5f227872)"><path style=" stroke:none;fill-rule:nonzero;fill:#ffffff;fill-opacity:1;" d="M 51.511719 19.101562 C 52.835938 19.101562 53.90625 18.03125 53.90625 16.707031 L 53.90625 9.894531 C 53.90625 8.570312 52.835938 7.5 51.511719 7.5 L 51.257812 7.5 C 49.933594 7.5 48.863281 8.570312 48.863281 9.894531 L 48.863281 16.707031 C 48.863281 18.03125 49.933594 19.101562 51.257812 19.101562 Z M 51.511719 19.101562 "/></g><path style=" stroke:none;fill-rule:nonzero;fill:#ffffff;fill-opacity:1;" d="M 17.398438 32.46875 L 22.191406 32.46875 L 22.191406 37.261719 L 17.398438 37.261719 Z M 17.398438 32.46875 "/><path style=" stroke:none;fill-rule:nonzero;fill:#ffffff;fill-opacity:1;" d="M 28.246094 32.46875 L 33.035156 32.46875 L 33.035156 37.261719 L 28.246094 37.261719 Z M 28.246094 32.46875 "/><path style=" stroke:none;fill-rule:nonzero;fill:#ffffff;fill-opacity:1;" d="M 39.089844 32.46875 L 43.882812 32.46875 L 43.882812 37.261719 L 39.089844 37.261719 Z M 39.089844 32.46875 "/><path style=" stroke:none;fill-rule:nonzero;fill:#ffffff;fill-opacity:1;" d="M 49.871094 32.46875 L 54.664062 32.46875 L 54.664062 37.261719 L 49.871094 37.261719 Z M 49.871094 32.46875 "/><path style=" stroke:none;fill-rule:nonzero;fill:#ffffff;fill-opacity:1;" d="M 17.398438 41.675781 L 22.191406 41.675781 L 22.191406 46.46875 L 17.398438 46.46875 Z M 17.398438 41.675781 "/><path style=" stroke:none;fill-rule:nonzero;fill:#ffffff;fill-opacity:1;" d="M 28.246094 41.675781 L 33.035156 41.675781 L 33.035156 46.46875 L 28.246094 46.46875 Z M 28.246094 41.675781 "/><path style=" stroke:none;fill-rule:nonzero;fill:#ffffff;fill-opacity:1;" d="M 39.089844 41.675781 L 43.882812 41.675781 L 43.882812 46.46875 L 39.089844 46.46875 Z M 39.089844 41.675781 "/><path style=" stroke:none;fill-rule:nonzero;fill:#ffffff;fill-opacity:1;" d="M 49.871094 41.675781 L 54.664062 41.675781 L 54.664062 46.46875 L 49.871094 46.46875 Z M 49.871094 41.675781 "/><path style=" stroke:none;fill-rule:nonzero;fill:#ffffff;fill-opacity:1;" d="M 17.398438 50.945312 L 22.191406 50.945312 L 22.191406 55.734375 L 17.398438 55.734375 Z M 17.398438 50.945312 "/><path style=" stroke:none;fill-rule:nonzero;fill:#ffffff;fill-opacity:1;" d="M 28.246094 50.945312 L 33.035156 50.945312 L 33.035156 55.734375 L 28.246094 55.734375 Z M 28.246094 50.945312 "/><path style=" stroke:none;fill-rule:nonzero;fill:#ffffff;fill-opacity:1;" d="M 39.089844 50.945312 L 43.882812 50.945312 L 43.882812 55.734375 L 39.089844 55.734375 Z M 39.089844 50.945312 "/></g></svg>