<svg width="31" height="30" viewBox="0 0 31 30" fill="none" xmlns="http://www.w3.org/2000/svg">
<g clip-path="url(#clip0_1710_1033)">
<path d="M6 5C5.345 5 5.34 6.01 6 6H28C28.286 6 28.5 6.214 28.5 6.5V19.5C28.5 20.16 29.5 20.16 29.5 19.5V6.5C29.5 5.678 28.822 5 28 5H6ZM4 7C3.346 7 3.346 8 4 8H26C26.286 8 26.5 8.214 26.5 8.5V21.5C26.5 22.165 27.51 22.16 27.5 21.5V8.5C27.5 7.678 26.822 7 26 7H4ZM2 9C1.178 9 0.5 9.678 0.5 10.5V22.5C0.5 23.322 1.178 24 2 24H24C24.822 24 25.5 23.322 25.5 22.5V10.5C25.5 9.678 24.822 9 24 9H2ZM2 10H24C24.286 10 24.5 10.214 24.5 10.5V22.5C24.5 22.786 24.286 23 24 23H2C1.714 23 1.5 22.786 1.5 22.5V10.5C1.5 10.214 1.714 10 2 10ZM3 11C2.724 11 2.5 11.224 2.5 11.5V13.5C2.5 14.172 3.5 14.156 3.5 13.5V12H5C5.672 12 5.656 11 5 11H3ZM13 11C9.968 11 7.5 13.468 7.5 16.5C7.5 19.532 9.968 22 13 22C16.032 22 18.5 19.532 18.5 16.5C18.5 13.468 16.032 11 13 11ZM21 11C20.344 11 20.328 12 21 12H22.5V13.5C22.5 14.156 23.5 14.172 23.5 13.5V11.5C23.5 11.224 23.276 11 23 11H21ZM13 12C15.49 12 17.5 14.01 17.5 16.5C17.5 18.99 15.49 21 13 21C10.51 21 8.5 18.99 8.5 16.5C8.5 14.01 10.51 12 13 12ZM13 13C12.723 13 12.5 13.223 12.5 13.5V14.094C11.922 14.304 11.5 14.854 11.5 15.5C11.5 16.32 12.18 17 13 17C13.28 17 13.5 17.212 13.5 17.5C13.5 17.788 13.28 18 13 18H12C11.662 17.995 11.5 18.248 11.5 18.5C11.5 18.752 11.662 19.005 12 19H12.5V19.5C12.5 19.777 12.723 20 13 20C13.277 20 13.5 19.777 13.5 19.5V18.906C14.078 18.696 14.5 18.146 14.5 17.5C14.5 16.68 13.82 16 13 16C12.72 16 12.5 15.788 12.5 15.5C12.5 15.212 12.72 15 13 15H14C14.338 15.005 14.5 14.752 14.5 14.5C14.5 14.248 14.338 13.995 14 14H13.5V13.5C13.5 13.223 13.277 13 13 13ZM3 19.002C2.75 19 2.5 19.164 2.5 19.5V21.5C2.5 21.776 2.724 22 3 22H5C5.656 22 5.672 21 5 21H3.5V19.5C3.5 19.172 3.25 19.004 3 19.002ZM23 19.002C22.75 19.004 22.5 19.172 22.5 19.5V21H21C20.328 21 20.344 22 21 22H23C23.276 22 23.5 21.776 23.5 21.5V19.5C23.5 19.164 23.25 19 23 19.002Z" fill="#009DFF"/>
</g>
<defs>
<clipPath id="clip0_1710_1033">
<rect width="30" height="30" fill="white" transform="translate(0.5)"/>
</clipPath>
</defs>
</svg>
