<svg width="31" height="30" viewBox="0 0 31 30" fill="none" xmlns="http://www.w3.org/2000/svg">
<path d="M28.0453 21.1555H2.73438C2.60482 21.1555 2.5 21.0507 2.5 20.9211C2.5 20.7916 2.60482 20.6867 2.73438 20.6867H28.0454C28.1748 20.6867 28.2797 20.7916 28.2797 20.9211C28.2797 21.0507 28.1748 21.1555 28.0453 21.1555ZM5.5467 13.5396C5.47919 13.5399 5.4123 13.5268 5.34991 13.501C5.28752 13.4753 5.23086 13.4374 5.18324 13.3895C5.14891 13.3554 5.06559 13.3199 4.98455 13.3199C4.8976 13.3364 4.85271 13.3424 4.80742 13.3424C4.69417 13.3422 4.5841 13.3048 4.49419 13.236C4.40429 13.1671 4.33953 13.0706 4.3099 12.9613C4.29203 12.8931 4.20051 12.802 4.13277 12.7837C3.85855 12.7104 3.6952 12.4278 3.76844 12.1536C3.78719 12.0852 3.75379 11.9609 3.70387 11.911C3.65601 11.8633 3.6181 11.8065 3.59233 11.7441C3.56656 11.6816 3.55345 11.6147 3.55375 11.5471C3.55375 11.4093 3.60684 11.2802 3.70387 11.1832C3.75379 11.1335 3.78672 11.0087 3.76844 10.9408C3.6952 10.6664 3.85855 10.3838 4.13277 10.3105C4.20051 10.2923 4.29209 10.2011 4.3099 10.1332C4.38221 9.86563 4.67061 9.69536 4.9402 9.76907C5.06746 9.77089 5.1485 9.73843 5.18283 9.70433C5.37689 9.51026 5.71697 9.51026 5.91109 9.70479C5.94543 9.73913 6.02875 9.77458 6.10932 9.77458C6.19674 9.75788 6.24115 9.75214 6.28604 9.75214C6.39948 9.75217 6.50974 9.78971 6.59964 9.85891C6.68954 9.92811 6.75403 10.0251 6.78309 10.1348C6.80137 10.2014 6.89248 10.2927 6.96021 10.311C7.02567 10.3283 7.08703 10.3585 7.14071 10.3997C7.19439 10.441 7.23931 10.4926 7.27287 10.5514C7.30675 10.6098 7.32869 10.6744 7.33741 10.7414C7.34613 10.8084 7.34146 10.8764 7.32367 10.9416C7.3058 11.0086 7.33926 11.1336 7.38865 11.1828C7.58957 11.384 7.58957 11.7103 7.38912 11.9111C7.3392 11.961 7.3058 12.0855 7.32414 12.1535C7.34172 12.2186 7.34623 12.2865 7.33743 12.3534C7.32863 12.4202 7.30669 12.4847 7.27287 12.543C7.2393 12.6018 7.19437 12.6533 7.14069 12.6946C7.08702 12.7358 7.02566 12.766 6.96021 12.7833C6.89248 12.8016 6.8009 12.8927 6.78309 12.9609C6.75356 13.0702 6.68889 13.1667 6.59906 13.2356C6.50923 13.3045 6.39923 13.3419 6.28604 13.342C6.24119 13.342 6.19655 13.3361 6.15326 13.3244C6.02324 13.3177 5.94455 13.355 5.91063 13.3891C5.86289 13.437 5.80616 13.4749 5.7437 13.5007C5.68125 13.5266 5.61429 13.5398 5.5467 13.5396ZM4.98455 12.8512C5.18412 12.8512 5.38691 12.9304 5.51465 13.0581L5.5467 13.0709C5.55273 13.071 5.55872 13.0698 5.5643 13.0675C5.56989 13.0652 5.57496 13.0619 5.57922 13.0576C5.74398 12.8926 6.04697 12.8104 6.27402 12.8715C6.30057 12.8703 6.32395 12.8617 6.32986 12.8394C6.39121 12.6103 6.61041 12.3916 6.83928 12.3304C6.83928 12.3302 6.87133 12.2748 6.87086 12.2746C6.80951 12.0453 6.89008 11.7464 7.05807 11.5791C7.075 11.5622 7.075 11.5319 7.0576 11.5145C6.89049 11.3483 6.81039 11.0496 6.8708 10.8204L6.83922 10.7636C6.61082 10.7025 6.39203 10.4842 6.33021 10.2558C6.32757 10.2459 6.32182 10.2372 6.31382 10.2309C6.30581 10.2246 6.29599 10.221 6.2858 10.2207C6.01111 10.288 5.74475 10.201 5.57951 10.036L5.34836 9.86991L5.51406 10.0356C5.3493 10.2006 5.04666 10.2831 4.8192 10.2217C4.78943 10.2212 4.76887 10.2318 4.76289 10.2542C4.7016 10.4831 4.48281 10.7019 4.25348 10.7632C4.24185 10.7667 4.232 10.7745 4.22602 10.785C4.22004 10.7956 4.21839 10.808 4.22143 10.8198C4.2823 11.0484 4.20268 11.3473 4.0351 11.5146C4.01998 11.53 4.01998 11.5643 4.0351 11.5796C4.20309 11.7476 4.28277 12.0465 4.22096 12.2754C4.21822 12.287 4.22006 12.2993 4.22611 12.3097C4.23217 12.32 4.24196 12.3276 4.25348 12.331C4.48281 12.3923 4.7016 12.6111 4.76289 12.84C4.76562 12.8496 4.77144 12.8582 4.77945 12.8642C4.78747 12.8703 4.79725 12.8736 4.8073 12.8736C4.87105 12.8583 4.92643 12.8512 4.98455 12.8512Z" fill="#009DFF"/>
<path d="M5.54682 12.2498C5.1591 12.2498 4.84369 11.9343 4.84369 11.5467C4.84369 11.159 5.1591 10.8436 5.54682 10.8436C5.93447 10.8436 6.24988 11.1589 6.24988 11.5467C6.24988 11.9343 5.93447 12.2498 5.54682 12.2498ZM5.54682 11.3123C5.41773 11.3123 5.31244 11.4174 5.31244 11.5467C5.31244 11.676 5.41773 11.7811 5.54682 11.7811C5.60894 11.781 5.6685 11.7562 5.71242 11.7123C5.75635 11.6684 5.78105 11.6088 5.78113 11.5467C5.78113 11.4174 5.67584 11.3123 5.54682 11.3123ZM13.515 10.8436H8.35914C8.22959 10.8436 8.12477 10.7387 8.12477 10.6092C8.12477 10.4796 8.22959 10.3748 8.35914 10.3748H13.515C13.6446 10.3748 13.7494 10.4796 13.7494 10.6092C13.7494 10.7387 13.6446 10.8436 13.515 10.8436ZM13.515 11.781H8.35914C8.22959 11.781 8.12477 11.6762 8.12477 11.5466C8.12477 11.4171 8.22959 11.3123 8.35914 11.3123H13.515C13.6446 11.3123 13.7494 11.4171 13.7494 11.5466C13.7494 11.6762 13.6446 11.781 13.515 11.781ZM11.1715 12.7184H8.35914C8.22959 12.7184 8.12477 12.6136 8.12477 12.4841C8.12477 12.3545 8.22959 12.2497 8.35914 12.2497H11.1715C11.2022 12.2497 11.2327 12.2557 11.2612 12.2675C11.2896 12.2793 11.3154 12.2965 11.3372 12.3183C11.359 12.3401 11.3762 12.3659 11.388 12.3944C11.3998 12.4228 11.4058 12.4533 11.4058 12.4841C11.4058 12.6136 11.301 12.7184 11.1715 12.7184ZM16.3274 15.5308H4.25781C4.12826 15.5308 4.02344 15.4259 4.02344 15.2964C4.02344 15.1668 4.12826 15.062 4.25781 15.062H16.3274C16.4569 15.062 16.5617 15.1668 16.5617 15.2964C16.5617 15.4259 16.4569 15.5308 16.3274 15.5308ZM16.3274 16.4682H4.25781C4.12826 16.4682 4.02344 16.3634 4.02344 16.2338C4.02344 16.1043 4.12826 15.9995 4.25781 15.9995H16.3274C16.4569 15.9995 16.5617 16.1043 16.5617 16.2338C16.5617 16.3634 16.4569 16.4682 16.3274 16.4682ZM6.95295 19.7493H4.14063C4.01107 19.7493 3.90625 19.6445 3.90625 19.5149C3.90623 19.4841 3.91229 19.4537 3.92406 19.4252C3.93583 19.3968 3.9531 19.3709 3.97487 19.3492C3.99663 19.3274 4.02248 19.3102 4.05092 19.2984C4.07936 19.2866 4.10984 19.2806 4.14063 19.2806H6.95295C7.0825 19.2806 7.18732 19.3854 7.18732 19.5149C7.18732 19.6445 7.0825 19.7493 6.95295 19.7493ZM16.3713 19.7493H13.515C13.3855 19.7493 13.2807 19.6445 13.2807 19.5149C13.2806 19.4841 13.2867 19.4537 13.2985 19.4252C13.3102 19.3968 13.3275 19.3709 13.3493 19.3492C13.371 19.3274 13.3969 19.3102 13.4253 19.2984C13.4538 19.2866 13.4843 19.2806 13.515 19.2806H16.3713C16.5009 19.2806 16.6057 19.3854 16.6057 19.5149C16.6057 19.6445 16.5009 19.7493 16.3713 19.7493ZM26.1705 19.7493H17.7336C17.604 19.7493 17.4992 19.6445 17.4992 19.5149C17.4992 19.4841 17.5052 19.4537 17.517 19.4252C17.5288 19.3968 17.546 19.3709 17.5678 19.3492C17.5896 19.3274 17.6154 19.3102 17.6438 19.2984C17.6723 19.2866 17.7028 19.2806 17.7336 19.2806H26.1705C26.2013 19.2806 26.2318 19.2866 26.2602 19.2984C26.2886 19.3102 26.3145 19.3274 26.3362 19.3492C26.358 19.371 26.3753 19.3968 26.387 19.4252C26.3988 19.4537 26.4049 19.4841 26.4048 19.5149C26.4048 19.6445 26.3 19.7493 26.1705 19.7493ZM11.6402 19.7493H8.82783C8.69828 19.7493 8.59346 19.6445 8.59346 19.5149C8.59344 19.4841 8.59949 19.4537 8.61127 19.4252C8.62304 19.3968 8.64031 19.3709 8.66207 19.3492C8.68384 19.3274 8.70968 19.3102 8.73813 19.2984C8.76657 19.2866 8.79705 19.2806 8.82783 19.2806H11.6402C11.7697 19.2806 11.8745 19.3854 11.8745 19.5149C11.8745 19.6445 11.7697 19.7493 11.6402 19.7493ZM26.1705 16.937H17.7336C17.604 16.937 17.4992 16.8321 17.4992 16.7026V14.8277C17.4992 14.6982 17.604 14.5933 17.7336 14.5933H26.1705C26.2013 14.5933 26.2318 14.5994 26.2602 14.6111C26.2887 14.6229 26.3145 14.6402 26.3363 14.6619C26.358 14.6837 26.3753 14.7096 26.3871 14.738C26.3988 14.7664 26.4049 14.7969 26.4048 14.8277V16.7026C26.4048 16.8321 26.3 16.937 26.1705 16.937ZM17.9679 16.4682H25.9362V15.062H17.9679V16.4682Z" fill="#009DFF"/>
<path d="M2.57275 8.60138L27.0728 8.60138" stroke="#009DFF" stroke-width="0.5" stroke-linecap="round"/>
<path d="M2.57275 8.60138L2.57275 20.1014" stroke="#009DFF" stroke-width="0.5" stroke-linecap="round"/>
<path d="M28.0454 21.1555C27.9159 21.1555 27.811 21.0507 27.811 20.9211V8.73438C27.811 8.60482 27.9159 8.5 28.0454 8.5C28.0762 8.49998 28.1067 8.50604 28.1351 8.51781C28.1636 8.52958 28.1894 8.54685 28.2112 8.56862C28.2329 8.59038 28.2502 8.61623 28.2619 8.64467C28.2737 8.67311 28.2798 8.70359 28.2797 8.73438V20.9211C28.2797 21.0507 28.1749 21.1555 28.0454 21.1555Z" fill="#009DFF"/>
</svg>
