<svg xmlns="http://www.w3.org/2000/svg" xmlns:xlink="http://www.w3.org/1999/xlink" width="96" zoomAndPan="magnify" viewBox="0 0 72 72" height="96" preserveAspectRatio="xMidYMid meet" version="1.2"><defs><clipPath id="911f2964ef"><path d="M 11.488281 7.5 L 60.238281 7.5 L 60.238281 64.5 L 11.488281 64.5 Z M 11.488281 7.5 "/></clipPath></defs><g id="d3b4503968"><g clip-rule="nonzero" clip-path="url(#911f2964ef)"><path style=" stroke:none;fill-rule:nonzero;fill:#ffffff;fill-opacity:1;" d="M 55.792969 11.929688 L 46.746094 11.929688 C 46.160156 11.929688 45.597656 11.695312 45.179688 11.28125 L 42.050781 8.148438 C 41.632812 7.734375 41.070312 7.5 40.484375 7.5 L 31.246094 7.5 C 30.660156 7.5 30.097656 7.734375 29.679688 8.148438 L 26.550781 11.28125 C 26.132812 11.695312 25.570312 11.929688 24.984375 11.929688 L 15.9375 11.929688 C 13.492188 11.929688 11.507812 13.910156 11.507812 16.355469 C 11.507812 18.804688 13.492188 20.785156 15.9375 20.785156 L 15.9375 57.542969 C 15.9375 61.210938 18.910156 64.1875 22.578125 64.1875 L 49.152344 64.1875 C 52.820312 64.1875 55.792969 61.210938 55.792969 57.542969 L 55.792969 20.785156 C 58.238281 20.785156 60.222656 18.804688 60.222656 16.355469 C 60.222656 13.910156 58.238281 11.929688 55.792969 11.929688 Z M 31.4375 52.007812 C 31.4375 53.84375 29.949219 55.328125 28.113281 55.328125 C 26.28125 55.328125 24.792969 53.84375 24.792969 52.007812 L 24.792969 28.535156 C 24.792969 26.703125 26.28125 25.214844 28.113281 25.214844 C 29.949219 25.214844 31.4375 26.703125 31.4375 28.535156 Z M 46.9375 52.007812 C 46.9375 53.84375 45.449219 55.328125 43.613281 55.328125 C 41.78125 55.328125 40.292969 53.84375 40.292969 52.007812 L 40.292969 28.535156 C 40.292969 26.703125 41.78125 25.214844 43.613281 25.214844 C 45.449219 25.214844 46.9375 26.703125 46.9375 28.535156 Z M 46.9375 52.007812 "/></g></g></svg>