<svg width="31" height="30" viewBox="0 0 31 30" fill="none" xmlns="http://www.w3.org/2000/svg">
<g clip-path="url(#clip0_1716_2912)">
<path d="M13.229 13.7095L12.1682 13.9473C12.1391 13.9537 12.1279 13.9715 12.1343 14.0009L12.4306 15.3253C12.4371 15.3548 12.4548 15.3656 12.4839 15.3592L13.5455 15.1218C13.9992 15.0205 14.2446 14.6738 14.1494 14.2491C14.0525 13.8172 13.6835 13.6082 13.229 13.7095Z" fill="#009DFF"/>
<mask id="path-2-inside-1_1716_2912" fill="white">
<path d="M28.5985 15.5719C28.458 15.2038 28.458 14.7965 28.5985 14.428L29.7392 11.4332C30.0089 10.7268 29.7489 9.92919 29.1168 9.51628L26.4333 7.76398C26.1031 7.54841 25.8642 7.21865 25.7608 6.83843L24.9237 3.74439C24.7258 3.01537 24.0469 2.52212 23.2929 2.55962L20.0919 2.71947C19.6979 2.73886 19.3113 2.6133 19.0036 2.36585L16.5081 0.355737C15.9196 -0.118579 15.0808 -0.118579 14.4923 0.355737L11.9969 2.36591C11.6893 2.61335 11.3026 2.73892 10.9086 2.71953L7.70758 2.55968C6.9536 2.52218 6.27461 3.01542 6.0768 3.74445L5.23973 6.83843C5.13637 7.21865 4.89742 7.54841 4.56725 7.76398L1.88377 9.51628C1.25166 9.92919 0.991682 10.7268 1.26051 11.4332L2.40203 14.428C2.54248 14.7965 2.54248 15.2037 2.40203 15.5719L1.26051 18.5671C0.991682 19.2727 1.2516 20.0711 1.88377 20.484L4.56725 22.2363C4.89742 22.4514 5.13637 22.7809 5.23973 23.1615L6.07692 26.2551C6.27473 26.9849 6.95365 27.4778 7.7077 27.4402L10.9087 27.2803C11.3027 27.2606 11.6894 27.3865 11.997 27.6339L14.4924 29.6446C15.0809 30.1184 15.9197 30.1184 16.5082 29.6446L19.0036 27.6339C19.3113 27.3865 19.6979 27.2606 20.0919 27.2803L23.2929 27.4402C24.0469 27.4777 24.7258 26.9849 24.9237 26.2551L25.7608 23.1615C25.8642 22.7809 26.1031 22.4514 26.4333 22.2363L29.1168 20.484C29.7489 20.0711 30.0089 19.2727 29.7392 18.5671L28.5985 15.5719ZM10.3169 16.5976L8.39225 17.0279C8.36319 17.0344 8.35188 17.0522 8.35914 17.0821L8.7959 19.0357C8.80563 19.0793 8.78219 19.1156 8.7386 19.1254L8.0217 19.286C7.97811 19.2958 7.94178 19.2727 7.93211 19.2291L6.85106 14.399C6.84139 14.355 6.86477 14.3191 6.90836 14.3094L10.0254 13.6119C10.0698 13.6022 10.1053 13.6248 10.1158 13.6688L10.2563 14.2981C10.266 14.3422 10.2434 14.3777 10.199 14.3878L7.91588 14.8984C7.88682 14.9049 7.87557 14.923 7.88201 14.9525L8.16537 16.2184C8.17188 16.2475 8.18963 16.2587 8.21869 16.2523L10.1433 15.822C10.1877 15.8118 10.2241 15.8349 10.2337 15.8785L10.3742 16.5077C10.3839 16.5516 10.3613 16.5876 10.3169 16.5976ZM15.8373 17.5369L15.0251 17.719C14.967 17.7319 14.9323 17.7165 14.8991 17.6701L13.5139 15.9437L12.6573 16.1351C12.6282 16.1415 12.617 16.1597 12.6234 16.1892L13.048 18.0843C13.0578 18.1283 13.0343 18.1643 12.9907 18.1739L12.2738 18.3346C12.2294 18.3443 12.1939 18.3212 12.1842 18.2777L11.1033 13.4475C11.0935 13.4039 11.1162 13.3676 11.1606 13.3579L13.0852 12.9276C13.9999 12.7225 14.8088 13.1794 15.005 14.0574C15.1511 14.7089 14.8904 15.2974 14.3672 15.6376L15.868 17.4303C15.9084 17.4752 15.889 17.5256 15.8373 17.5369ZM19.9207 16.6235L16.8037 17.321C16.7601 17.3306 16.7237 17.3081 16.714 17.2641L15.6338 12.434C15.6234 12.39 15.6467 12.3544 15.6903 12.3447L18.8074 11.6472C18.8518 11.6371 18.8873 11.6602 18.8978 11.7038L19.0383 12.3334C19.048 12.377 19.0254 12.4125 18.981 12.4226L16.6979 12.9332C16.6688 12.9401 16.6576 12.9578 16.664 12.9873L16.9361 14.2019C16.9425 14.2314 16.9604 14.2427 16.9894 14.2362L18.914 13.8055C18.9584 13.7959 18.9939 13.8185 19.0045 13.8624L19.1449 14.4917C19.1546 14.5357 19.132 14.5716 19.0876 14.5814L17.163 15.012C17.1339 15.0185 17.1226 15.0363 17.1291 15.0657L17.4108 16.3243C17.4173 16.3534 17.4351 16.3651 17.4641 16.3586L19.7472 15.8476C19.7917 15.8379 19.828 15.8605 19.8377 15.9045L19.9782 16.5338C19.9877 16.5775 19.965 16.6138 19.9207 16.6235ZM24.0929 15.6902L20.975 16.3877C20.9314 16.3974 20.8951 16.3747 20.8854 16.3307L19.8053 11.5006C19.7948 11.4566 19.8181 11.4211 19.8617 11.411L22.9796 10.7138C23.0232 10.7037 23.0587 10.7264 23.0692 10.7704L23.2097 11.3997C23.2194 11.4437 23.1968 11.4792 23.1532 11.4893L20.8701 12C20.8403 12.0064 20.829 12.0246 20.8355 12.054L21.1075 13.2686C21.1139 13.2981 21.1318 13.3094 21.1616 13.303L23.0862 12.8722C23.1298 12.8622 23.1653 12.8852 23.1759 12.9292L23.3163 13.5581C23.326 13.6025 23.3034 13.638 23.2598 13.6481L21.3352 14.0788C21.3053 14.0852 21.294 14.103 21.3005 14.1321L21.5822 15.3907C21.5887 15.4201 21.6065 15.4318 21.6364 15.425L23.9194 14.9143C23.963 14.9047 23.9993 14.9273 24.0091 14.9713L24.1496 15.6006C24.1591 15.6442 24.1364 15.6805 24.0929 15.6902Z"/>
</mask>
<path d="M28.5985 15.5719C28.458 15.2038 28.458 14.7965 28.5985 14.428L29.7392 11.4332C30.0089 10.7268 29.7489 9.92919 29.1168 9.51628L26.4333 7.76398C26.1031 7.54841 25.8642 7.21865 25.7608 6.83843L24.9237 3.74439C24.7258 3.01537 24.0469 2.52212 23.2929 2.55962L20.0919 2.71947C19.6979 2.73886 19.3113 2.6133 19.0036 2.36585L16.5081 0.355737C15.9196 -0.118579 15.0808 -0.118579 14.4923 0.355737L11.9969 2.36591C11.6893 2.61335 11.3026 2.73892 10.9086 2.71953L7.70758 2.55968C6.9536 2.52218 6.27461 3.01542 6.0768 3.74445L5.23973 6.83843C5.13637 7.21865 4.89742 7.54841 4.56725 7.76398L1.88377 9.51628C1.25166 9.92919 0.991682 10.7268 1.26051 11.4332L2.40203 14.428C2.54248 14.7965 2.54248 15.2037 2.40203 15.5719L1.26051 18.5671C0.991682 19.2727 1.2516 20.0711 1.88377 20.484L4.56725 22.2363C4.89742 22.4514 5.13637 22.7809 5.23973 23.1615L6.07692 26.2551C6.27473 26.9849 6.95365 27.4778 7.7077 27.4402L10.9087 27.2803C11.3027 27.2606 11.6894 27.3865 11.997 27.6339L14.4924 29.6446C15.0809 30.1184 15.9197 30.1184 16.5082 29.6446L19.0036 27.6339C19.3113 27.3865 19.6979 27.2606 20.0919 27.2803L23.2929 27.4402C24.0469 27.4777 24.7258 26.9849 24.9237 26.2551L25.7608 23.1615C25.8642 22.7809 26.1031 22.4514 26.4333 22.2363L29.1168 20.484C29.7489 20.0711 30.0089 19.2727 29.7392 18.5671L28.5985 15.5719ZM10.3169 16.5976L8.39225 17.0279C8.36319 17.0344 8.35188 17.0522 8.35914 17.0821L8.7959 19.0357C8.80563 19.0793 8.78219 19.1156 8.7386 19.1254L8.0217 19.286C7.97811 19.2958 7.94178 19.2727 7.93211 19.2291L6.85106 14.399C6.84139 14.355 6.86477 14.3191 6.90836 14.3094L10.0254 13.6119C10.0698 13.6022 10.1053 13.6248 10.1158 13.6688L10.2563 14.2981C10.266 14.3422 10.2434 14.3777 10.199 14.3878L7.91588 14.8984C7.88682 14.9049 7.87557 14.923 7.88201 14.9525L8.16537 16.2184C8.17188 16.2475 8.18963 16.2587 8.21869 16.2523L10.1433 15.822C10.1877 15.8118 10.2241 15.8349 10.2337 15.8785L10.3742 16.5077C10.3839 16.5516 10.3613 16.5876 10.3169 16.5976ZM15.8373 17.5369L15.0251 17.719C14.967 17.7319 14.9323 17.7165 14.8991 17.6701L13.5139 15.9437L12.6573 16.1351C12.6282 16.1415 12.617 16.1597 12.6234 16.1892L13.048 18.0843C13.0578 18.1283 13.0343 18.1643 12.9907 18.1739L12.2738 18.3346C12.2294 18.3443 12.1939 18.3212 12.1842 18.2777L11.1033 13.4475C11.0935 13.4039 11.1162 13.3676 11.1606 13.3579L13.0852 12.9276C13.9999 12.7225 14.8088 13.1794 15.005 14.0574C15.1511 14.7089 14.8904 15.2974 14.3672 15.6376L15.868 17.4303C15.9084 17.4752 15.889 17.5256 15.8373 17.5369ZM19.9207 16.6235L16.8037 17.321C16.7601 17.3306 16.7237 17.3081 16.714 17.2641L15.6338 12.434C15.6234 12.39 15.6467 12.3544 15.6903 12.3447L18.8074 11.6472C18.8518 11.6371 18.8873 11.6602 18.8978 11.7038L19.0383 12.3334C19.048 12.377 19.0254 12.4125 18.981 12.4226L16.6979 12.9332C16.6688 12.9401 16.6576 12.9578 16.664 12.9873L16.9361 14.2019C16.9425 14.2314 16.9604 14.2427 16.9894 14.2362L18.914 13.8055C18.9584 13.7959 18.9939 13.8185 19.0045 13.8624L19.1449 14.4917C19.1546 14.5357 19.132 14.5716 19.0876 14.5814L17.163 15.012C17.1339 15.0185 17.1226 15.0363 17.1291 15.0657L17.4108 16.3243C17.4173 16.3534 17.4351 16.3651 17.4641 16.3586L19.7472 15.8476C19.7917 15.8379 19.828 15.8605 19.8377 15.9045L19.9782 16.5338C19.9877 16.5775 19.965 16.6138 19.9207 16.6235ZM24.0929 15.6902L20.975 16.3877C20.9314 16.3974 20.8951 16.3747 20.8854 16.3307L19.8053 11.5006C19.7948 11.4566 19.8181 11.4211 19.8617 11.411L22.9796 10.7138C23.0232 10.7037 23.0587 10.7264 23.0692 10.7704L23.2097 11.3997C23.2194 11.4437 23.1968 11.4792 23.1532 11.4893L20.8701 12C20.8403 12.0064 20.829 12.0246 20.8355 12.054L21.1075 13.2686C21.1139 13.2981 21.1318 13.3094 21.1616 13.303L23.0862 12.8722C23.1298 12.8622 23.1653 12.8852 23.1759 12.9292L23.3163 13.5581C23.326 13.6025 23.3034 13.638 23.2598 13.6481L21.3352 14.0788C21.3053 14.0852 21.294 14.103 21.3005 14.1321L21.5822 15.3907C21.5887 15.4201 21.6065 15.4318 21.6364 15.425L23.9194 14.9143C23.963 14.9047 23.9993 14.9273 24.0091 14.9713L24.1496 15.6006C24.1591 15.6442 24.1364 15.6805 24.0929 15.6902Z" stroke="#009DFF" stroke-width="2" mask="url(#path-2-inside-1_1716_2912)"/>
</g>
<defs>
<clipPath id="clip0_1716_2912">
<rect width="30" height="30" fill="white" transform="translate(0.5)"/>
</clipPath>
</defs>
</svg>
