<svg width="31" height="30" viewBox="0 0 31 30" fill="none" xmlns="http://www.w3.org/2000/svg">
<g clip-path="url(#clip0_1716_1200)">
<path d="M29.9578 9.39735C29.956 9.39735 29.9541 9.39765 29.9523 9.39765H7.54818C7.24877 9.39765 7.00602 9.64034 7.00602 9.93982C7.00602 10.2393 7.24877 10.482 7.54818 10.482H29.4157V13.735H1.58434V10.482H5.37951C5.67893 10.482 5.92168 10.2393 5.92168 9.93982C5.92168 9.64034 5.67893 9.39765 5.37951 9.39765H1.58434V7.77114C1.58434 6.87431 2.31395 6.14464 3.21084 6.14464H27.7892C28.686 6.14464 29.4157 6.87431 29.4157 7.77114C29.4157 8.07062 29.6584 8.31331 29.9578 8.31331C30.2573 8.31331 30.5 8.07062 30.5 7.77114C30.5 6.27636 29.2839 5.0603 27.7892 5.0603H3.21084C1.71605 5.06024 0.5 6.2763 0.5 7.77114V22.229C0.5 23.7238 1.71605 24.9398 3.21084 24.9398H27.7892C29.2839 24.9398 30.5 23.7238 30.5 22.229V9.93982V9.93952C30.5 9.64005 30.2573 9.39735 29.9578 9.39735ZM29.4157 22.2289C29.4157 23.1258 28.686 23.8554 27.7892 23.8554H3.21084C2.31395 23.8554 1.58434 23.1258 1.58434 22.2289V14.8193H29.4157V22.2289Z" fill="#009DFF"/>
<path d="M14.0853 17.82C14.0853 17.896 14.0633 17.964 14.0193 18.024C13.9793 18.08 13.9313 18.124 13.8753 18.156C13.7753 18.088 13.6593 18.026 13.5273 17.97C13.3953 17.914 13.2333 17.886 13.0413 17.886C12.8173 17.886 12.6193 17.936 12.4473 18.036C12.2793 18.132 12.1473 18.278 12.0513 18.474C11.9593 18.666 11.9133 18.902 11.9133 19.182C11.9133 19.606 12.0193 19.928 12.2313 20.148C12.4433 20.364 12.7253 20.472 13.0773 20.472C13.2653 20.472 13.4273 20.446 13.5633 20.394C13.6993 20.342 13.8173 20.282 13.9173 20.214C13.9693 20.246 14.0133 20.294 14.0493 20.358C14.0893 20.418 14.1093 20.486 14.1093 20.562C14.1093 20.63 14.0913 20.692 14.0553 20.748C14.0233 20.804 13.9653 20.854 13.8813 20.898C13.7973 20.946 13.6813 20.99 13.5333 21.03C13.3893 21.07 13.2073 21.09 12.9873 21.09C12.6433 21.09 12.3293 21.022 12.0453 20.886C11.7653 20.746 11.5433 20.536 11.3793 20.256C11.2153 19.972 11.1333 19.614 11.1333 19.182C11.1333 18.762 11.2153 18.41 11.3793 18.126C11.5433 17.842 11.7633 17.628 12.0393 17.484C12.3153 17.336 12.6173 17.262 12.9453 17.262C13.1773 17.262 13.3773 17.288 13.5453 17.34C13.7173 17.392 13.8493 17.46 13.9413 17.544C14.0373 17.628 14.0853 17.72 14.0853 17.82ZM16.7629 19.122H17.2609C17.4969 19.122 17.6849 19.07 17.8249 18.966C17.9649 18.862 18.0349 18.708 18.0349 18.504C18.0349 18.304 17.9649 18.152 17.8249 18.048C17.6849 17.944 17.4789 17.892 17.2069 17.892C17.1269 17.892 17.0489 17.896 16.9729 17.904C16.8969 17.908 16.8269 17.916 16.7629 17.928V19.122ZM17.3149 19.716H16.0069V17.658C16.0069 17.586 16.0269 17.53 16.0669 17.49C16.1109 17.45 16.1669 17.418 16.2349 17.394C16.3629 17.354 16.5129 17.324 16.6849 17.304C16.8609 17.284 17.0389 17.274 17.2189 17.274C17.7469 17.274 18.1409 17.384 18.4009 17.604C18.6649 17.82 18.7969 18.118 18.7969 18.498C18.7969 18.738 18.7349 18.95 18.6109 19.134C18.4909 19.318 18.3209 19.462 18.1009 19.566C17.8809 19.666 17.6189 19.716 17.3149 19.716ZM17.2129 19.524L17.8609 19.338C17.9609 19.47 18.0629 19.604 18.1669 19.74C18.2749 19.872 18.3769 20.002 18.4729 20.13C18.5729 20.254 18.6609 20.368 18.7369 20.472C18.8169 20.576 18.8789 20.662 18.9229 20.73C18.8949 20.83 18.8409 20.908 18.7609 20.964C18.6849 21.02 18.6009 21.048 18.5089 21.048C18.3889 21.048 18.2949 21.022 18.2269 20.97C18.1629 20.914 18.1009 20.84 18.0409 20.748L17.2129 19.524ZM16.0069 19.452H16.7689V20.988C16.7369 21 16.6869 21.01 16.6189 21.018C16.5549 21.03 16.4869 21.036 16.4149 21.036C16.2709 21.036 16.1669 21.01 16.1029 20.958C16.0389 20.902 16.0069 20.81 16.0069 20.682V19.452Z" fill="#009DFF"/>
</g>
<defs>
<clipPath id="clip0_1716_1200">
<rect width="30" height="30" fill="white" transform="translate(0.5)"/>
</clipPath>
</defs>
</svg>
