<svg width="31" height="30" viewBox="0 0 31 30" fill="none" xmlns="http://www.w3.org/2000/svg">
<g clip-path="url(#clip0_1716_1384)">
<path d="M29.9578 9.39732C29.956 9.39732 29.9541 9.39762 29.9523 9.39762H7.54818C7.24877 9.39762 7.00602 9.64031 7.00602 9.93978C7.00602 10.2393 7.24877 10.482 7.54818 10.482H29.4157V13.735H1.58434V10.482H5.37951C5.67893 10.482 5.92168 10.2393 5.92168 9.93978C5.92168 9.64031 5.67893 9.39762 5.37951 9.39762H1.58434V7.77111C1.58434 6.87428 2.31395 6.14461 3.21084 6.14461H27.7892C28.686 6.14461 29.4157 6.87428 29.4157 7.77111C29.4157 8.07058 29.6584 8.31328 29.9578 8.31328C30.2573 8.31328 30.5 8.07058 30.5 7.77111C30.5 6.27633 29.2839 5.06027 27.7892 5.06027H3.21084C1.71605 5.06021 0.5 6.27627 0.5 7.77111V22.2289C0.5 23.7237 1.71605 24.9398 3.21084 24.9398H27.7892C29.2839 24.9398 30.5 23.7237 30.5 22.2289V9.93978V9.93949C30.5 9.64002 30.2573 9.39732 29.9578 9.39732ZM29.4157 22.2289C29.4157 23.1257 28.686 23.8554 27.7892 23.8554H3.21084C2.31395 23.8554 1.58434 23.1257 1.58434 22.2289V14.8193H29.4157V22.2289Z" fill="#009DFF"/>
<path d="M13.53 19.164C13.53 18.868 13.476 18.628 13.368 18.444C13.264 18.256 13.12 18.118 12.936 18.03C12.756 17.938 12.55 17.892 12.318 17.892C12.23 17.892 12.146 17.896 12.066 17.904C11.99 17.908 11.916 17.916 11.844 17.928V20.418C11.916 20.434 11.996 20.446 12.084 20.454C12.172 20.458 12.26 20.46 12.348 20.46C12.72 20.46 13.01 20.352 13.218 20.136C13.426 19.916 13.53 19.592 13.53 19.164ZM14.31 19.152C14.31 19.584 14.228 19.944 14.064 20.232C13.9 20.516 13.672 20.728 13.38 20.868C13.088 21.008 12.744 21.078 12.348 21.078C12.216 21.078 12.06 21.07 11.88 21.054C11.7 21.042 11.534 21.01 11.382 20.958C11.186 20.89 11.088 20.772 11.088 20.604V17.658C11.088 17.582 11.108 17.524 11.148 17.484C11.192 17.444 11.248 17.412 11.316 17.388C11.464 17.344 11.624 17.314 11.796 17.298C11.972 17.282 12.136 17.274 12.288 17.274C12.692 17.274 13.044 17.344 13.344 17.484C13.648 17.62 13.884 17.826 14.052 18.102C14.224 18.378 14.31 18.728 14.31 19.152ZM17.0002 19.122H17.4982C17.7342 19.122 17.9222 19.07 18.0622 18.966C18.2022 18.862 18.2722 18.708 18.2722 18.504C18.2722 18.304 18.2022 18.152 18.0622 18.048C17.9222 17.944 17.7162 17.892 17.4442 17.892C17.3642 17.892 17.2862 17.896 17.2102 17.904C17.1342 17.908 17.0642 17.916 17.0002 17.928V19.122ZM17.5522 19.716H16.2442V17.658C16.2442 17.586 16.2642 17.53 16.3042 17.49C16.3482 17.45 16.4042 17.418 16.4722 17.394C16.6002 17.354 16.7502 17.324 16.9222 17.304C17.0982 17.284 17.2762 17.274 17.4562 17.274C17.9842 17.274 18.3782 17.384 18.6382 17.604C18.9022 17.82 19.0342 18.118 19.0342 18.498C19.0342 18.738 18.9722 18.95 18.8482 19.134C18.7282 19.318 18.5582 19.462 18.3382 19.566C18.1182 19.666 17.8562 19.716 17.5522 19.716ZM17.4502 19.524L18.0982 19.338C18.1982 19.47 18.3002 19.604 18.4042 19.74C18.5122 19.872 18.6142 20.002 18.7102 20.13C18.8102 20.254 18.8982 20.368 18.9742 20.472C19.0542 20.576 19.1162 20.662 19.1602 20.73C19.1322 20.83 19.0782 20.908 18.9982 20.964C18.9222 21.02 18.8382 21.048 18.7462 21.048C18.6262 21.048 18.5322 21.022 18.4642 20.97C18.4002 20.914 18.3382 20.84 18.2782 20.748L17.4502 19.524ZM16.2442 19.452H17.0062V20.988C16.9742 21 16.9242 21.01 16.8562 21.018C16.7922 21.03 16.7242 21.036 16.6522 21.036C16.5082 21.036 16.4042 21.01 16.3402 20.958C16.2762 20.902 16.2442 20.81 16.2442 20.682V19.452Z" fill="#009DFF"/>
</g>
<defs>
<clipPath id="clip0_1716_1384">
<rect width="30" height="30" fill="white" transform="translate(0.5)"/>
</clipPath>
</defs>
</svg>
