<svg width="31" height="30" viewBox="0 0 31 30" fill="none" xmlns="http://www.w3.org/2000/svg">
<path d="M6.125 16.875C6.125 16.6264 6.02623 16.3879 5.85041 16.2121C5.6746 16.0363 5.43614 15.9375 5.1875 15.9375C4.93886 15.9375 4.7004 16.0363 4.52459 16.2121C4.34877 16.3879 4.25 16.6264 4.25 16.875L4.25 22.5C4.25 22.7486 4.34877 22.9871 4.52459 23.1629C4.7004 23.3387 4.93886 23.4375 5.1875 23.4375C5.43614 23.4375 5.6746 23.3387 5.85041 23.1629C6.02623 22.9871 6.125 22.7486 6.125 22.5L6.125 16.875Z" fill="#009DFF"/>
<path d="M8.7875 10.3125H5.0375C4.44419 10.3076 3.85576 10.42 3.30607 10.6433C2.75639 10.8667 2.25629 11.1965 1.83457 11.6139C1.41285 12.0312 1.07783 12.5279 0.848794 13.0752C0.619754 13.6226 0.501215 14.2098 0.5 14.8031L0.5 24.5719C0.502477 25.7621 0.976391 26.9029 1.81801 27.7445C2.65963 28.5861 3.8004 29.06 4.99062 29.0625L26.0094 29.0625C27.1996 29.06 28.3404 28.5861 29.182 27.7445C30.0236 26.9029 30.4975 25.7621 30.5 24.5719L30.5 14.8031C30.4975 13.6129 30.0236 12.4721 29.182 11.6305C28.3404 10.7889 27.1996 10.315 26.0094 10.3125H25.9625C25.2315 8.64345 24.03 7.22359 22.5049 6.22656C20.9797 5.22953 19.1971 4.69855 17.375 4.69855C15.5529 4.69855 13.7703 5.22953 12.2451 6.22656C10.72 7.22359 9.51849 8.64345 8.7875 10.3125ZM28.625 14.8031L28.625 24.5719C28.625 25.2656 28.3494 25.9309 27.8589 26.4214C27.3684 26.9119 26.7031 27.1875 26.0094 27.1875L4.99062 27.1875C4.29692 27.1875 3.63162 26.9119 3.1411 26.4214C2.65057 25.9309 2.375 25.2656 2.375 24.5719L2.375 14.8031C2.375 14.1094 2.65057 13.4441 3.1411 12.9536C3.63162 12.4631 4.29692 12.1875 4.99062 12.1875H8.1875C8.06342 12.8048 8.00062 13.4329 8 14.0625C7.99974 16.5222 8.97394 18.8819 10.7094 20.625H9.875C9.62636 20.625 9.3879 20.7238 9.21209 20.8996C9.03627 21.0754 8.9375 21.3139 8.9375 21.5625C8.9375 21.8111 9.03627 22.0496 9.21209 22.2254C9.3879 22.4012 9.62636 22.5 9.875 22.5L24.875 22.5C25.1236 22.5 25.3621 22.4012 25.5379 22.2254C25.7137 22.0496 25.8125 21.8111 25.8125 21.5625C25.8125 21.3139 25.7137 21.0754 25.5379 20.8996C25.3621 20.7238 25.1236 20.625 24.875 20.625H24.0406C25.7761 18.8819 26.7503 16.5222 26.75 14.0625C26.7483 13.4551 26.6886 12.8492 26.5719 12.2531C27.1532 12.3811 27.6734 12.7036 28.0467 13.1672C28.42 13.6308 28.624 14.2079 28.625 14.8031ZM24.875 14.0625C24.8738 15.4034 24.5131 16.7195 23.8305 17.8737C23.1479 19.0279 22.1683 19.978 20.9938 20.625L13.7563 20.625C12.5973 19.9866 11.6278 19.0529 10.9463 17.9187C10.2648 16.7845 9.89547 15.4902 9.87583 14.1671C9.85619 12.8441 10.1869 11.5394 10.8345 10.3854C11.482 9.23152 12.4233 8.26945 13.5628 7.59688C14.7024 6.92431 15.9995 6.56519 17.3227 6.55596C18.6459 6.54674 19.9479 6.88773 21.0967 7.54434C22.2455 8.20094 23.2001 9.14979 23.8637 10.2946C24.5273 11.4393 24.8762 12.7393 24.875 14.0625Z" fill="#009DFF"/>
<path d="M17.375 11.25H19.25C19.4986 11.25 19.7371 11.1512 19.9129 10.9754C20.0887 10.7996 20.1875 10.5611 20.1875 10.3125C20.1875 10.0639 20.0887 9.8254 19.9129 9.64959C19.7371 9.47377 19.4986 9.375 19.25 9.375H18.3125C18.3125 9.12636 18.2137 8.8879 18.0379 8.71209C17.8621 8.53627 17.6236 8.4375 17.375 8.4375C17.1264 8.4375 16.8879 8.53627 16.7121 8.71209C16.5363 8.8879 16.4375 9.12636 16.4375 9.375V9.54375C15.8175 9.76873 15.2962 10.2045 14.9649 10.7748C14.6336 11.3451 14.5132 12.0138 14.6249 12.6639C14.7366 13.3139 15.0732 13.904 15.5759 14.3311C16.0786 14.7581 16.7154 14.9949 17.375 15C17.6236 15 17.8621 15.0988 18.0379 15.2746C18.2137 15.4504 18.3125 15.6889 18.3125 15.9375C18.3125 16.1861 18.2137 16.4246 18.0379 16.6004C17.8621 16.7762 17.6236 16.875 17.375 16.875H15.5C15.2514 16.875 15.0129 16.9738 14.8371 17.1496C14.6613 17.3254 14.5625 17.5639 14.5625 17.8125C14.5625 18.0611 14.6613 18.2996 14.8371 18.4754C15.0129 18.6512 15.2514 18.75 15.5 18.75H16.4375C16.4375 18.9986 16.5363 19.2371 16.7121 19.4129C16.8879 19.5887 17.1264 19.6875 17.375 19.6875C17.6236 19.6875 17.8621 19.5887 18.0379 19.4129C18.2137 19.2371 18.3125 18.9986 18.3125 18.75V18.5812C18.9325 18.3563 19.4538 17.9205 19.7851 17.3502C20.1164 16.7799 20.2368 16.1112 20.1251 15.4611C20.0134 14.8111 19.6768 14.221 19.1741 13.7939C18.6714 13.3669 18.0346 13.1301 17.375 13.125C17.1264 13.125 16.8879 13.0262 16.7121 12.8504C16.5363 12.6746 16.4375 12.4361 16.4375 12.1875C16.4375 11.9389 16.5363 11.7004 16.7121 11.5246C16.8879 11.3488 17.1264 11.25 17.375 11.25Z" fill="#009DFF"/>
<path d="M5.18743 1.875L5.18743 4.30312L4.91555 4.02187C4.73902 3.84534 4.49959 3.74616 4.24993 3.74616C4.00027 3.74616 3.76084 3.84534 3.5843 4.02187C3.40777 4.19841 3.30859 4.43784 3.30859 4.6875C3.30859 4.93715 3.40777 5.17659 3.5843 5.35312L5.4593 7.22812C5.54646 7.31599 5.65015 7.38574 5.76439 7.43333C5.87863 7.48093 6.00117 7.50543 6.12493 7.50543C6.24869 7.50543 6.37123 7.48093 6.48547 7.43333C6.59971 7.38574 6.7034 7.31599 6.79055 7.22812L8.66556 5.35312C8.75343 5.26597 8.82317 5.16228 8.87077 5.04804C8.91836 4.93379 8.94287 4.81126 8.94287 4.6875C8.94287 4.56374 8.91836 4.4412 8.87077 4.32696C8.82317 4.21271 8.75343 4.10902 8.66556 4.02187C8.5784 3.934 8.47471 3.86426 8.36047 3.81666C8.24623 3.76906 8.12369 3.74456 7.99993 3.74456C7.87617 3.74456 7.75363 3.76906 7.63939 3.81666C7.52515 3.86426 7.42146 3.934 7.3343 4.02187L7.06243 4.30312L7.06243 1.875C7.06243 1.62636 6.96366 1.3879 6.78784 1.21208C6.61203 1.03627 6.37357 0.937496 6.12493 0.937496C5.87629 0.937496 5.63783 1.03627 5.46202 1.21208C5.2862 1.3879 5.18743 1.62636 5.18743 1.875Z" fill="#009DFF"/>
</svg>
