<svg width="31" height="30" viewBox="0 0 31 30" fill="none" xmlns="http://www.w3.org/2000/svg">
<g clip-path="url(#clip0_1716_1500)">
<path d="M29.9578 9.39732L29.9523 9.39762H14.5C14.2006 9.39762 14.5 9.70053 14.5 10C14.5 10.2995 14.2006 10.5 14.5 10.5L29.4157 10.482V15H1.58434V10.482L1.5 10.5C1.79941 10.5 1.58434 10.2393 1.58434 9.93978C1.58434 9.64031 1.88375 9.39762 1.58434 9.39762V7.77111C1.58434 6.87428 2.31395 6.14461 3.21084 6.14461H27.7892C28.686 6.14461 29.4157 6.87428 29.4157 7.77111C29.4157 8.07058 29.6584 8.31328 29.9578 8.31328C30.2573 8.31328 30.5 8.07058 30.5 7.77111C30.5 6.27633 29.2839 5.06027 27.7892 5.06027H3.21084C1.71605 5.06021 0.5 6.27627 0.5 7.77111V22.2289C0.5 23.7237 1.71605 24.9398 3.21084 24.9398H27.7892C29.2839 24.9398 30.5 23.7237 30.5 22.2289V9.93978C30.5 9.64031 30.2573 9.39732 29.9578 9.39732ZM29.4157 22.2289C29.4157 23.1257 28.686 23.8554 27.7892 23.8554H3.21084C2.31395 23.8554 1.58434 23.1257 1.58434 22.2289V16H29.4157V22.2289Z" fill="#009DFF"/>
<path d="M14.4577 13.4473C14.1498 13.0757 13.7044 12.6891 13.2037 12.3587C13.119 12.3028 13.0051 12.3262 12.9493 12.4108C12.8934 12.4955 12.9168 12.6094 13.0014 12.6653C13.3658 12.9058 13.6977 13.1761 13.9614 13.4457L13.1549 13.6005C13.0754 13.6157 13.0152 13.6813 13.0068 13.7618L12.9332 14.4686C12.7053 14.2487 12.3446 13.9208 11.8773 13.5606C11.2206 13.0545 10.2388 12.4023 9.09636 11.9795C9.15858 11.9493 9.22179 11.9143 9.28376 11.8739C9.29126 11.8722 9.29879 11.8705 9.30636 11.8689C9.68089 11.9699 11.1473 12.3996 12.2875 13.2094C12.3197 13.2324 12.3569 13.2434 12.3937 13.2434C12.4511 13.2434 12.5078 13.2165 12.5436 13.166C12.6023 13.0833 12.5829 12.9687 12.5002 12.9099C11.8036 12.4151 11.0066 12.0603 10.3822 11.8288C10.4766 11.8182 10.5717 11.8036 10.667 11.7852C11.1773 11.8189 11.7529 11.9894 12.3333 12.2794C12.3596 12.2926 12.3877 12.2988 12.4152 12.2988C12.4826 12.2988 12.5475 12.2616 12.5797 12.1972C12.625 12.1065 12.5882 11.9961 12.4975 11.9508C12.1464 11.7754 11.7953 11.6406 11.4557 11.5496C12.1413 11.2744 12.8169 10.8221 13.385 10.2478C14.1405 9.48411 14.5547 8.65543 14.4928 8.03104C14.4547 7.64598 14.197 7.00002 12.9003 7.00002C11.9067 7.00002 11.0737 7.37298 10.4245 8.10857C10.0205 8.56625 9.69544 9.15496 9.4553 9.8615C9.11431 9.57425 8.60567 9.59429 8.49997 9.60207C8.39419 9.59429 7.88574 9.57425 7.54473 9.86141C7.3464 9.27903 7.08945 8.77447 6.77825 8.35839C6.71752 8.27715 6.6024 8.26058 6.52117 8.32131C6.43993 8.38204 6.42334 8.49716 6.48409 8.5784C6.82102 9.02884 7.09079 9.59572 7.28677 10.2633C7.25152 10.4001 7.2482 10.5533 7.26404 10.7082C7.20627 10.6198 7.14235 10.5268 7.07138 10.43C6.62396 9.81964 5.80396 8.93563 4.43835 8.19018C4.34924 8.14154 4.23775 8.17436 4.18912 8.26337C4.14053 8.35241 4.1733 8.464 4.26231 8.51261C5.56042 9.22124 6.33934 10.0564 6.76417 10.6323C7.02481 10.9856 7.18777 11.2871 7.28047 11.4832L6.9946 11.4833C6.7951 11.4833 6.58827 11.4621 6.37988 11.4201C6.3785 11.4198 6.37714 11.4196 6.37576 11.4193C5.51497 11.2462 4.60415 10.7252 3.87627 9.98952C3.20678 9.3129 2.82224 8.57633 2.87266 8.06722C2.92999 7.48874 3.57156 7.36734 4.09965 7.36734C4.82338 7.36734 5.45312 7.5899 5.97149 8.02886C6.0489 8.09441 6.1648 8.08476 6.23035 8.00739C6.29591 7.92997 6.2863 7.81408 6.20888 7.74852C5.62239 7.25181 4.91272 7 4.09968 7C2.80291 7 2.54528 7.64596 2.50717 8.03104C2.44535 8.65546 2.85953 9.48418 3.61513 10.2479C4.19901 10.838 4.89643 11.2996 5.6015 11.5723C5.12872 11.708 4.63745 11.9123 4.16744 12.1722C3.49028 12.5467 2.91306 12.9995 2.54221 13.4474C2.50082 13.4974 2.48887 13.5655 2.51081 13.6265C2.53274 13.6876 2.58531 13.7326 2.64904 13.7449L3.6419 13.9354L3.74162 14.8925C3.74915 14.9644 3.79806 15.0251 3.86664 15.0478C3.88555 15.0541 3.90498 15.0571 3.9243 15.0571C3.97487 15.0571 4.02426 15.0362 4.05962 14.9976C4.07889 14.9767 6.00067 12.9074 8.49997 12.1677C10.9993 12.9074 12.921 14.9767 12.9403 14.9976C12.9757 15.0362 13.025 15.0571 13.0757 15.0571C13.0949 15.0571 13.1144 15.0541 13.1333 15.0478C13.2019 15.0251 13.2509 14.9644 13.2583 14.8925L13.3581 13.9354L14.3509 13.7449C14.4147 13.7326 14.4672 13.6876 14.4892 13.6265C14.5111 13.5654 14.4992 13.4973 14.4577 13.4473ZM12.6567 8.26337C12.6081 8.17433 12.4965 8.1415 12.4075 8.19018C11.0418 8.93565 10.2218 9.81964 9.77443 10.43C9.76383 10.4444 9.75359 10.4587 9.7433 10.473C9.73983 10.4004 9.73029 10.33 9.71318 10.2635C10.104 8.93019 10.9733 7.36734 12.9003 7.36734C13.4284 7.36734 14.07 7.48876 14.1273 8.0672C14.1778 8.57626 13.7933 9.31283 13.1239 9.98942C12.3964 10.7247 11.4864 11.2455 10.6261 11.419C10.6241 11.4194 10.6221 11.4197 10.6201 11.4201H10.6201C10.6197 11.4202 10.6193 11.4203 10.6189 11.4203C10.4109 11.4621 10.2045 11.4833 10.0054 11.4833H9.56534C9.65803 11.2872 9.82099 10.9856 10.0817 10.6323C10.5065 10.0564 11.2854 9.22121 12.5835 8.51258C12.6725 8.46402 12.7053 8.35241 12.6567 8.26337ZM5.1227 13.5605C4.6554 13.9207 4.29468 14.2487 4.06677 14.4686L3.99311 13.7618C3.98472 13.6812 3.92455 13.6157 3.84503 13.6004L3.04136 13.4461C3.76558 12.7259 5.09586 11.9636 6.33995 11.7864C6.43288 11.8043 6.5256 11.8184 6.61773 11.8288C5.99333 12.0603 5.19636 12.4151 4.49973 12.9099C4.41702 12.9686 4.39761 13.0833 4.45635 13.166C4.49216 13.2164 4.54874 13.2433 4.60626 13.2433C4.64303 13.2433 4.6802 13.2323 4.71245 13.2094C5.86199 12.3929 7.3471 11.9619 7.70417 11.866C7.76998 11.9098 7.83734 11.9473 7.90362 11.9794C6.76117 12.4023 5.77939 13.0544 5.1227 13.5605ZM8.49999 10.8449C8.39853 10.8449 8.31631 10.9271 8.31631 11.0286V11.7464C8.19275 11.7098 8.03244 11.6479 7.88717 11.5463C7.72908 11.1998 7.54857 10.6174 7.65059 10.3247C7.65076 10.3243 7.65099 10.3238 7.65116 10.3233C7.65786 10.3042 7.66576 10.2864 7.67497 10.27C7.87461 9.91496 8.4758 9.96842 8.4814 9.96906C8.49371 9.9703 8.50618 9.9703 8.51848 9.96906C8.52458 9.9684 9.12687 9.91768 9.32489 10.2698C9.47562 10.5383 9.28144 11.1765 9.11276 11.5462C8.96836 11.6471 8.80761 11.709 8.68362 11.7459V11.0285C8.68367 10.9271 8.60145 10.8449 8.49999 10.8449Z" fill="#009DFF"/>
</g>
<defs>
<clipPath id="clip0_1716_1500">
<rect width="30" height="30" fill="white" transform="translate(0.5)"/>
</clipPath>
</defs>
</svg>
