<svg width="31" height="30" viewBox="0 0 31 30" fill="none" xmlns="http://www.w3.org/2000/svg">
<path d="M11.6123 24.7937C12.5584 25.3379 13.6817 25.485 14.736 25.2026C15.7903 24.9203 16.6897 24.2317 17.2373 23.2875L22.4623 14.25C22.6102 13.994 22.7062 13.7113 22.7448 13.4181C22.7834 13.125 22.7638 12.8271 22.6872 12.5415C22.6105 12.2559 22.4784 11.9882 22.2982 11.7538C22.1181 11.5193 21.8935 11.3226 21.6373 11.175L20.0748 10.275" stroke="#009DFF" stroke-width="1.25" stroke-linecap="round" stroke-linejoin="round"/>
<path d="M11.4061 24.675C10.5465 24.1771 9.91957 23.3584 9.66295 22.3988C9.40633 21.4391 9.54099 20.4168 10.0374 19.5563L13.9936 12.6813C14.2904 12.1647 14.3701 11.5516 14.2155 10.9763C14.0608 10.4011 13.6844 9.91062 13.1686 9.61251L10.2936 7.95626C10.0387 7.80741 9.75674 7.7105 9.46415 7.6711C9.17155 7.63171 8.87405 7.65061 8.58879 7.72672C8.30353 7.80282 8.03615 7.93463 7.80206 8.11455C7.56798 8.29447 7.37181 8.51893 7.22488 8.77501L4.01863 14.375C3.32963 15.5766 3.1447 17.0023 3.50429 18.3399C3.86389 19.6776 4.73873 20.8183 5.93738 21.5125L8.16238 22.8L11.4061 24.675Z" stroke="#009DFF" stroke-width="1.25" stroke-linecap="round" stroke-linejoin="round"/>
<path d="M25.625 8.63751C26.0943 8.90694 26.5057 9.26634 26.8359 9.69509C27.166 10.1238 27.4082 10.6135 27.5487 11.1361C27.6892 11.6586 27.7252 12.2038 27.6547 12.7403C27.5841 13.2768 27.4084 13.7941 27.1375 14.2625L23.45 20.625C23.1507 21.1412 22.6591 21.5178 22.0828 21.6724C21.5065 21.827 20.8925 21.747 20.375 21.45L18.8125 20.5438" stroke="#009DFF" stroke-width="1.25" stroke-linecap="round" stroke-linejoin="round"/>
<path d="M11.8561 8.87501L12.7811 7.27502C13.4777 6.07044 14.6241 5.19172 15.9683 4.83194C17.3125 4.47216 18.7446 4.66075 19.9498 5.35626L22.1748 6.64377L25.4186 8.51877C24.5573 8.0229 23.5344 7.88919 22.5746 8.14701C21.6149 8.40483 20.7967 9.03308 20.2998 9.89377L14.8748 19.25C14.5767 19.7657 14.0862 20.1422 13.511 20.2969C12.9357 20.4515 12.3226 20.3717 11.8061 20.075L10.2373 19.1688" stroke="#009DFF" stroke-width="1.25" stroke-linecap="round" stroke-linejoin="round"/>
</svg>
