<svg xmlns="http://www.w3.org/2000/svg" xmlns:xlink="http://www.w3.org/1999/xlink" width="96" zoomAndPan="magnify" viewBox="0 0 72 72" height="96" preserveAspectRatio="xMidYMid meet" version="1.2"><defs><clipPath id="3301739d94"><path d="M 37 7.5 L 53 7.5 L 53 64.5 L 37 64.5 Z M 37 7.5 "/></clipPath><clipPath id="776741922f"><path d="M 19.257812 7.5 L 32 7.5 L 32 64.5 L 19.257812 64.5 Z M 19.257812 7.5 "/></clipPath></defs><g id="8245255869"><g clip-rule="nonzero" clip-path="url(#3301739d94)"><path style=" stroke:none;fill-rule:nonzero;fill:#009dff;fill-opacity:1;" d="M 51.105469 19.066406 C 50.863281 21.058594 50.257812 22.976562 49.363281 24.746094 C 49.0625 25.335938 48.730469 25.910156 48.371094 26.460938 C 47.792969 27.34375 47.132812 28.25 46.53125 28.828125 C 46.507812 28.847656 46.488281 28.871094 46.46875 28.902344 C 46.507812 28.554688 46.578125 28.308594 46.679688 28.195312 C 47.226562 27.566406 47.800781 26.605469 48.296875 25.679688 C 48.609375 25.09375 48.886719 24.492188 49.132812 23.878906 C 49.867188 22.042969 50.296875 20.082031 50.367188 18.074219 C 50.429688 16.28125 50.199219 14.804688 49.785156 13.582031 C 48.96875 11.640625 47.671875 10.128906 46.152344 9.347656 C 48.292969 9.894531 50.066406 11.878906 50.921875 14.542969 C 51.226562 15.796875 51.328125 17.289062 51.105469 19.066406 Z M 52.242188 14.027344 C 51.007812 10.183594 48.207031 7.5 44.949219 7.5 C 41.695312 7.5 38.894531 10.183594 37.660156 14.027344 C 37.289062 15.558594 37.164062 17.378906 37.433594 19.550781 C 37.734375 21.984375 38.472656 24.324219 39.5625 26.480469 C 39.929688 27.203125 40.335938 27.902344 40.777344 28.578125 C 41.480469 29.652344 42.289062 30.757812 43.023438 31.464844 C 43.8125 32.21875 43.722656 38.292969 43.398438 45.03125 L 43.398438 45.035156 C 43.242188 48.277344 43.03125 51.667969 42.839844 54.695312 C 42.617188 58.121094 42.417969 61.082031 42.34375 62.828125 C 42.304688 63.738281 44.085938 64.496094 44.949219 64.496094 C 45.792969 64.496094 47.558594 63.777344 47.558594 62.902344 C 47.558594 62.875 47.558594 62.851562 47.558594 62.828125 C 47.488281 61.179688 47.304688 58.449219 47.101562 55.269531 L 47.101562 55.261719 L 47.085938 54.625 C 47.085938 54.609375 47.085938 54.589844 47.085938 54.574219 L 47.085938 54.511719 C 47.082031 54.421875 47.078125 54.324219 47.074219 54.226562 L 46.542969 32.328125 C 46.628906 31.894531 46.742188 31.597656 46.878906 31.464844 C 47.617188 30.757812 48.421875 29.652344 49.125 28.578125 C 49.566406 27.902344 49.972656 27.203125 50.339844 26.480469 C 51.433594 24.324219 52.167969 21.984375 52.46875 19.550781 C 52.734375 17.378906 52.613281 15.558594 52.242188 14.027344 "/></g><g clip-rule="nonzero" clip-path="url(#776741922f)"><path style=" stroke:none;fill-rule:nonzero;fill:#009dff;fill-opacity:1;" d="M 26.941406 35.042969 C 26.941406 34.917969 26.945312 34.792969 26.945312 34.671875 C 26.972656 33.308594 27.4375 31.808594 28.359375 30.777344 C 30.136719 28.796875 31.984375 27.617188 31.824219 24.621094 L 30.9375 8.097656 C 30.921875 7.761719 30.644531 7.5 30.308594 7.5 C 29.957031 7.5 29.671875 7.78125 29.671875 8.132812 L 29.671875 25.851562 C 29.671875 26.324219 29.257812 26.699219 28.777344 26.636719 C 28.378906 26.585938 28.089844 26.226562 28.089844 25.824219 L 28.089844 8.339844 C 28.089844 7.875 27.714844 7.5 27.25 7.5 C 26.785156 7.5 26.410156 7.875 26.410156 8.339844 L 26.410156 25.851562 C 26.410156 26.289062 26.058594 26.644531 25.621094 26.644531 C 25.183594 26.644531 24.828125 26.289062 24.828125 25.851562 L 24.828125 8.339844 C 24.828125 7.875 24.453125 7.5 23.992188 7.5 C 23.527344 7.5 23.152344 7.875 23.152344 8.339844 L 23.152344 25.824219 C 23.152344 26.226562 22.863281 26.585938 22.464844 26.636719 C 21.980469 26.699219 21.570312 26.324219 21.570312 25.851562 L 21.570312 8.132812 C 21.570312 7.78125 21.285156 7.5 20.933594 7.5 C 20.597656 7.5 20.320312 7.761719 20.300781 8.097656 L 19.417969 24.621094 C 19.257812 27.617188 21.105469 28.796875 22.878906 30.777344 C 23.804688 31.808594 24.269531 33.308594 24.292969 34.671875 C 24.296875 34.792969 24.296875 34.917969 24.300781 35.042969 C 24.300781 35.097656 24.300781 35.152344 24.300781 35.207031 C 24.386719 43.019531 23.226562 57.746094 23.015625 62.765625 C 23.011719 62.792969 23.011719 62.820312 23.011719 62.84375 C 23.011719 63.75 24.777344 64.496094 25.621094 64.496094 C 26.460938 64.496094 28.230469 63.75 28.230469 62.84375 C 28.230469 62.820312 28.230469 62.792969 28.226562 62.765625 C 28.015625 57.746094 26.851562 43.019531 26.9375 35.207031 C 26.941406 35.152344 26.941406 35.097656 26.941406 35.042969 "/></g></g></svg>