<svg xmlns="http://www.w3.org/2000/svg" xmlns:xlink="http://www.w3.org/1999/xlink" width="96" zoomAndPan="magnify" viewBox="0 0 72 72" height="96" preserveAspectRatio="xMidYMid meet" version="1.2"><defs><clipPath id="2efb35004d"><path d="M 12.878906 7.5 L 59.378906 7.5 L 59.378906 64.5 L 12.878906 64.5 Z M 12.878906 7.5 "/></clipPath></defs><g id="a43548e8b3"><g clip-rule="nonzero" clip-path="url(#2efb35004d)"><path style=" stroke:none;fill-rule:nonzero;fill:#ffffff;fill-opacity:1;" d="M 56.921875 15.824219 L 50.832031 9.734375 C 49.421875 8.328125 47.550781 7.550781 45.554688 7.546875 L 20.367188 7.511719 L 20.359375 7.511719 C 18.363281 7.511719 16.484375 8.289062 15.070312 9.699219 C 13.65625 11.109375 12.878906 12.988281 12.878906 14.988281 L 12.878906 57.011719 C 12.878906 61.136719 16.234375 64.488281 20.355469 64.488281 L 51.632812 64.488281 C 55.757812 64.488281 59.109375 61.136719 59.109375 57.011719 L 59.109375 21.109375 C 59.109375 19.144531 58.3125 17.21875 56.921875 15.824219 Z M 53.757812 18.980469 C 53.839844 19.0625 53.902344 19.152344 53.972656 19.242188 L 47.417969 19.242188 L 47.417969 12.683594 C 47.503906 12.753906 47.59375 12.816406 47.671875 12.894531 Z M 51.632812 60.019531 L 20.355469 60.019531 C 18.699219 60.019531 17.347656 58.671875 17.347656 57.011719 L 17.347656 14.988281 C 17.347656 14.183594 17.660156 13.429688 18.230469 12.859375 C 18.796875 12.292969 19.554688 11.980469 20.359375 11.980469 L 42.949219 12.011719 L 42.949219 19.375 C 42.949219 21.765625 44.890625 23.710938 47.28125 23.710938 L 54.640625 23.710938 L 54.640625 57.011719 C 54.640625 58.671875 53.292969 60.019531 51.632812 60.019531 Z M 51.632812 60.019531 "/></g><path style=" stroke:none;fill-rule:nonzero;fill:#ffffff;fill-opacity:1;" d="M 46.476562 39.03125 L 33.601562 39.03125 C 32.367188 39.03125 31.367188 40.03125 31.367188 41.265625 C 31.367188 42.5 32.367188 43.5 33.601562 43.5 L 46.476562 43.5 C 47.710938 43.5 48.710938 42.5 48.710938 41.265625 C 48.710938 40.03125 47.710938 39.03125 46.476562 39.03125 Z M 46.476562 39.03125 "/><path style=" stroke:none;fill-rule:nonzero;fill:#ffffff;fill-opacity:1;" d="M 46.476562 28.539062 L 33.601562 28.539062 C 32.367188 28.539062 31.367188 29.539062 31.367188 30.773438 C 31.367188 32.003906 32.367188 33.003906 33.601562 33.003906 L 46.476562 33.003906 C 47.710938 33.003906 48.710938 32.003906 48.710938 30.773438 C 48.710938 29.539062 47.710938 28.539062 46.476562 28.539062 Z M 46.476562 28.539062 "/><path style=" stroke:none;fill-rule:nonzero;fill:#ffffff;fill-opacity:1;" d="M 46.476562 49.527344 L 33.601562 49.527344 C 32.367188 49.527344 31.367188 50.527344 31.367188 51.761719 C 31.367188 52.992188 32.367188 53.996094 33.601562 53.996094 L 46.476562 53.996094 C 47.710938 53.996094 48.710938 52.992188 48.710938 51.761719 C 48.710938 50.527344 47.710938 49.527344 46.476562 49.527344 Z M 46.476562 49.527344 "/><path style=" stroke:none;fill-rule:nonzero;fill:#ffffff;fill-opacity:1;" d="M 25.511719 27.902344 L 26.785156 27.902344 C 27.078125 27.902344 27.363281 27.957031 27.640625 28.070312 C 27.914062 28.183594 28.152344 28.347656 28.363281 28.554688 C 28.574219 28.765625 28.734375 29.007812 28.847656 29.28125 C 28.960938 29.554688 29.019531 29.839844 29.019531 30.136719 L 29.019531 31.40625 C 29.019531 31.703125 28.960938 31.988281 28.847656 32.261719 C 28.734375 32.535156 28.574219 32.777344 28.363281 32.988281 C 28.152344 33.195312 27.914062 33.359375 27.640625 33.472656 C 27.363281 33.585938 27.078125 33.640625 26.785156 33.640625 L 25.511719 33.640625 C 25.214844 33.640625 24.929688 33.585938 24.65625 33.472656 C 24.382812 33.359375 24.140625 33.195312 23.933594 32.988281 C 23.722656 32.777344 23.5625 32.535156 23.449219 32.261719 C 23.335938 31.988281 23.277344 31.703125 23.277344 31.40625 L 23.277344 30.136719 C 23.277344 29.839844 23.335938 29.554688 23.449219 29.28125 C 23.5625 29.007812 23.722656 28.765625 23.933594 28.554688 C 24.140625 28.347656 24.382812 28.183594 24.65625 28.070312 C 24.929688 27.957031 25.214844 27.902344 25.511719 27.902344 Z M 25.511719 27.902344 "/><path style=" stroke:none;fill-rule:nonzero;fill:#ffffff;fill-opacity:1;" d="M 25.511719 38.394531 L 26.785156 38.394531 C 27.078125 38.394531 27.363281 38.453125 27.640625 38.566406 C 27.914062 38.679688 28.152344 38.839844 28.363281 39.050781 C 28.574219 39.261719 28.734375 39.5 28.847656 39.777344 C 28.960938 40.050781 29.019531 40.335938 29.019531 40.628906 L 29.019531 41.902344 C 29.019531 42.199219 28.960938 42.484375 28.847656 42.757812 C 28.734375 43.03125 28.574219 43.273438 28.363281 43.480469 C 28.152344 43.691406 27.914062 43.851562 27.640625 43.964844 C 27.363281 44.078125 27.078125 44.136719 26.785156 44.136719 L 25.511719 44.136719 C 25.214844 44.136719 24.929688 44.078125 24.65625 43.964844 C 24.382812 43.851562 24.140625 43.691406 23.933594 43.480469 C 23.722656 43.273438 23.5625 43.03125 23.449219 42.757812 C 23.335938 42.484375 23.277344 42.199219 23.277344 41.902344 L 23.277344 40.628906 C 23.277344 40.335938 23.335938 40.050781 23.449219 39.777344 C 23.5625 39.5 23.722656 39.261719 23.933594 39.050781 C 24.140625 38.839844 24.382812 38.679688 24.65625 38.566406 C 24.929688 38.453125 25.214844 38.394531 25.511719 38.394531 Z M 25.511719 38.394531 "/><path style=" stroke:none;fill-rule:nonzero;fill:#ffffff;fill-opacity:1;" d="M 25.511719 48.890625 L 26.785156 48.890625 C 27.078125 48.890625 27.363281 48.949219 27.640625 49.0625 C 27.914062 49.175781 28.152344 49.335938 28.363281 49.546875 C 28.574219 49.753906 28.734375 49.996094 28.847656 50.269531 C 28.960938 50.542969 29.019531 50.828125 29.019531 51.125 L 29.019531 52.394531 C 29.019531 52.691406 28.960938 52.976562 28.847656 53.25 C 28.734375 53.523438 28.574219 53.765625 28.363281 53.976562 C 28.152344 54.183594 27.914062 54.347656 27.640625 54.460938 C 27.363281 54.574219 27.078125 54.628906 26.785156 54.628906 L 25.511719 54.628906 C 25.214844 54.628906 24.929688 54.574219 24.65625 54.460938 C 24.382812 54.347656 24.140625 54.183594 23.933594 53.976562 C 23.722656 53.765625 23.5625 53.523438 23.449219 53.25 C 23.335938 52.976562 23.277344 52.691406 23.277344 52.394531 L 23.277344 51.125 C 23.277344 50.828125 23.335938 50.542969 23.449219 50.269531 C 23.5625 49.996094 23.722656 49.753906 23.933594 49.546875 C 24.140625 49.335938 24.382812 49.175781 24.65625 49.0625 C 24.929688 48.949219 25.214844 48.890625 25.511719 48.890625 Z M 25.511719 48.890625 "/></g></svg>