<svg width="30" height="30" viewBox="0 0 30 30" fill="none" xmlns="http://www.w3.org/2000/svg">
<path d="M2.68804 16.18V16.1392C2.62001 16.2072 2.52478 16.2616 2.44315 16.3024C2.34791 16.3432 2.23908 16.3568 2.14384 16.3568C1.83093 16.3568 1.53162 16.2344 1.32754 16.0031C1.10987 15.7718 0.987421 15.4725 1.00103 15.146C0.987421 14.8331 1.10987 14.5202 1.32754 14.2889C1.53162 14.0848 1.83093 13.9488 2.13024 13.9624C2.23908 13.9624 2.33431 13.976 2.42954 14.0168C2.52478 14.0576 2.60641 14.112 2.67443 14.18V14.1256C2.67443 14.0712 2.71525 14.0168 2.76967 14.0168C2.76967 14.0168 2.76967 14.0168 2.78327 14.0168H3.36829C3.42271 14.0168 3.47713 14.0576 3.47713 14.112C3.47713 14.112 3.47713 14.112 3.47713 14.1256V16.18C3.47713 16.2072 3.46352 16.2344 3.44992 16.2616C3.43631 16.2888 3.4091 16.2888 3.38189 16.2888H2.81048C2.78327 16.2888 2.75606 16.2752 2.72885 16.2616C2.70164 16.2344 2.68804 16.2072 2.68804 16.18ZM1.79011 15.1596C1.79011 15.282 1.83093 15.4045 1.92616 15.4861C2.10303 15.663 2.38873 15.663 2.56559 15.4997C2.56559 15.4997 2.56559 15.4997 2.5792 15.4861C2.75606 15.2956 2.75606 15.0099 2.5792 14.8331C2.40233 14.6562 2.11663 14.6562 1.93977 14.8195C1.93977 14.8195 1.93977 14.8195 1.92616 14.8331C1.83093 14.9147 1.77651 15.0372 1.79011 15.1596Z" fill="#009DFF"/>
<path d="M4.87837 15.6497C4.96 15.6497 5.05523 15.6225 5.10965 15.5544C5.16407 15.4864 5.19128 15.3912 5.19128 15.296V14.1123C5.19128 14.0851 5.20489 14.0579 5.2321 14.0443C5.25931 14.0307 5.28652 14.0171 5.31373 14.0171H5.88513C5.91234 14.0171 5.93955 14.0307 5.96676 14.0443C5.99397 14.0579 5.99397 14.0851 6.00758 14.1123V15.4048C6.00758 15.6633 5.89874 15.9218 5.70827 16.085C5.47699 16.2755 5.19128 16.3707 4.90558 16.3571C4.60627 16.3707 4.32056 16.2755 4.08928 16.085C3.88521 15.9218 3.77637 15.6633 3.77637 15.4048V14.1123C3.77637 14.0851 3.78997 14.0579 3.80358 14.0443C3.83079 14.0307 3.858 14.0171 3.88521 14.0171H4.45661C4.48382 14.0171 4.51103 14.0307 4.53824 14.0443C4.56545 14.0579 4.57906 14.0851 4.57906 14.1123V15.296C4.57906 15.3912 4.60627 15.4864 4.66069 15.5544C4.7015 15.6225 4.78313 15.6633 4.87837 15.6497Z" fill="#009DFF"/>
<path d="M7.28637 16.3296C7.06869 16.3432 6.86462 16.2751 6.68775 16.1391C6.5381 16.003 6.45647 15.799 6.47007 15.5949V14.6698H6.23879C6.21158 14.6698 6.18437 14.6562 6.17076 14.6425C6.15716 14.6153 6.14355 14.5881 6.14355 14.5609V14.3977C6.14355 14.3568 6.14355 14.316 6.15716 14.2752C6.15716 14.2616 6.17076 14.2208 6.19797 14.2072L6.75578 13.5814C6.78299 13.5405 6.8238 13.4997 6.87822 13.4725C6.91904 13.4589 6.95985 13.4453 7.00067 13.4453H7.15032C7.17753 13.4453 7.20474 13.4589 7.23195 13.4725C7.24556 13.4861 7.25916 13.5133 7.25916 13.5542V14.0167H7.76254C7.78975 14.0167 7.81696 14.0303 7.84417 14.0439C7.87138 14.0575 7.87138 14.0847 7.87138 14.1256V14.5609C7.87138 14.5881 7.85778 14.6153 7.84417 14.6425C7.83057 14.6698 7.78975 14.6698 7.76254 14.6698H7.25916V15.4316C7.25916 15.4861 7.27277 15.5269 7.29998 15.5677C7.32718 15.5949 7.3816 15.6221 7.42242 15.6085C7.44963 15.6085 7.49044 15.5949 7.51765 15.5949C7.55847 15.5813 7.59928 15.5541 7.6401 15.5405C7.66731 15.5133 7.70812 15.5133 7.74894 15.5133C7.78975 15.5269 7.81696 15.5541 7.83057 15.5813L8.03464 15.8806C8.06185 15.9078 8.06185 15.9486 8.06185 15.9894C8.06185 16.0166 8.04825 16.0575 8.02104 16.0847C7.9258 16.1663 7.81696 16.2343 7.69452 16.2751C7.57207 16.316 7.42242 16.3296 7.28637 16.3296Z" fill="#009DFF"/>
<path d="M9.38163 14.6427C9.28639 14.6427 9.19116 14.6699 9.10953 14.7379C9.0415 14.806 9.00069 14.9148 9.00069 15.01V16.1801C9.00069 16.2345 8.95987 16.2889 8.90546 16.2889C8.90546 16.2889 8.90545 16.2889 8.89185 16.2889H8.30684C8.25242 16.2889 8.198 16.2481 8.198 16.1937C8.198 16.1937 8.198 16.1937 8.198 16.1801V13.187C8.198 13.1325 8.23881 13.0781 8.29323 13.0781C8.29323 13.0781 8.29323 13.0781 8.30684 13.0781H8.89185C8.94627 13.0781 9.00069 13.1189 9.00069 13.1734C9.00069 13.1734 9.00069 13.1734 9.00069 13.187V14.289C9.06871 14.1801 9.16395 14.0985 9.27279 14.0441C9.39523 13.9897 9.51768 13.9624 9.65373 13.9624C9.89862 13.9488 10.1299 14.0441 10.3068 14.2209C10.47 14.4386 10.5517 14.6971 10.5244 14.9556V16.1801C10.5244 16.2345 10.4836 16.2889 10.4292 16.2889C10.4292 16.2889 10.4292 16.2889 10.4156 16.2889H9.83059C9.77617 16.2889 9.72175 16.2481 9.72175 16.1937C9.72175 16.1937 9.72175 16.1937 9.72175 16.1801V15.01C9.73536 14.8196 9.5857 14.6563 9.39523 14.6427C9.40884 14.6427 9.39523 14.6427 9.38163 14.6427Z" fill="#009DFF"/>
<path d="M10.7285 15.1597C10.7285 14.8332 10.851 14.5338 11.0958 14.3162C11.5992 13.8536 12.3747 13.8536 12.8645 14.3162C13.3271 14.7515 13.3543 15.4998 12.9189 15.9624C12.9053 15.976 12.8917 15.9896 12.8645 16.0168C12.3611 16.4794 11.5856 16.4794 11.0958 16.0168C10.8646 15.7855 10.7285 15.4726 10.7285 15.1597ZM11.5312 15.1597C11.5312 15.2821 11.572 15.4046 11.6673 15.4862C11.8441 15.6631 12.1298 15.6631 12.3067 15.4998C12.3067 15.4998 12.3067 15.4998 12.3203 15.4862C12.4972 15.2957 12.4972 15.01 12.3203 14.8332C12.1434 14.6563 11.8577 14.6563 11.6809 14.8195C11.6809 14.8195 11.6809 14.8195 11.6673 14.8332C11.572 14.9148 11.5312 15.0372 11.5312 15.1597Z" fill="#009DFF"/>
<path d="M13.572 14.0168H13.9801C14.0209 14.0168 14.0618 14.0304 14.1026 14.044C14.1434 14.0712 14.1706 14.0985 14.1842 14.1393L14.2522 14.2753C14.3202 14.1801 14.4155 14.1121 14.5107 14.044C14.5923 13.9896 14.674 13.9624 14.7692 13.9624C14.8508 13.9624 14.9189 13.976 14.9733 14.0168C15.0277 14.0576 15.0413 14.1257 15.0277 14.1937L14.9597 14.7107C14.9597 14.7651 14.9325 14.8059 14.9053 14.8467C14.878 14.8739 14.8236 14.8875 14.7828 14.8875C14.7692 14.8875 14.742 14.8875 14.7284 14.8875C14.7148 14.8875 14.6876 14.8739 14.6468 14.8739C14.606 14.8603 14.5787 14.8467 14.5515 14.8467C14.5379 14.8467 14.5107 14.8467 14.4971 14.8467C14.4291 14.8467 14.3747 14.8603 14.3202 14.9147C14.2794 14.9556 14.2522 15.0236 14.2522 15.0916V16.18C14.2522 16.2072 14.2386 16.2344 14.225 16.248C14.1978 16.2616 14.1706 16.2752 14.1434 16.2752H13.572C13.5448 16.2752 13.5176 16.2616 13.4903 16.248C13.4767 16.2344 13.4631 16.2072 13.4631 16.1664V14.1257C13.4631 14.0985 13.4767 14.0712 13.4903 14.044C13.504 14.0304 13.5448 14.0168 13.572 14.0168Z" fill="#009DFF"/>
<path d="M16.0344 13.432C16.0344 13.5408 15.9936 13.6496 15.8984 13.7313C15.7215 13.8945 15.4494 13.8945 15.2725 13.7313C15.1909 13.6496 15.1365 13.5408 15.1365 13.432C15.1365 13.3231 15.1773 13.2007 15.2725 13.1326C15.4494 12.9558 15.7215 12.9558 15.8984 13.1326C15.9936 13.2007 16.0344 13.3095 16.0344 13.432Z" fill="#009DFF"/>
<path d="M18.1976 14.643L17.2997 15.6089H18.1976C18.2521 15.6089 18.3065 15.6498 18.3065 15.7042V16.1667C18.3065 16.2212 18.2657 16.2756 18.2112 16.2756H16.3474C16.3202 16.2756 16.2929 16.262 16.2657 16.2484C16.2385 16.2348 16.2385 16.2076 16.2385 16.1667V15.7858C16.2385 15.7586 16.2385 15.745 16.2521 15.7178C16.2657 15.6906 16.2793 15.677 16.2929 15.6634L17.2045 14.6838H16.3882C16.3338 14.6838 16.2793 14.6294 16.2793 14.575V14.1396C16.2793 14.0852 16.3338 14.0308 16.3882 14.0308H18.1568C18.184 14.0308 18.2112 14.0444 18.2385 14.058C18.2657 14.0852 18.2657 14.1124 18.2657 14.1396V14.5205C18.2657 14.5477 18.2657 14.5614 18.2521 14.5886C18.2248 14.6022 18.2112 14.6294 18.1976 14.643Z" fill="#009DFF"/>
<path d="M20.6328 15.9216C20.524 16.0576 20.3879 16.1801 20.2247 16.2345C20.0342 16.3161 19.8301 16.3569 19.626 16.3569C19.2995 16.3705 18.973 16.2481 18.7417 16.0168C18.5104 15.7991 18.388 15.4862 18.388 15.1733C18.3744 14.8468 18.4968 14.5339 18.7145 14.3026C18.9458 14.0713 19.2451 13.9488 19.5716 13.9625C19.8845 13.9488 20.1838 14.0713 20.4015 14.289C20.6056 14.5066 20.728 14.7924 20.7144 15.0917V15.2277C20.7144 15.2685 20.7008 15.3093 20.6872 15.3502C20.66 15.3774 20.6328 15.391 20.592 15.391H19.1771C19.1907 15.4862 19.2451 15.5814 19.3267 15.6359C19.4084 15.7039 19.5172 15.7311 19.626 15.7311C19.6941 15.7311 19.7757 15.7175 19.8437 15.6903C19.9117 15.6631 19.9798 15.6086 20.0342 15.5542C20.075 15.4998 20.1566 15.4998 20.2111 15.5406L20.592 15.7855C20.6192 15.7991 20.6328 15.8263 20.6328 15.8535C20.66 15.8671 20.66 15.8944 20.6328 15.9216ZM19.2179 14.8604H19.9662C19.9526 14.7787 19.9117 14.6971 19.8437 14.6427C19.7757 14.5883 19.6941 14.5611 19.5988 14.5611C19.5172 14.5611 19.422 14.5883 19.3539 14.6427C19.2859 14.6971 19.2315 14.7787 19.2179 14.8604Z" fill="#009DFF"/>
<path d="M21.9255 15.8398C21.9255 16.1255 21.6942 16.3432 21.4221 16.3432C21.15 16.3432 20.9187 16.1119 20.9187 15.8398C20.9187 15.5541 21.15 15.3364 21.4221 15.3364C21.6942 15.3364 21.9119 15.5677 21.9255 15.8398Z" fill="#009DFF"/>
<path d="M23.3267 14.6425C23.2315 14.6425 23.1362 14.6697 23.0546 14.7377C22.9866 14.8057 22.9458 14.9146 22.9458 15.0098V16.1798C22.9458 16.2342 22.9049 16.2887 22.8505 16.2887C22.8505 16.2887 22.8505 16.2887 22.8369 16.2887H22.2519C22.1975 16.2887 22.1431 16.2479 22.1431 16.1934C22.1431 16.1934 22.1431 16.1934 22.1431 16.1798V14.1255C22.1431 14.0711 22.1839 14.0166 22.2383 14.0166C22.2383 14.0166 22.2383 14.0166 22.2519 14.0166H22.8369C22.8913 14.0166 22.9458 14.0575 22.9458 14.1119C22.9458 14.1119 22.9458 14.1119 22.9458 14.1255V14.2887C23.0138 14.1799 23.109 14.0983 23.2179 14.0438C23.3403 13.9894 23.4627 13.9622 23.5988 13.9622C23.8437 13.9486 24.075 14.0438 24.2518 14.2207C24.4151 14.4384 24.4967 14.6969 24.4695 14.9554V16.1798C24.4695 16.2342 24.4287 16.2887 24.3743 16.2887C24.3743 16.2887 24.3743 16.2887 24.3607 16.2887H23.7757C23.7212 16.2887 23.6668 16.2479 23.6668 16.1934C23.6668 16.1934 23.6668 16.1934 23.6668 16.1798V15.0098C23.6804 14.8193 23.5308 14.6561 23.3403 14.6425C23.3539 14.6425 23.3403 14.6425 23.3267 14.6425Z" fill="#009DFF"/>
<path d="M26.9184 15.9216C26.8096 16.0576 26.6736 16.1801 26.5103 16.2345C26.3198 16.3161 26.1158 16.3569 25.9117 16.3569C25.5852 16.3705 25.2586 16.2481 25.0274 16.0168C24.7961 15.7991 24.6736 15.4862 24.6736 15.1733C24.66 14.8468 24.7825 14.5339 25.0002 14.3026C25.2314 14.0713 25.5307 13.9488 25.8573 13.9625C26.1702 13.9488 26.4695 14.0713 26.6872 14.289C26.8912 14.5066 27.0137 14.7924 27.0001 15.0917V15.2277C27.0001 15.2685 26.9865 15.3093 26.9729 15.3502C26.9457 15.3774 26.9184 15.391 26.8776 15.391H25.4763C25.4899 15.4862 25.5443 15.5814 25.626 15.6359C25.7076 15.7039 25.8164 15.7311 25.9253 15.7311C25.9933 15.7311 26.0749 15.7175 26.143 15.6903C26.211 15.6631 26.279 15.6086 26.3334 15.5542C26.3743 15.4998 26.4559 15.4998 26.5103 15.5406L26.8912 15.7855C26.9184 15.7991 26.9321 15.8263 26.9321 15.8535C26.9321 15.8671 26.9321 15.8944 26.9184 15.9216ZM25.4899 14.8604H26.2382C26.2246 14.7787 26.1838 14.6971 26.1158 14.6427C26.0477 14.5883 25.9661 14.5611 25.8709 14.5611C25.7892 14.5611 25.694 14.5883 25.626 14.6427C25.558 14.6971 25.5035 14.7787 25.4899 14.8604Z" fill="#009DFF"/>
<path d="M28.2244 16.3295C28.0067 16.3431 27.8026 16.2751 27.6257 16.139C27.4761 16.003 27.3945 15.7989 27.4081 15.5948V14.6697H27.1768C27.1496 14.6697 27.1224 14.6561 27.1088 14.6425C27.0951 14.6153 27.0815 14.5881 27.0815 14.5609V14.3976C27.0815 14.3568 27.0815 14.316 27.0951 14.2751C27.1088 14.2479 27.1224 14.2207 27.1496 14.1935L27.7074 13.5677C27.7346 13.5269 27.7754 13.4861 27.8298 13.4589C27.8706 13.4452 27.9114 13.4316 27.9523 13.4316H28.1019C28.1291 13.4316 28.1563 13.4452 28.1835 13.4589C28.1971 13.4725 28.2108 13.4997 28.2108 13.5405V14.003H28.7141C28.7413 14.003 28.7686 14.0167 28.7958 14.0303C28.823 14.0439 28.823 14.0711 28.823 14.1119V14.5472C28.823 14.5745 28.8094 14.6017 28.7958 14.6289C28.7822 14.6561 28.7413 14.6561 28.7141 14.6561H28.1971V15.418C28.1971 15.4724 28.2108 15.5132 28.238 15.554C28.2652 15.5812 28.3196 15.6084 28.3604 15.5948C28.3876 15.5948 28.4284 15.5812 28.4556 15.5812C28.4965 15.5676 28.5373 15.5404 28.5781 15.5268C28.6053 15.4996 28.6461 15.4996 28.6869 15.4996C28.7277 15.5132 28.755 15.5404 28.7686 15.5676L28.9726 15.8669C28.9998 15.8941 28.9998 15.935 28.9998 15.9758C28.9998 16.003 28.9862 16.0438 28.959 16.071C28.8638 16.1526 28.755 16.2207 28.6325 16.2615C28.5101 16.3159 28.374 16.3295 28.2244 16.3295Z" fill="#009DFF"/>
<path d="M15.98 14.1259V16.1803C15.98 16.2075 15.9664 16.2347 15.9528 16.2619C15.9256 16.2891 15.8984 16.2891 15.8712 16.2891H15.2998C15.2725 16.2891 15.2453 16.2755 15.2181 16.2619C15.2045 16.2483 15.1909 16.2211 15.1909 16.1803V14.1259C15.1909 14.0987 15.2045 14.0715 15.2181 14.0443C15.2453 14.0171 15.2725 14.0171 15.2998 14.0171H15.8712C15.8984 14.0171 15.9256 14.0307 15.9528 14.0443C15.98 14.0715 15.98 14.0987 15.98 14.1259Z" fill="#009DFF"/>
</svg>
