<svg width="30" height="30" viewBox="0 0 30 30" fill="none" xmlns="http://www.w3.org/2000/svg">
<path d="M5.32495 13.7748V19.9873C5.32495 22.2623 5.32495 22.2623 7.47495 23.7123L13.3874 27.1248C14.2749 27.6373 15.7249 27.6373 16.6124 27.1248L22.5249 23.7123C24.6749 22.2623 24.6749 22.2623 24.6749 19.9873V13.7748C24.6749 11.4998 24.6749 11.4998 22.5249 10.0498L16.6124 6.6373C15.7249 6.1248 14.2749 6.1248 13.3874 6.6373L7.47495 10.0498C5.32495 11.4998 5.32495 11.4998 5.32495 13.7748Z" stroke="#009DFF" stroke-width="1.2" stroke-linecap="round" stroke-linejoin="round"/>
<path d="M21.875 9.5375V6.25C21.875 3.75 20.625 2.5 18.125 2.5H11.875C9.375 2.5 8.125 3.75 8.125 6.25V9.45" stroke="#009DFF" stroke-width="1.2" stroke-linecap="round" stroke-linejoin="round"/>
<path d="M15.7874 13.7377L16.4999 14.8502C16.6124 15.0252 16.8624 15.2002 17.0499 15.2502L18.3249 15.5752C19.1124 15.7752 19.3249 16.4502 18.8124 17.0752L17.9749 18.0877C17.8499 18.2502 17.7499 18.5377 17.7624 18.7377L17.8374 20.0502C17.8874 20.8627 17.3124 21.2752 16.5624 20.9752L15.3374 20.4877C15.1499 20.4127 14.8374 20.4127 14.6499 20.4877L13.4249 20.9752C12.6749 21.2752 12.1 20.8502 12.15 20.0502L12.225 18.7377C12.2375 18.5377 12.1375 18.2377 12.0125 18.0877L11.175 17.0752C10.6625 16.4502 10.875 15.7752 11.6625 15.5752L12.9374 15.2502C13.1374 15.2002 13.3874 15.0127 13.4874 14.8502L14.1999 13.7377C14.6499 13.0627 15.3499 13.0627 15.7874 13.7377Z" stroke="#009DFF" stroke-width="1.2" stroke-linecap="round" stroke-linejoin="round"/>
</svg>
