<svg width="30" height="30" viewBox="0 0 30 30" fill="none" xmlns="http://www.w3.org/2000/svg">
<path d="M6.31034 6C5.67793 6 5.6731 6.95684 6.31034 6.94737H27.5517C27.8279 6.94737 28.0345 7.15011 28.0345 7.42105V19.7368C28.0345 20.3621 29 20.3621 29 19.7368V7.42105C29 6.64232 28.3454 6 27.5517 6H6.31034ZM4.37931 7.89474C3.74786 7.89474 3.74786 8.84211 4.37931 8.84211H25.6207C25.8968 8.84211 26.1034 9.04484 26.1034 9.31579V21.6316C26.1034 22.2616 27.0786 22.2568 27.069 21.6316V9.31579C27.069 8.53705 26.4143 7.89474 25.6207 7.89474H4.37931ZM2.44828 9.78947C1.65462 9.78947 1 10.4318 1 11.2105V22.5789C1 23.3577 1.65462 24 2.44828 24H23.6897C24.4833 24 25.1379 23.3577 25.1379 22.5789V11.2105C25.1379 10.4318 24.4833 9.78947 23.6897 9.78947H2.44828ZM2.44828 10.7368H23.6897C23.9658 10.7368 24.1724 10.9396 24.1724 11.2105V22.5789C24.1724 22.8499 23.9658 23.0526 23.6897 23.0526H2.44828C2.17214 23.0526 1.96552 22.8499 1.96552 22.5789V11.2105C1.96552 10.9396 2.17214 10.7368 2.44828 10.7368ZM3.41379 11.6842C3.14731 11.6842 2.93103 11.8964 2.93103 12.1579V14.0526C2.93103 14.6893 3.89655 14.6741 3.89655 14.0526V12.6316H5.34483C5.99366 12.6316 5.97821 11.6842 5.34483 11.6842H3.41379ZM13.069 11.6842C10.1415 11.6842 7.75862 14.0223 7.75862 16.8947C7.75862 19.7672 10.1415 22.1053 13.069 22.1053C15.9964 22.1053 18.3793 19.7672 18.3793 16.8947C18.3793 14.0223 15.9964 11.6842 13.069 11.6842ZM20.7931 11.6842C20.1597 11.6842 20.1443 12.6316 20.7931 12.6316H22.2414V14.0526C22.2414 14.6741 23.2069 14.6893 23.2069 14.0526V12.1579C23.2069 11.8964 22.9906 11.6842 22.7241 11.6842H20.7931ZM13.069 12.6316C15.4731 12.6316 17.4138 14.5358 17.4138 16.8947C17.4138 19.2537 15.4731 21.1579 13.069 21.1579C10.6648 21.1579 8.72414 19.2537 8.72414 16.8947C8.72414 14.5358 10.6648 12.6316 13.069 12.6316ZM13.069 13.5789C12.8015 13.5789 12.5862 13.7902 12.5862 14.0526V14.6154C12.0281 14.8143 11.6207 15.3354 11.6207 15.9474C11.6207 16.7242 12.2772 17.3684 13.069 17.3684C13.3393 17.3684 13.5517 17.5693 13.5517 17.8421C13.5517 18.1149 13.3393 18.3158 13.069 18.3158H12.1034C11.7771 18.3111 11.6207 18.5507 11.6207 18.7895C11.6207 19.0282 11.7771 19.2679 12.1034 19.2632H12.5862V19.7368C12.5862 19.9993 12.8015 20.2105 13.069 20.2105C13.3364 20.2105 13.5517 19.9993 13.5517 19.7368V19.1741C14.1098 18.9752 14.5172 18.4541 14.5172 17.8421C14.5172 17.0653 13.8607 16.4211 13.069 16.4211C12.7986 16.4211 12.5862 16.2202 12.5862 15.9474C12.5862 15.6745 12.7986 15.4737 13.069 15.4737H14.0345C14.3608 15.4784 14.5172 15.2387 14.5172 15C14.5172 14.7613 14.3608 14.5216 14.0345 14.5263H13.5517V14.0526C13.5517 13.7902 13.3364 13.5789 13.069 13.5789ZM3.41379 19.2651C3.17241 19.2632 2.93103 19.4185 2.93103 19.7368V21.6316C2.93103 21.8931 3.14731 22.1053 3.41379 22.1053H5.34483C5.97821 22.1053 5.99366 21.1579 5.34483 21.1579H3.89655V19.7368C3.89655 19.4261 3.65517 19.2669 3.41379 19.2651ZM22.7241 19.2651C22.4828 19.2669 22.2414 19.4261 22.2414 19.7368V21.1579H20.7931C20.1443 21.1579 20.1597 22.1053 20.7931 22.1053H22.7241C22.9906 22.1053 23.2069 21.8931 23.2069 21.6316V19.7368C23.2069 19.4185 22.9655 19.2632 22.7241 19.2651Z" fill="#009DFF"/>
</svg>
