<svg width="30" height="30" viewBox="0 0 30 30" fill="none" xmlns="http://www.w3.org/2000/svg">
<path d="M28.494 20.9521L28.4888 20.9518H7.5783C7.29885 20.9518 7.07228 20.7253 7.07228 20.4458C7.07228 20.1663 7.29885 19.9398 7.5783 19.9398H27.988V16.9036H2.01205V19.9398H5.55421C5.83366 19.9398 6.06023 20.1663 6.06023 20.4458C6.06023 20.7253 5.83366 20.9518 5.55421 20.9518H2.01205V22.4699C2.01205 23.3069 2.69302 23.988 3.53012 23.988H26.4699C27.3069 23.988 27.988 23.3069 27.988 22.4699C27.988 22.1904 28.2145 21.9639 28.494 21.9639C28.7735 21.9639 29 22.1904 29 22.4699C29 23.865 27.865 25 26.4699 25H3.53012C2.13498 25.0001 1 23.8651 1 22.4699V8.97591C1 7.58078 2.13498 6.44579 3.53012 6.44579H26.4699C27.865 6.44579 29 7.58078 29 8.97591V20.4458C29 20.7253 28.7735 20.9521 28.494 20.9521ZM27.988 8.97596C27.988 8.13892 27.3069 7.45789 26.4699 7.45789H3.53012C2.69302 7.45789 2.01205 8.13892 2.01205 8.97596V15.8916H27.988V8.97596Z" fill="#009DFF"/>
<path d="M5 11H5.66667C5.75507 11 5.83986 10.9649 5.90237 10.9024C5.96488 10.8399 6 10.7551 6 10.6667C6 10.5783 5.96488 10.4935 5.90237 10.431C5.83986 10.3685 5.75507 10.3333 5.66667 10.3333H5.33333C5.33333 10.2449 5.29821 10.1601 5.2357 10.0976C5.17319 10.0351 5.08841 10 5 10C4.91159 10 4.82681 10.0351 4.7643 10.0976C4.70179 10.1601 4.66667 10.2449 4.66667 10.3333V10.3933C4.44621 10.4733 4.26088 10.6283 4.14308 10.831C4.02527 11.0338 3.98249 11.2716 4.0222 11.5027C4.06191 11.7338 4.1816 11.9437 4.36034 12.0955C4.53907 12.2473 4.76549 12.3315 5 12.3333C5.08841 12.3333 5.17319 12.3685 5.2357 12.431C5.29821 12.4935 5.33333 12.5783 5.33333 12.6667C5.33333 12.7551 5.29821 12.8399 5.2357 12.9024C5.17319 12.9649 5.08841 13 5 13H4.33333C4.24493 13 4.16014 13.0351 4.09763 13.0976C4.03512 13.1601 4 13.2449 4 13.3333C4 13.4217 4.03512 13.5065 4.09763 13.569C4.16014 13.6315 4.24493 13.6667 4.33333 13.6667H4.66667C4.66667 13.7551 4.70179 13.8399 4.7643 13.9024C4.82681 13.9649 4.91159 14 5 14C5.08841 14 5.17319 13.9649 5.2357 13.9024C5.29821 13.8399 5.33333 13.7551 5.33333 13.6667V13.6067C5.55379 13.5267 5.73912 13.3717 5.85692 13.169C5.97473 12.9662 6.01751 12.7284 5.9778 12.4973C5.93809 12.2662 5.8184 12.0563 5.63966 11.9045C5.46093 11.7527 5.23451 11.6685 5 11.6667C4.91159 11.6667 4.82681 11.6315 4.7643 11.569C4.70179 11.5065 4.66667 11.4217 4.66667 11.3333C4.66667 11.2449 4.70179 11.1601 4.7643 11.0976C4.82681 11.0351 4.91159 11 5 11Z" fill="#009DFF"/>
<rect x="20" y="10" width="6" height="4" rx="1" fill="#009DFF"/>
</svg>
