<svg width="30" height="30" viewBox="0 0 30 30" fill="none" xmlns="http://www.w3.org/2000/svg">
<path d="M13.2689 13.796L12.2789 14.0179C12.2517 14.0239 12.2412 14.0405 12.2472 14.068L12.5238 15.3041C12.5298 15.3316 12.5464 15.3417 12.5735 15.3357L13.5643 15.1142C13.9878 15.0196 14.2169 14.696 14.128 14.2996C14.0375 13.8965 13.6931 13.7014 13.2689 13.796Z" fill="#009DFF"/>
<mask id="path-2-inside-1_6004_6933" fill="white">
<path d="M27.6137 15.5338C27.4826 15.1902 27.4826 14.8101 27.6137 14.4661L28.6784 11.671C28.9301 11.0117 28.6874 10.2673 28.0975 9.88187L25.5929 8.24639C25.2847 8.04519 25.0617 7.73741 24.9652 7.38254L24.1838 4.49477C23.9992 3.81434 23.3656 3.35398 22.6618 3.38898L19.6742 3.53817C19.3065 3.55627 18.9456 3.43908 18.6585 3.20813L16.3293 1.33202C15.7801 0.889326 14.9972 0.889326 14.4479 1.33202L12.1188 3.20819C11.8317 3.43913 11.4708 3.55633 11.1031 3.53823L8.11549 3.38904C7.41177 3.35404 6.77805 3.8144 6.59343 4.49482L5.81216 7.38254C5.71569 7.73741 5.49268 8.04519 5.18451 8.24639L2.67993 9.88187C2.08996 10.2673 1.84731 11.0117 2.09822 11.671L3.16364 14.4661C3.29473 14.8101 3.29473 15.1902 3.16364 15.5338L2.09822 18.3293C1.84731 18.9878 2.08991 19.733 2.67993 20.1185L5.18451 21.7539C5.49268 21.9547 5.71569 22.2622 5.81216 22.6174L6.59354 25.5048C6.77816 26.1859 7.41183 26.646 8.1156 26.6109L11.1032 26.4617C11.471 26.4432 11.8318 26.5608 12.1189 26.7917L14.448 28.6683C14.9973 29.1106 15.7802 29.1106 16.3295 28.6683L18.6585 26.7917C18.9456 26.5608 19.3065 26.4432 19.6742 26.4617L22.6618 26.6109C23.3656 26.6459 23.9992 26.1859 24.1838 25.5048L24.9652 22.6174C25.0617 22.2622 25.2847 21.9547 25.5929 21.7539L28.0975 20.1185C28.6874 19.733 28.9301 18.9878 28.6784 18.3293L27.6137 15.5338ZM10.5508 16.4911L8.75452 16.8928C8.72739 16.8988 8.71684 16.9154 8.72362 16.9433L9.13126 18.7667C9.14034 18.8074 9.11846 18.8413 9.07777 18.8504L8.40867 19.0003C8.36799 19.0094 8.33408 18.9879 8.32505 18.9472L7.31607 14.4391C7.30705 14.398 7.32887 14.3645 7.36955 14.3555L10.2788 13.7045C10.3203 13.6954 10.3534 13.7165 10.3632 13.7576L10.4943 14.3449C10.5034 14.3861 10.4823 14.4192 10.4408 14.4286L8.30991 14.9052C8.28278 14.9112 8.27228 14.9282 8.2783 14.9557L8.54277 16.1371C8.54884 16.1643 8.56541 16.1748 8.59253 16.1688L10.3889 15.7672C10.4303 15.7577 10.4642 15.7792 10.4732 15.8199L10.6044 16.4072C10.6134 16.4482 10.5923 16.4817 10.5508 16.4911ZM15.7032 17.3678L14.9452 17.5377C14.891 17.5498 14.8586 17.5355 14.8276 17.4921L13.5347 15.8808L12.7352 16.0594C12.7081 16.0655 12.6976 16.0824 12.7036 16.1099L13.0999 17.8787C13.109 17.9197 13.0871 17.9533 13.0465 17.9623L12.3773 18.1123C12.3359 18.1213 12.3028 18.0998 12.2937 18.0592L11.2848 13.551C11.2757 13.5103 11.2968 13.4764 11.3383 13.4674L13.1346 13.0657C13.9883 12.8743 14.7433 13.3008 14.9264 14.1202C15.0628 14.7283 14.8194 15.2776 14.3311 15.5951L15.7319 17.2683C15.7696 17.3102 15.7515 17.3573 15.7032 17.3678ZM19.5144 16.5153L16.6052 17.1663C16.5645 17.1753 16.5305 17.1542 16.5215 17.1132L15.5134 12.605C15.5036 12.564 15.5254 12.5308 15.5661 12.5218L18.4753 11.8708C18.5168 11.8613 18.5499 11.8828 18.5597 11.9235L18.6908 12.5112C18.6999 12.5519 18.6788 12.585 18.6373 12.5944L16.5065 13.071C16.4794 13.0774 16.4689 13.094 16.4749 13.1215L16.7288 14.2551C16.7348 14.2826 16.7514 14.2932 16.7785 14.2872L18.5748 13.8852C18.6163 13.8761 18.6494 13.8973 18.6593 13.9383L18.7903 14.5256C18.7994 14.5667 18.7783 14.6002 18.7369 14.6093L16.9405 15.0112C16.9134 15.0173 16.9029 15.0339 16.9089 15.0613L17.1719 16.236C17.1779 16.2631 17.1945 16.2741 17.2216 16.2681L19.3525 15.7911C19.394 15.7821 19.4279 15.8032 19.4369 15.8442L19.5681 16.4316C19.5769 16.4723 19.5558 16.5062 19.5144 16.5153ZM23.4084 15.6442L20.4985 16.2952C20.4578 16.3042 20.4239 16.2831 20.4148 16.242L19.4067 11.7339C19.3969 11.6929 19.4187 11.6597 19.4594 11.6503L22.3694 10.9996C22.4101 10.9902 22.4432 11.0113 22.453 11.0524L22.5841 11.6397C22.5932 11.6808 22.5721 11.7139 22.5314 11.7234L20.4006 12.2C20.3727 12.206 20.3622 12.2229 20.3682 12.2504L20.6221 13.3841C20.6281 13.4116 20.6447 13.4221 20.6726 13.4161L22.4689 13.0141C22.5096 13.0047 22.5427 13.0262 22.5526 13.0673L22.6837 13.6542C22.6927 13.6957 22.6716 13.7288 22.6309 13.7382L20.8346 14.1402C20.8067 14.1462 20.7962 14.1628 20.8022 14.1899L21.0652 15.3646C21.0712 15.3921 21.0878 15.403 21.1157 15.3967L23.2466 14.9201C23.2872 14.9111 23.3211 14.9322 23.3302 14.9732L23.4614 15.5606C23.4702 15.6013 23.4491 15.6352 23.4084 15.6442Z"/>
</mask>
<path d="M27.6137 15.5338C27.4826 15.1902 27.4826 14.8101 27.6137 14.4661L28.6784 11.671C28.9301 11.0117 28.6874 10.2673 28.0975 9.88187L25.5929 8.24639C25.2847 8.04519 25.0617 7.73741 24.9652 7.38254L24.1838 4.49477C23.9992 3.81434 23.3656 3.35398 22.6618 3.38898L19.6742 3.53817C19.3065 3.55627 18.9456 3.43908 18.6585 3.20813L16.3293 1.33202C15.7801 0.889326 14.9972 0.889326 14.4479 1.33202L12.1188 3.20819C11.8317 3.43913 11.4708 3.55633 11.1031 3.53823L8.11549 3.38904C7.41177 3.35404 6.77805 3.8144 6.59343 4.49482L5.81216 7.38254C5.71569 7.73741 5.49268 8.04519 5.18451 8.24639L2.67993 9.88187C2.08996 10.2673 1.84731 11.0117 2.09822 11.671L3.16364 14.4661C3.29473 14.8101 3.29473 15.1902 3.16364 15.5338L2.09822 18.3293C1.84731 18.9878 2.08991 19.733 2.67993 20.1185L5.18451 21.7539C5.49268 21.9547 5.71569 22.2622 5.81216 22.6174L6.59354 25.5048C6.77816 26.1859 7.41183 26.646 8.1156 26.6109L11.1032 26.4617C11.471 26.4432 11.8318 26.5608 12.1189 26.7917L14.448 28.6683C14.9973 29.1106 15.7802 29.1106 16.3295 28.6683L18.6585 26.7917C18.9456 26.5608 19.3065 26.4432 19.6742 26.4617L22.6618 26.6109C23.3656 26.6459 23.9992 26.1859 24.1838 25.5048L24.9652 22.6174C25.0617 22.2622 25.2847 21.9547 25.5929 21.7539L28.0975 20.1185C28.6874 19.733 28.9301 18.9878 28.6784 18.3293L27.6137 15.5338ZM10.5508 16.4911L8.75452 16.8928C8.72739 16.8988 8.71684 16.9154 8.72362 16.9433L9.13126 18.7667C9.14034 18.8074 9.11846 18.8413 9.07777 18.8504L8.40867 19.0003C8.36799 19.0094 8.33408 18.9879 8.32505 18.9472L7.31607 14.4391C7.30705 14.398 7.32887 14.3645 7.36955 14.3555L10.2788 13.7045C10.3203 13.6954 10.3534 13.7165 10.3632 13.7576L10.4943 14.3449C10.5034 14.3861 10.4823 14.4192 10.4408 14.4286L8.30991 14.9052C8.28278 14.9112 8.27228 14.9282 8.2783 14.9557L8.54277 16.1371C8.54884 16.1643 8.56541 16.1748 8.59253 16.1688L10.3889 15.7672C10.4303 15.7577 10.4642 15.7792 10.4732 15.8199L10.6044 16.4072C10.6134 16.4482 10.5923 16.4817 10.5508 16.4911ZM15.7032 17.3678L14.9452 17.5377C14.891 17.5498 14.8586 17.5355 14.8276 17.4921L13.5347 15.8808L12.7352 16.0594C12.7081 16.0655 12.6976 16.0824 12.7036 16.1099L13.0999 17.8787C13.109 17.9197 13.0871 17.9533 13.0465 17.9623L12.3773 18.1123C12.3359 18.1213 12.3028 18.0998 12.2937 18.0592L11.2848 13.551C11.2757 13.5103 11.2968 13.4764 11.3383 13.4674L13.1346 13.0657C13.9883 12.8743 14.7433 13.3008 14.9264 14.1202C15.0628 14.7283 14.8194 15.2776 14.3311 15.5951L15.7319 17.2683C15.7696 17.3102 15.7515 17.3573 15.7032 17.3678ZM19.5144 16.5153L16.6052 17.1663C16.5645 17.1753 16.5305 17.1542 16.5215 17.1132L15.5134 12.605C15.5036 12.564 15.5254 12.5308 15.5661 12.5218L18.4753 11.8708C18.5168 11.8613 18.5499 11.8828 18.5597 11.9235L18.6908 12.5112C18.6999 12.5519 18.6788 12.585 18.6373 12.5944L16.5065 13.071C16.4794 13.0774 16.4689 13.094 16.4749 13.1215L16.7288 14.2551C16.7348 14.2826 16.7514 14.2932 16.7785 14.2872L18.5748 13.8852C18.6163 13.8761 18.6494 13.8973 18.6593 13.9383L18.7903 14.5256C18.7994 14.5667 18.7783 14.6002 18.7369 14.6093L16.9405 15.0112C16.9134 15.0173 16.9029 15.0339 16.9089 15.0613L17.1719 16.236C17.1779 16.2631 17.1945 16.2741 17.2216 16.2681L19.3525 15.7911C19.394 15.7821 19.4279 15.8032 19.4369 15.8442L19.5681 16.4316C19.5769 16.4723 19.5558 16.5062 19.5144 16.5153ZM23.4084 15.6442L20.4985 16.2952C20.4578 16.3042 20.4239 16.2831 20.4148 16.242L19.4067 11.7339C19.3969 11.6929 19.4187 11.6597 19.4594 11.6503L22.3694 10.9996C22.4101 10.9902 22.4432 11.0113 22.453 11.0524L22.5841 11.6397C22.5932 11.6808 22.5721 11.7139 22.5314 11.7234L20.4006 12.2C20.3727 12.206 20.3622 12.2229 20.3682 12.2504L20.6221 13.3841C20.6281 13.4116 20.6447 13.4221 20.6726 13.4161L22.4689 13.0141C22.5096 13.0047 22.5427 13.0262 22.5526 13.0673L22.6837 13.6542C22.6927 13.6957 22.6716 13.7288 22.6309 13.7382L20.8346 14.1402C20.8067 14.1462 20.7962 14.1628 20.8022 14.1899L21.0652 15.3646C21.0712 15.3921 21.0878 15.403 21.1157 15.3967L23.2466 14.9201C23.2872 14.9111 23.3211 14.9322 23.3302 14.9732L23.4614 15.5606C23.4702 15.6013 23.4491 15.6352 23.4084 15.6442Z" stroke="#009DFF" stroke-width="2.4" mask="url(#path-2-inside-1_6004_6933)"/>
</svg>
