<svg width="30" height="30" viewBox="0 0 30 30" fill="none" xmlns="http://www.w3.org/2000/svg">
<path d="M28.494 10.0479C28.4922 10.0479 28.4905 10.0482 28.4888 10.0482H7.5783C7.29885 10.0482 7.07228 10.2747 7.07228 10.5542C7.07228 10.8337 7.29885 11.0602 7.5783 11.0602H27.988V14.0964H2.01205V11.0602H5.55421C5.83366 11.0602 6.06023 10.8337 6.06023 10.5542C6.06023 10.2747 5.83366 10.0482 5.55421 10.0482H2.01205V8.53012C2.01205 7.69307 2.69302 7.01205 3.53012 7.01205H26.4699C27.3069 7.01205 27.988 7.69307 27.988 8.53012C27.988 8.80962 28.2145 9.03614 28.494 9.03614C28.7735 9.03614 29 8.80962 29 8.53012C29 7.13498 27.865 6 26.4699 6H3.53012C2.13498 5.99995 1 7.13493 1 8.53012V22.0241C1 23.4192 2.13498 24.5542 3.53012 24.5542H26.4699C27.865 24.5542 29 23.4192 29 22.0241V10.5542C29 10.2747 28.7735 10.0479 28.494 10.0479ZM27.988 22.024C27.988 22.8611 27.3069 23.5421 26.4699 23.5421H3.53012C2.69302 23.5421 2.01205 22.8611 2.01205 22.024V15.1084H27.988V22.024Z" fill="#009DFF"/>
<path d="M13.6185 18.1642C13.6185 18.2402 13.5965 18.3082 13.5525 18.3682C13.5125 18.4242 13.4645 18.4682 13.4085 18.5002C13.3085 18.4322 13.1925 18.3702 13.0605 18.3142C12.9285 18.2582 12.7665 18.2302 12.5745 18.2302C12.3505 18.2302 12.1525 18.2802 11.9805 18.3802C11.8125 18.4762 11.6805 18.6222 11.5845 18.8182C11.4925 19.0102 11.4465 19.2462 11.4465 19.5262C11.4465 19.9502 11.5525 20.2722 11.7645 20.4922C11.9765 20.7082 12.2585 20.8162 12.6105 20.8162C12.7985 20.8162 12.9605 20.7902 13.0965 20.7382C13.2325 20.6862 13.3505 20.6262 13.4505 20.5582C13.5025 20.5902 13.5465 20.6382 13.5825 20.7022C13.6225 20.7622 13.6425 20.8302 13.6425 20.9062C13.6425 20.9742 13.6245 21.0362 13.5885 21.0922C13.5565 21.1482 13.4985 21.1982 13.4145 21.2422C13.3305 21.2902 13.2145 21.3342 13.0665 21.3742C12.9225 21.4142 12.7405 21.4342 12.5205 21.4342C12.1765 21.4342 11.8625 21.3662 11.5785 21.2302C11.2985 21.0902 11.0765 20.8802 10.9125 20.6002C10.7485 20.3162 10.6665 19.9582 10.6665 19.5262C10.6665 19.1062 10.7485 18.7542 10.9125 18.4702C11.0765 18.1862 11.2965 17.9722 11.5725 17.8282C11.8485 17.6802 12.1505 17.6062 12.4785 17.6062C12.7105 17.6062 12.9105 17.6322 13.0785 17.6842C13.2505 17.7362 13.3825 17.8042 13.4745 17.8882C13.5705 17.9722 13.6185 18.0642 13.6185 18.1642ZM16.2962 19.4662H16.7942C17.0302 19.4662 17.2182 19.4142 17.3582 19.3102C17.4982 19.2062 17.5682 19.0522 17.5682 18.8482C17.5682 18.6482 17.4982 18.4962 17.3582 18.3922C17.2182 18.2882 17.0122 18.2362 16.7402 18.2362C16.6602 18.2362 16.5822 18.2402 16.5062 18.2482C16.4302 18.2522 16.3602 18.2602 16.2962 18.2722V19.4662ZM16.8482 20.0602H15.5402V18.0022C15.5402 17.9302 15.5602 17.8742 15.6002 17.8342C15.6442 17.7942 15.7002 17.7622 15.7682 17.7382C15.8962 17.6982 16.0462 17.6682 16.2182 17.6482C16.3942 17.6282 16.5722 17.6182 16.7522 17.6182C17.2802 17.6182 17.6742 17.7282 17.9342 17.9482C18.1982 18.1642 18.3302 18.4622 18.3302 18.8422C18.3302 19.0822 18.2682 19.2942 18.1442 19.4782C18.0242 19.6622 17.8542 19.8062 17.6342 19.9102C17.4142 20.0102 17.1522 20.0602 16.8482 20.0602ZM16.7462 19.8682L17.3942 19.6822C17.4942 19.8142 17.5962 19.9482 17.7002 20.0842C17.8082 20.2162 17.9102 20.3462 18.0062 20.4742C18.1062 20.5982 18.1942 20.7122 18.2702 20.8162C18.3502 20.9202 18.4122 21.0062 18.4562 21.0742C18.4282 21.1742 18.3742 21.2522 18.2942 21.3082C18.2182 21.3642 18.1342 21.3922 18.0422 21.3922C17.9222 21.3922 17.8282 21.3662 17.7602 21.3142C17.6962 21.2582 17.6342 21.1842 17.5742 21.0922L16.7462 19.8682ZM15.5402 19.7962H16.3022V21.3322C16.2702 21.3442 16.2202 21.3542 16.1522 21.3622C16.0882 21.3742 16.0202 21.3802 15.9482 21.3802C15.8042 21.3802 15.7002 21.3542 15.6362 21.3022C15.5722 21.2462 15.5402 21.1542 15.5402 21.0262V19.7962Z" fill="#009DFF"/>
</svg>
