<svg width="30" height="30" viewBox="0 0 30 30" fill="none" xmlns="http://www.w3.org/2000/svg">
<path d="M28.494 10.0479C28.4922 10.0479 28.4905 10.0482 28.4888 10.0482H7.5783C7.29885 10.0482 7.07228 10.2747 7.07228 10.5542C7.07228 10.8337 7.29885 11.0602 7.5783 11.0602H27.988V14.0964H2.01205V11.0602H5.55421C5.83366 11.0602 6.06023 10.8337 6.06023 10.5542C6.06023 10.2747 5.83366 10.0482 5.55421 10.0482H2.01205V8.53012C2.01205 7.69307 2.69302 7.01205 3.53012 7.01205H26.4699C27.3069 7.01205 27.988 7.69307 27.988 8.53012C27.988 8.80962 28.2145 9.03614 28.494 9.03614C28.7735 9.03614 29 8.80962 29 8.53012C29 7.13498 27.865 6 26.4699 6H3.53012C2.13498 5.99995 1 7.13493 1 8.53012V22.0241C1 23.4192 2.13498 24.5542 3.53012 24.5542H26.4699C27.865 24.5542 29 23.4192 29 22.0241V10.5542V10.5539C29 10.2744 28.7735 10.0479 28.494 10.0479ZM27.988 22.024C27.988 22.8611 27.3069 23.5421 26.4699 23.5421H3.53012C2.69302 23.5421 2.01205 22.8611 2.01205 22.024V15.1084H27.988V22.024Z" fill="#009DFF"/>
<path d="M13.3632 19.5082C13.3632 19.2122 13.3092 18.9722 13.2012 18.7882C13.0972 18.6002 12.9532 18.4622 12.7692 18.3742C12.5892 18.2822 12.3832 18.2362 12.1512 18.2362C12.0632 18.2362 11.9792 18.2402 11.8992 18.2482C11.8232 18.2522 11.7492 18.2602 11.6772 18.2722V20.7622C11.7492 20.7782 11.8292 20.7902 11.9172 20.7982C12.0052 20.8022 12.0932 20.8042 12.1812 20.8042C12.5532 20.8042 12.8432 20.6962 13.0512 20.4802C13.2592 20.2602 13.3632 19.9362 13.3632 19.5082ZM14.1432 19.4962C14.1432 19.9282 14.0612 20.2882 13.8972 20.5762C13.7332 20.8602 13.5052 21.0722 13.2132 21.2122C12.9212 21.3522 12.5772 21.4222 12.1812 21.4222C12.0492 21.4222 11.8932 21.4142 11.7132 21.3982C11.5332 21.3862 11.3672 21.3542 11.2152 21.3022C11.0192 21.2342 10.9212 21.1162 10.9212 20.9482V18.0022C10.9212 17.9262 10.9412 17.8682 10.9812 17.8282C11.0252 17.7882 11.0812 17.7562 11.1492 17.7322C11.2972 17.6882 11.4572 17.6582 11.6292 17.6422C11.8052 17.6262 11.9692 17.6182 12.1212 17.6182C12.5252 17.6182 12.8772 17.6882 13.1772 17.8282C13.4812 17.9642 13.7172 18.1702 13.8852 18.4462C14.0572 18.7222 14.1432 19.0722 14.1432 19.4962ZM16.8335 19.4662H17.3315C17.5675 19.4662 17.7555 19.4142 17.8955 19.3102C18.0355 19.2062 18.1055 19.0522 18.1055 18.8482C18.1055 18.6482 18.0355 18.4962 17.8955 18.3922C17.7555 18.2882 17.5495 18.2362 17.2775 18.2362C17.1975 18.2362 17.1195 18.2402 17.0435 18.2482C16.9675 18.2522 16.8975 18.2602 16.8335 18.2722V19.4662ZM17.3855 20.0602H16.0775V18.0022C16.0775 17.9302 16.0975 17.8742 16.1375 17.8342C16.1815 17.7942 16.2375 17.7622 16.3055 17.7382C16.4335 17.6982 16.5835 17.6682 16.7555 17.6482C16.9315 17.6282 17.1095 17.6182 17.2895 17.6182C17.8175 17.6182 18.2115 17.7282 18.4715 17.9482C18.7355 18.1642 18.8675 18.4622 18.8675 18.8422C18.8675 19.0822 18.8055 19.2942 18.6815 19.4782C18.5615 19.6622 18.3915 19.8062 18.1715 19.9102C17.9515 20.0102 17.6895 20.0602 17.3855 20.0602ZM17.2835 19.8682L17.9315 19.6822C18.0315 19.8142 18.1335 19.9482 18.2375 20.0842C18.3455 20.2162 18.4475 20.3462 18.5435 20.4742C18.6435 20.5982 18.7315 20.7122 18.8075 20.8162C18.8875 20.9202 18.9495 21.0062 18.9935 21.0742C18.9655 21.1742 18.9115 21.2522 18.8315 21.3082C18.7555 21.3642 18.6715 21.3922 18.5795 21.3922C18.4595 21.3922 18.3655 21.3662 18.2975 21.3142C18.2335 21.2582 18.1715 21.1842 18.1115 21.0922L17.2835 19.8682ZM16.0775 19.7962H16.8395V21.3322C16.8075 21.3442 16.7575 21.3542 16.6895 21.3622C16.6255 21.3742 16.5575 21.3802 16.4855 21.3802C16.3415 21.3802 16.2375 21.3542 16.1735 21.3022C16.1095 21.2462 16.0775 21.1542 16.0775 21.0262V19.7962Z" fill="#009DFF"/>
</svg>
