<svg width="30" height="30" viewBox="0 0 30 30" fill="none" xmlns="http://www.w3.org/2000/svg">
<path d="M5.66672 16.8666C5.66672 16.619 5.56838 16.3816 5.39335 16.2066C5.21831 16.0316 4.98092 15.9332 4.73338 15.9332C4.48585 15.9332 4.24845 16.0316 4.07342 16.2066C3.89838 16.3816 3.80005 16.619 3.80005 16.8666L3.80005 22.4666C3.80005 22.7141 3.89838 22.9515 4.07342 23.1265C4.24845 23.3016 4.48585 23.3999 4.73338 23.3999C4.98092 23.3999 5.21831 23.3016 5.39335 23.1265C5.56838 22.9515 5.66672 22.7141 5.66672 22.4666L5.66672 16.8666Z" fill="#009DFF"/>
<path d="M8.31732 10.3333H4.58398C3.99331 10.3284 3.4075 10.4403 2.86025 10.6627C2.31301 10.885 1.81514 11.2134 1.39529 11.6289C0.975448 12.0444 0.641917 12.5389 0.413895 13.0838C0.185872 13.6287 0.0678605 14.2133 0.0666504 14.804L0.0666504 24.5293C0.0691164 25.7143 0.540924 26.85 1.3788 27.6878C2.21668 28.5257 3.35238 28.9975 4.53732 29L25.4626 29C26.6476 28.9975 27.7833 28.5257 28.6212 27.6878C29.459 26.85 29.9309 25.7143 29.9333 24.5293L29.9333 14.804C29.9309 13.6191 29.459 12.4834 28.6212 11.6455C27.7833 10.8076 26.6476 10.3358 25.4626 10.3333H25.416C24.6882 8.6717 23.4921 7.25815 21.9737 6.26555C20.4554 5.27295 18.6807 4.74433 16.8667 4.74433C15.0526 4.74433 13.2779 5.27295 11.7596 6.26555C10.2412 7.25815 9.04506 8.6717 8.31732 10.3333ZM28.0667 14.804L28.0667 24.5293C28.0667 25.22 27.7923 25.8823 27.304 26.3706C26.8156 26.859 26.1533 27.1333 25.4626 27.1333L4.53732 27.1333C3.84669 27.1333 3.18436 26.859 2.69601 26.3706C2.20767 25.8823 1.93332 25.22 1.93332 24.5293L1.93332 14.804C1.93332 14.1134 2.20767 13.451 2.69601 12.9627C3.18436 12.4744 3.84669 12.2 4.53732 12.2H7.71998C7.59646 12.8146 7.53393 13.4398 7.53332 14.0667C7.53306 16.5155 8.50293 18.8646 10.2307 20.6H9.39998C9.15245 20.6 8.91505 20.6983 8.74002 20.8734C8.56498 21.0484 8.46665 21.2858 8.46665 21.5333C8.46665 21.7809 8.56498 22.0183 8.74002 22.1933C8.91505 22.3683 9.15245 22.4667 9.39998 22.4667L24.3333 22.4667C24.5809 22.4667 24.8183 22.3683 24.9933 22.1933C25.1683 22.0183 25.2667 21.7809 25.2667 21.5333C25.2667 21.2858 25.1683 21.0484 24.9933 20.8734C24.8183 20.6983 24.5809 20.6 24.3333 20.6H23.5027C25.2304 18.8646 26.2002 16.5155 26.2 14.0667C26.1983 13.4619 26.1389 12.8588 26.0227 12.2653C26.6014 12.3928 27.1193 12.7138 27.4909 13.1753C27.8626 13.6369 28.0656 14.2114 28.0667 14.804ZM24.3333 14.0667C24.3321 15.4017 23.973 16.7119 23.2934 17.861C22.6139 19.01 21.6386 19.9559 20.4693 20.6L13.264 20.6C12.1102 19.9644 11.145 19.0348 10.4665 17.9057C9.78804 16.7765 9.42036 15.488 9.40081 14.1708C9.38126 12.8536 9.71052 11.5547 10.3552 10.4059C10.9999 9.25715 11.937 8.29936 13.0714 7.62978C14.2059 6.96021 15.4973 6.60268 16.8146 6.59349C18.1319 6.58431 19.4281 6.92378 20.5718 7.57747C21.7155 8.23116 22.6659 9.17579 23.3265 10.3155C23.9871 11.4552 24.3345 12.7494 24.3333 14.0667Z" fill="#009DFF"/>
<path d="M16.8667 11.2668H18.7333C18.9809 11.2668 19.2183 11.1685 19.3933 10.9934C19.5683 10.8184 19.6667 10.581 19.6667 10.3335C19.6667 10.0859 19.5683 9.84853 19.3933 9.6735C19.2183 9.49846 18.9809 9.40013 18.7333 9.40013H17.8C17.8 9.15259 17.7017 8.9152 17.5266 8.74016C17.3516 8.56513 17.1142 8.4668 16.8667 8.4668C16.6191 8.4668 16.3817 8.56513 16.2067 8.74016C16.0316 8.9152 15.9333 9.15259 15.9333 9.40013V9.56813C15.316 9.79211 14.7971 10.2259 14.4673 10.7937C14.1374 11.3615 14.0176 12.0272 14.1288 12.6744C14.24 13.3215 14.5751 13.909 15.0756 14.3342C15.5761 14.7593 16.21 14.995 16.8667 15.0001C17.1142 15.0001 17.3516 15.0985 17.5266 15.2735C17.7017 15.4485 17.8 15.6859 17.8 15.9335C17.8 16.181 17.7017 16.4184 17.5266 16.5934C17.3516 16.7685 17.1142 16.8668 16.8667 16.8668H15C14.7524 16.8668 14.5151 16.9651 14.34 17.1402C14.165 17.3152 14.0667 17.5526 14.0667 17.8001C14.0667 18.0477 14.165 18.2851 14.34 18.4601C14.5151 18.6351 14.7524 18.7335 15 18.7335H15.9333C15.9333 18.981 16.0316 19.2184 16.2067 19.3934C16.3817 19.5685 16.6191 19.6668 16.8667 19.6668C17.1142 19.6668 17.3516 19.5685 17.5266 19.3934C17.7017 19.2184 17.8 18.981 17.8 18.7335V18.5655C18.4173 18.3415 18.9362 17.9077 19.266 17.3399C19.5959 16.7721 19.7157 16.1064 19.6045 15.4592C19.4933 14.8121 19.1582 14.2245 18.6577 13.7994C18.1573 13.3743 17.5233 13.1386 16.8667 13.1335C16.6191 13.1335 16.3817 13.0351 16.2067 12.8601C16.0316 12.6851 15.9333 12.4477 15.9333 12.2001C15.9333 11.9526 16.0316 11.7152 16.2067 11.5402C16.3817 11.3651 16.6191 11.2668 16.8667 11.2668Z" fill="#009DFF"/>
<path d="M4.73328 1.93316L4.73328 4.3505L4.46261 4.0705C4.28686 3.89475 4.04849 3.79601 3.79995 3.79601C3.5514 3.79601 3.31303 3.89475 3.13728 4.0705C2.96153 4.24625 2.86279 4.48461 2.86279 4.73316C2.86279 4.98171 2.96153 5.22008 3.13728 5.39583L5.00395 7.26249C5.09071 7.34997 5.19394 7.41941 5.30767 7.4668C5.42141 7.51418 5.5434 7.53857 5.66661 7.53857C5.78982 7.53857 5.91182 7.51418 6.02555 7.4668C6.13929 7.41941 6.24251 7.34997 6.32928 7.26249L8.19595 5.39583C8.28343 5.30906 8.35286 5.20584 8.40024 5.0921C8.44763 4.97837 8.47202 4.85637 8.47202 4.73316C8.47202 4.60995 8.44763 4.48796 8.40024 4.37422C8.35286 4.26049 8.28343 4.15726 8.19595 4.0705C8.10918 3.98302 8.00595 3.91358 7.89222 3.8662C7.77848 3.81881 7.65649 3.79442 7.53328 3.79442C7.41007 3.79442 7.28808 3.81881 7.17434 3.8662C7.06061 3.91358 6.95738 3.98302 6.87061 4.0705L6.59995 4.3505L6.59995 1.93316C6.59995 1.68563 6.50161 1.44823 6.32658 1.2732C6.15154 1.09816 5.91415 0.999829 5.66661 0.999829C5.41908 0.999829 5.18168 1.09816 5.00665 1.2732C4.83161 1.44823 4.73328 1.68563 4.73328 1.93316Z" fill="#009DFF"/>
</svg>
