<svg width="31" height="30" viewBox="0 0 31 30" fill="none" xmlns="http://www.w3.org/2000/svg">
<path fill-rule="evenodd" clip-rule="evenodd" d="M14.0401 1.56002C14.9724 1.14666 16.0276 1.14666 16.9599 1.56002L27.7494 6.34425C30.2189 7.43926 29.4629 11.25 26.7761 11.25H4.22383C1.53709 11.25 0.781114 7.43925 3.25059 6.34425L14.0401 1.56002ZM15.9866 3.90956C15.6759 3.77177 15.3241 3.77177 15.0134 3.90956L4.76345 8.4544C4.63998 8.50915 4.67905 8.69367 4.81411 8.69367H26.1859C26.321 8.69367 26.36 8.50915 26.2365 8.4544L15.9866 3.90956Z" fill="#009DFF"/>
<path d="M3 27.5C3 26.8096 3.55965 26.25 4.25 26.25H26.75C27.4404 26.25 28 26.8096 28 27.5C28 28.1904 27.4404 28.75 26.75 28.75H4.25C3.55965 28.75 3 28.1904 3 27.5Z" fill="#009DFF"/>
<path d="M14.25 23.75C14.25 24.4404 14.8096 25 15.5 25C16.1904 25 16.75 24.4404 16.75 23.75V13.75C16.75 13.0596 16.1904 12.5 15.5 12.5C14.8096 12.5 14.25 13.0596 14.25 13.75V23.75Z" fill="#009DFF"/>
<path d="M8 25C7.30965 25 6.75 24.4404 6.75 23.75V13.75C6.75 13.0596 7.30964 12.5 8 12.5C8.69035 12.5 9.25 13.0596 9.25 13.75V23.75C9.25 24.4404 8.69036 25 8 25Z" fill="#009DFF"/>
<path d="M21.75 23.75C21.75 24.4404 22.3096 25 23 25C23.6904 25 24.25 24.4404 24.25 23.75V13.75C24.25 13.0596 23.6904 12.5 23 12.5C22.3096 12.5 21.75 13.0596 21.75 13.75V23.75Z" fill="#009DFF"/>
</svg>
