<svg xmlns="http://www.w3.org/2000/svg" xmlns:xlink="http://www.w3.org/1999/xlink" width="96" zoomAndPan="magnify" viewBox="0 0 72 72" height="96" preserveAspectRatio="xMidYMid meet" version="1.2"><defs><clipPath id="6a680111ad"><path d="M 12.371094 7.5 L 59.621094 7.5 L 59.621094 64.5 L 12.371094 64.5 Z M 12.371094 7.5 "/></clipPath></defs><g id="c4ecc8b718"><g clip-rule="nonzero" clip-path="url(#6a680111ad)"><path style=" stroke:none;fill-rule:nonzero;fill:#ffffff;fill-opacity:1;" d="M 59.582031 62.128906 L 56.113281 23.496094 C 56.023438 22.4375 55.132812 21.640625 54.074219 21.640625 L 46.925781 21.640625 L 46.925781 18.402344 C 46.914062 12.390625 42.023438 7.5 36.011719 7.5 C 30.003906 7.5 25.113281 12.390625 25.113281 18.402344 L 25.113281 21.628906 L 17.953125 21.628906 C 16.890625 21.628906 16.011719 22.4375 15.910156 23.484375 L 12.433594 62.277344 C 12.386719 62.847656 12.570312 63.417969 12.957031 63.839844 C 13.34375 64.261719 13.894531 64.5 14.460938 64.5 L 57.550781 64.5 C 58.679688 64.5 59.59375 63.585938 59.59375 62.460938 C 59.605469 62.355469 59.59375 62.242188 59.582031 62.128906 Z M 29.207031 18.402344 C 29.207031 14.648438 32.261719 11.582031 36.011719 11.582031 C 39.765625 11.582031 42.820312 14.636719 42.820312 18.402344 L 42.820312 21.628906 L 29.207031 21.628906 Z M 16.707031 60.417969 L 19.820312 25.722656 L 25.113281 25.722656 L 25.113281 29.382812 C 25.113281 30.511719 26.023438 31.421875 27.152344 31.421875 C 28.28125 31.421875 29.195312 30.511719 29.195312 29.382812 L 29.195312 25.722656 L 42.820312 25.722656 L 42.820312 29.382812 C 42.820312 30.511719 43.730469 31.421875 44.859375 31.421875 C 45.988281 31.421875 46.902344 30.511719 46.902344 29.382812 L 46.902344 25.722656 L 52.203125 25.722656 L 55.316406 60.417969 Z M 16.707031 60.417969 "/></g></g></svg>