<svg width="30" height="30" viewBox="0 0 30 30" fill="none" xmlns="http://www.w3.org/2000/svg">
<path d="M28.494 10.0479L28.4888 10.0482H14.0667C13.7872 10.0482 14.0667 10.3309 14.0667 10.6104C14.0667 10.8899 13.7872 11.0771 14.0667 11.0771L27.988 11.0602V15.2771H2.01205V11.0602L1.93333 11.0771C2.21279 11.0771 2.01205 10.8337 2.01205 10.5542C2.01205 10.2747 2.2915 10.0482 2.01205 10.0482V8.53012C2.01205 7.69307 2.69302 7.01205 3.53012 7.01205H26.4699C27.3069 7.01205 27.988 7.69307 27.988 8.53012C27.988 8.80962 28.2145 9.03614 28.494 9.03614C28.7735 9.03614 29 8.80962 29 8.53012C29 7.13498 27.865 6 26.4699 6H3.53012C2.13498 5.99995 1 7.13493 1 8.53012V22.0241C1 23.4192 2.13498 24.5542 3.53012 24.5542H26.4699C27.865 24.5542 29 23.4192 29 22.0241V10.5542C29 10.2747 28.7735 10.0479 28.494 10.0479ZM27.988 22.024C27.988 22.8611 27.3069 23.5421 26.4699 23.5421H3.53012C2.69302 23.5421 2.01205 22.8611 2.01205 22.024V16.2104H27.988V22.024Z" fill="#009DFF"/>
<path d="M14.0273 13.5507C13.7398 13.2038 13.3242 12.843 12.8569 12.5346C12.7778 12.4825 12.6715 12.5043 12.6194 12.5833C12.5672 12.6624 12.589 12.7687 12.668 12.8208C13.0081 13.0453 13.3179 13.2976 13.564 13.5491L12.8113 13.6936C12.7371 13.7079 12.6809 13.7691 12.6731 13.8442L12.6043 14.5039C12.3916 14.2987 12.055 13.9926 11.6188 13.6564C11.0059 13.184 10.0896 12.5754 9.0233 12.1807C9.08138 12.1526 9.14037 12.1199 9.19821 12.0822C9.20521 12.0806 9.21223 12.079 9.2193 12.0775C9.56886 12.1718 10.9375 12.5728 12.0017 13.3287C12.0318 13.3501 12.0665 13.3604 12.1008 13.3604C12.1544 13.3604 12.2073 13.3353 12.2407 13.2882C12.2955 13.211 12.2774 13.104 12.2002 13.0491C11.55 12.5873 10.8062 12.2562 10.2234 12.0401C10.3116 12.0301 10.4003 12.0166 10.4892 11.9993C10.9656 12.0309 11.5027 12.19 12.0444 12.4606C12.069 12.4729 12.0952 12.4788 12.1209 12.4788C12.1838 12.4788 12.2444 12.444 12.2744 12.384C12.3167 12.2993 12.2824 12.1963 12.1977 12.154C11.87 11.9902 11.5423 11.8645 11.2254 11.7795C11.8652 11.5226 12.4958 11.1005 13.026 10.5645C13.7312 9.85171 14.1178 9.07828 14.06 8.4955C14.0244 8.13612 13.7839 7.53322 12.5736 7.53322C11.6463 7.53322 10.8688 7.88132 10.2629 8.56787C9.88583 8.99504 9.58244 9.5445 9.35831 10.2039C9.04005 9.93584 8.56532 9.95454 8.46667 9.9618C8.36795 9.95454 7.89339 9.93584 7.57511 10.2039C7.39 9.6603 7.15019 9.18938 6.85973 8.80103C6.80306 8.72521 6.69561 8.70975 6.61979 8.76643C6.54397 8.8231 6.52848 8.93055 6.58518 9.00637C6.89966 9.42679 7.15144 9.95588 7.33435 10.579C7.30145 10.7066 7.29835 10.8496 7.31314 10.9942C7.25921 10.9116 7.19956 10.8249 7.13332 10.7345C6.71573 10.1649 5.95039 9.33979 4.67583 8.64404C4.59266 8.59864 4.4886 8.62927 4.44321 8.71235C4.39786 8.79545 4.42844 8.8996 4.51152 8.94497C5.72309 9.60636 6.45008 10.3859 6.84659 10.9234C7.08986 11.2531 7.24195 11.5345 7.32847 11.7176L7.06166 11.7176C6.87546 11.7176 6.68242 11.6978 6.48792 11.6586C6.48663 11.6584 6.48537 11.6582 6.48407 11.6579C5.68067 11.4964 4.83057 11.0101 4.15122 10.3234C3.52636 9.69191 3.16746 9.00445 3.21451 8.52928C3.26802 7.98936 3.86682 7.87605 4.35971 7.87605C5.03519 7.87605 5.62295 8.08377 6.10675 8.49347C6.17901 8.55465 6.28718 8.54564 6.34836 8.47343C6.40955 8.40118 6.40058 8.29301 6.32833 8.23182C5.78093 7.76823 5.11857 7.5332 4.35973 7.5332C3.14941 7.5332 2.90896 8.1361 2.87339 8.4955C2.81569 9.0783 3.20226 9.85177 3.90749 10.5645C4.45244 11.1154 5.10337 11.5461 5.76144 11.8007C5.32017 11.9273 4.86165 12.118 4.42297 12.3606C3.79096 12.7101 3.25222 13.1327 2.9061 13.5507C2.86747 13.5974 2.85631 13.661 2.87678 13.718C2.89726 13.775 2.94633 13.817 3.0058 13.8284L3.93247 14.0063L4.02555 14.8995C4.03257 14.9666 4.07822 15.0233 4.14223 15.0445C4.15988 15.0503 4.17802 15.0532 4.19604 15.0532C4.24325 15.0532 4.28934 15.0336 4.32235 14.9977C4.34033 14.9781 6.13399 13.0468 8.46667 12.3564C10.7993 13.0468 12.593 14.9781 12.611 14.9976C12.644 15.0336 12.6901 15.0532 12.7373 15.0532C12.7553 15.0532 12.7734 15.0503 12.7911 15.0445C12.8552 15.0233 12.9008 14.9666 12.9078 14.8995L13.0009 14.0063L13.9276 13.8284C13.9871 13.817 14.0361 13.775 14.0566 13.718C14.0771 13.6609 14.0659 13.5973 14.0273 13.5507ZM12.3463 8.71235C12.3009 8.62925 12.1968 8.5986 12.1137 8.64404C10.8391 9.33981 10.0738 10.1649 9.65616 10.7345C9.64628 10.748 9.63672 10.7613 9.62711 10.7746C9.62387 10.7069 9.61497 10.6412 9.599 10.5791C9.96372 9.33472 10.7751 7.87605 12.5736 7.87605C13.0666 7.87605 13.6654 7.98938 13.7189 8.52926C13.7659 9.00438 13.4071 9.69185 12.7823 10.3233C12.1034 11.0095 11.254 11.4957 10.451 11.6576C10.4492 11.6579 10.4473 11.6583 10.4455 11.6586H10.4454C10.4451 11.6587 10.4447 11.6588 10.4444 11.6588C10.2502 11.6979 10.0576 11.7176 9.87172 11.7176H9.46102C9.54753 11.5345 9.69963 11.2531 9.94292 10.9233C10.3394 10.3859 11.0664 9.60634 12.278 8.94495C12.3611 8.89962 12.3916 8.79545 12.3463 8.71235ZM5.31455 13.6564C4.87841 13.9925 4.54173 14.2986 4.32902 14.5039L4.26027 13.8442C4.25244 13.769 4.19628 13.7078 4.12206 13.6936L3.37197 13.5496C4.0479 12.8774 5.28951 12.1659 6.45065 12.0005C6.53738 12.0172 6.62392 12.0304 6.70991 12.0401C6.12714 12.2561 5.3833 12.5873 4.73312 13.0491C4.65592 13.1039 4.63781 13.2109 4.69263 13.2881C4.72605 13.3352 4.77886 13.3603 4.83254 13.3603C4.86686 13.3603 4.90155 13.35 4.93165 13.3286C6.00455 12.5665 7.39066 12.1643 7.72393 12.0748C7.78535 12.1157 7.84822 12.1507 7.91008 12.1807C6.84379 12.5753 5.92747 13.184 5.31455 13.6564ZM8.46669 11.1218C8.37199 11.1218 8.29526 11.1985 8.29526 11.2932V11.9632C8.17993 11.929 8.03031 11.8712 7.89472 11.7764C7.74718 11.453 7.5787 10.9094 7.67392 10.6363C7.67407 10.6358 7.67429 10.6354 7.67444 10.6349C7.6807 10.6172 7.68807 10.6005 7.69667 10.5852C7.883 10.2538 8.44411 10.3037 8.44934 10.3043C8.46083 10.3055 8.47246 10.3055 8.48395 10.3043C8.48964 10.3037 9.05178 10.2564 9.2366 10.585C9.37728 10.8356 9.19604 11.4313 9.03861 11.7763C8.90384 11.8705 8.7538 11.9283 8.63808 11.9627V11.2932C8.63812 11.1985 8.56139 11.1218 8.46669 11.1218Z" fill="#009DFF"/>
</svg>
