<svg width="30" height="30" viewBox="0 0 30 30" fill="none" xmlns="http://www.w3.org/2000/svg">
<path d="M10.5242 26.1453C11.6114 26.7706 12.9022 26.9396 14.1139 26.6152C15.3255 26.2907 16.3591 25.4993 16.9884 24.4143L22.9929 14.0285C23.1629 13.7342 23.2732 13.4094 23.3175 13.0725C23.3618 12.7356 23.3393 12.3933 23.2513 12.0651C23.1632 11.7369 23.0114 11.4293 22.8043 11.1598C22.5973 10.8904 22.3392 10.6644 22.0448 10.4947L20.2492 9.46045" stroke="#009DFF" stroke-width="1.2" stroke-linecap="round" stroke-linejoin="round"/>
<path d="M10.2871 26.0086C9.29922 25.4364 8.57876 24.4956 8.28385 23.3927C7.98895 22.2898 8.1437 21.115 8.71414 20.1261L13.2606 12.2254C13.6016 11.6319 13.6933 10.9273 13.5156 10.2662C13.3379 9.60508 12.9052 9.04145 12.3125 8.69886L9.00862 6.79552C8.71561 6.62446 8.39164 6.51309 8.05539 6.46782C7.71914 6.42255 7.37725 6.44427 7.04943 6.53173C6.72161 6.61919 6.41434 6.77067 6.14534 6.97743C5.87633 7.18418 5.6509 7.44214 5.48204 7.73642L1.79744 14.1719C1.00566 15.5528 0.793134 17.1911 1.20638 18.7283C1.61963 20.2656 2.62499 21.5765 4.00245 22.3742L6.5594 23.8538L10.2871 26.0086Z" stroke="#009DFF" stroke-width="1.2" stroke-linecap="round" stroke-linejoin="round"/>
<path d="M26.6272 7.57861C27.1665 7.88824 27.6393 8.30125 28.0187 8.79398C28.3981 9.2867 28.6765 9.84944 28.8379 10.45C28.9994 11.0505 29.0408 11.6769 28.9597 12.2935C28.8786 12.91 28.6766 13.5045 28.3654 14.0428L24.1277 21.3545C23.7837 21.9477 23.2188 22.3805 22.5566 22.5582C21.8943 22.7358 21.1886 22.644 20.594 22.3026L18.7983 21.2612" stroke="#009DFF" stroke-width="1.2" stroke-linecap="round" stroke-linejoin="round"/>
<path d="M10.8043 7.85143L11.8673 6.01272C12.6679 4.62844 13.9854 3.61862 15.5301 3.20516C17.0749 2.79171 18.7206 3.00843 20.1056 3.80771L22.6626 5.2873L26.3902 7.44203C25.4005 6.87219 24.225 6.71853 23.122 7.01481C22.0191 7.31109 21.0788 8.03308 20.5078 9.02217L14.2735 19.7743C13.9309 20.367 13.3672 20.7996 12.7062 20.9773C12.0451 21.155 11.3405 21.0634 10.7469 20.7224L8.94409 19.6809" stroke="#009DFF" stroke-width="1.2" stroke-linecap="round" stroke-linejoin="round"/>
</svg>
