<svg width="30" height="30" viewBox="0 0 30 30" fill="none" xmlns="http://www.w3.org/2000/svg">
<path d="M25.9131 12.9133C25.9131 20.916 14.9998 28 14.9998 28C14.9998 28 4.08643 20.9153 4.08643 12.9133C4.08643 6.88667 8.97176 2 14.9998 2C21.0278 2 25.9131 6.88667 25.9131 12.9133Z" stroke="#009DFF" stroke-width="1.2" stroke-linecap="round" stroke-linejoin="round"/>
<path d="M14.9999 4.81348C19.4732 4.81348 23.0999 8.44014 23.0999 12.9135C23.0999 18.8535 14.9999 24.1115 14.9999 24.1115C14.9999 24.1115 6.8999 18.8535 6.8999 12.9141C6.8999 8.44081 10.5266 4.81348 14.9999 4.81348Z" stroke="#009DFF" stroke-width="1.2" stroke-linecap="round" stroke-linejoin="round"/>
<path d="M20.2867 12.913C20.2867 16.7896 15 20.221 15 20.221C15 20.221 9.71338 16.7896 9.71338 12.9136C9.71338 11.5115 10.2704 10.1668 11.2618 9.17538C12.2533 8.18394 13.5979 7.62695 15 7.62695C16.4022 7.62695 17.7468 8.18394 18.7383 9.17538C19.7297 10.1668 20.2867 11.5108 20.2867 12.913Z" stroke="#009DFF" stroke-width="1.2" stroke-linecap="round" stroke-linejoin="round"/>
</svg>
