<svg width="30" height="30" viewBox="0 0 30 30" fill="none" xmlns="http://www.w3.org/2000/svg">
<path fill-rule="evenodd" clip-rule="evenodd" d="M14.0404 2.14415C14.6656 1.95195 15.3344 1.95195 15.9597 2.14415L20.8584 3.64977C23.4141 4.43527 25.8411 5.59011 28.0628 7.07767C29.7906 8.23469 28.9716 10.93 26.8921 10.93H3.10791C1.02838 10.93 0.209328 8.23469 1.93726 7.07769C4.15884 5.59011 6.58597 4.43527 9.14162 3.64977L14.0404 2.14415ZM15.2366 4.49661C15.0824 4.44923 14.9177 4.44923 14.7634 4.49661L9.86466 6.00226C7.92727 6.59771 6.07106 7.42634 4.33645 8.4689H25.6636C23.929 7.42634 22.0727 6.59771 20.1353 6.00226L15.2366 4.49661Z" fill="#009DFF"/>
<path d="M2.28442 27.419C2.28442 26.7394 2.83536 26.1885 3.51497 26.1885H26.4851C27.1647 26.1885 27.7156 26.7394 27.7156 27.419C27.7156 28.0986 27.1647 28.6496 26.4851 28.6496H3.51497C2.83536 28.6496 2.28442 28.0986 2.28442 27.419Z" fill="#009DFF"/>
<path d="M5.56592 23.4816C5.56592 24.1612 6.11686 24.7122 6.79646 24.7122C7.47606 24.7122 8.027 24.1612 8.027 23.4816V13.6373C8.027 12.9577 7.47606 12.4067 6.79646 12.4067C6.11686 12.4067 5.56592 12.9577 5.56592 13.6373V23.4816Z" fill="#009DFF"/>
<path d="M15.0001 24.7122C14.3205 24.7122 13.7695 24.1612 13.7695 23.4816V13.6373C13.7695 12.9577 14.3205 12.4067 15.0001 12.4067C15.6797 12.4067 16.2306 12.9577 16.2306 13.6373V23.4816C16.2306 24.1612 15.6797 24.7122 15.0001 24.7122Z" fill="#009DFF"/>
<path d="M21.9731 23.4816C21.9731 24.1612 22.5241 24.7122 23.2037 24.7122C23.8833 24.7122 24.4342 24.1612 24.4342 23.4816V13.6373C24.4342 12.9577 23.8833 12.4067 23.2037 12.4067C22.5241 12.4067 21.9731 12.9577 21.9731 13.6373V23.4816Z" fill="#009DFF"/>
</svg>
