<svg width="30" height="30" viewBox="0 0 30 30" fill="none" xmlns="http://www.w3.org/2000/svg">
<path d="M8.5 19.3V11.5" stroke="#009DFF" stroke-width="1.95" stroke-linecap="round" stroke-linejoin="round"/>
<path d="M26.4832 11.5H23.0999C20.7804 11.5 18.8999 13.246 18.8999 15.4C18.8999 17.554 20.7804 19.3 23.0999 19.3H26.4832C26.5916 19.3 26.6457 19.3 26.6915 19.2973C27.3925 19.2545 27.9509 18.7361 27.9969 18.085C27.9999 18.0425 27.9999 17.9922 27.9999 17.8917V12.9083C27.9999 12.8078 27.9999 12.7574 27.9969 12.715C27.9509 12.064 27.3925 11.5454 26.6915 11.5028C26.6457 11.5 26.5916 11.5 26.4832 11.5Z" stroke="#009DFF" stroke-width="1.95"/>
<path d="M26.6545 11.5C26.5535 9.06601 26.2276 7.57367 25.1769 6.52304C23.654 5 21.2026 5 16.3 5H12.4C7.49739 5 5.04609 5 3.52304 6.52304C2 8.04609 2 10.4974 2 15.4C2 20.3026 2 22.754 3.52304 24.2769C5.04609 25.8 7.49739 25.8 12.4 25.8H16.3C21.2026 25.8 23.654 25.8 25.1769 24.2769C26.2276 23.2264 26.5535 21.734 26.6545 19.3" stroke="#009DFF" stroke-width="1.95"/>
<path d="M22.7886 15.4004H22.8012" stroke="#009DFF" stroke-width="2.6" stroke-linecap="round" stroke-linejoin="round"/>
</svg>
