<svg xmlns="http://www.w3.org/2000/svg" xmlns:xlink="http://www.w3.org/1999/xlink" width="96" zoomAndPan="magnify" viewBox="0 0 72 72" height="96" preserveAspectRatio="xMidYMid meet" version="1.2"><defs><clipPath id="644a06fd8d"><path d="M 32 7.5 L 40 7.5 L 40 11 L 32 11 Z M 32 7.5 "/></clipPath><clipPath id="1a4f264355"><path d="M 29 58 L 43 58 L 43 64.5 L 29 64.5 Z M 29 58 "/></clipPath></defs><g id="02ea01df2a"><path style=" stroke:none;fill-rule:nonzero;fill:#009dff;fill-opacity:1;" d="M 51.109375 36.039062 C 49.359375 24.78125 49.4375 13.824219 35.910156 13.824219 C 22.378906 13.824219 22.457031 24.859375 20.707031 36.039062 C 19.792969 41.9375 16.136719 46.980469 12.824219 50.449219 C 12.417969 50.878906 12.160156 51.386719 12.054688 51.96875 C 11.953125 52.550781 12.019531 53.113281 12.253906 53.65625 C 12.488281 54.199219 12.855469 54.632812 13.351562 54.957031 C 13.847656 55.28125 14.394531 55.4375 14.984375 55.433594 L 56.800781 55.433594 C 57.390625 55.4375 57.9375 55.28125 58.433594 54.957031 C 58.929688 54.632812 59.296875 54.199219 59.53125 53.65625 C 59.765625 53.113281 59.832031 52.550781 59.730469 51.96875 C 59.625 51.386719 59.367188 50.878906 58.960938 50.449219 C 55.679688 46.964844 52.070312 41.921875 51.109375 36.039062 Z M 51.109375 36.039062 "/><g clip-rule="nonzero" clip-path="url(#644a06fd8d)"><path style=" stroke:none;fill-rule:nonzero;fill:#009dff;fill-opacity:1;" d="M 39.457031 10.90625 C 39.457031 10.445312 39.367188 10.003906 39.191406 9.578125 C 39.015625 9.152344 38.765625 8.777344 38.441406 8.453125 C 38.113281 8.128906 37.738281 7.878906 37.316406 7.699219 C 36.890625 7.523438 36.445312 7.4375 35.988281 7.4375 C 35.527344 7.4375 35.085938 7.523438 34.660156 7.699219 C 34.234375 7.878906 33.859375 8.128906 33.535156 8.453125 C 33.207031 8.777344 32.957031 9.152344 32.78125 9.578125 C 32.605469 10.003906 32.519531 10.445312 32.519531 10.90625 C 34.832031 10.566406 37.144531 10.566406 39.457031 10.90625 Z M 39.457031 10.90625 "/></g><g clip-rule="nonzero" clip-path="url(#1a4f264355)"><path style=" stroke:none;fill-rule:nonzero;fill:#009dff;fill-opacity:1;" d="M 35.910156 64.074219 C 36.699219 64.070312 37.464844 63.933594 38.207031 63.664062 C 38.949219 63.398438 39.625 63.011719 40.234375 62.511719 C 40.847656 62.011719 41.355469 61.421875 41.761719 60.746094 C 42.167969 60.070312 42.453125 59.34375 42.609375 58.570312 L 29.175781 58.570312 C 29.332031 59.347656 29.617188 60.074219 30.027344 60.753906 C 30.4375 61.429688 30.949219 62.019531 31.5625 62.523438 C 32.175781 63.023438 32.855469 63.40625 33.601562 63.671875 C 34.347656 63.941406 35.117188 64.074219 35.910156 64.074219 Z M 35.910156 64.074219 "/></g></g></svg>