<svg width="30" height="30" viewBox="0 0 30 30" fill="none" xmlns="http://www.w3.org/2000/svg">
<mask id="path-1-inside-1_6004_6901" fill="white">
<path d="M4 2H6.6V25.4L4 28V2Z"/>
</mask>
<path d="M6.6 2H9.2V-0.6H6.6V2ZM4 2V-0.6H1.4V2H4ZM4 28H1.4V34.277L5.83848 29.8385L4 28ZM6.6 25.4L8.43848 27.2385L9.2 26.477V25.4H6.6ZM6.6 -0.6H4V4.6H6.6V-0.6ZM1.4 2V28H6.6V2H1.4ZM5.83848 29.8385L8.43848 27.2385L4.76152 23.5615L2.16152 26.1615L5.83848 29.8385ZM9.2 25.4V2H4V25.4H9.2Z" fill="#009DFF" mask="url(#path-1-inside-1_6004_6901)"/>
<mask id="path-3-inside-2_6004_6901" fill="white">
<path d="M10.5 2H13.1V20.72L10.5 22.8V2Z"/>
</mask>
<path d="M13.1 2H15.7V-0.6H13.1V2ZM10.5 2V-0.6H7.9V2H10.5ZM10.5 22.8H7.9V28.2096L12.1242 24.8303L10.5 22.8ZM13.1 20.72L14.7242 22.7503L15.7 21.9696V20.72H13.1ZM13.1 -0.6H10.5V4.6H13.1V-0.6ZM7.9 2V22.8H13.1V2H7.9ZM12.1242 24.8303L14.7242 22.7503L11.4758 18.6897L8.87579 20.7697L12.1242 24.8303ZM15.7 20.72V2H10.5V20.72H15.7Z" fill="#009DFF" mask="url(#path-3-inside-2_6004_6901)"/>
<mask id="path-5-inside-3_6004_6901" fill="white">
<path d="M17 2H19.6V16.04L17 17.6V2Z"/>
</mask>
<path d="M19.6 2H22.2V-0.6H19.6V2ZM17 2V-0.6H14.4V2H17ZM17 17.6H14.4V22.1921L18.3377 19.8295L17 17.6ZM19.6 16.04L20.9377 18.2695L22.2 17.5121V16.04H19.6ZM19.6 -0.6H17V4.6H19.6V-0.6ZM14.4 2V17.6H19.6V2H14.4ZM18.3377 19.8295L20.9377 18.2695L18.2623 13.8105L15.6623 15.3705L18.3377 19.8295ZM22.2 16.04V2H17V16.04H22.2Z" fill="#009DFF" mask="url(#path-5-inside-3_6004_6901)"/>
<mask id="path-7-inside-4_6004_6901" fill="white">
<path d="M23.5 2H26.1V11.36L23.5 12.4V2Z"/>
</mask>
<path d="M26.1 2H28.7V-0.6H26.1V2ZM23.5 2V-0.6H20.9V2H23.5ZM23.5 12.4H20.9V16.2403L24.4656 14.814L23.5 12.4ZM26.1 11.36L27.0656 13.774L28.7 13.1203V11.36H26.1ZM26.1 -0.6H23.5V4.6H26.1V-0.6ZM20.9 2V12.4H26.1V2H20.9ZM24.4656 14.814L27.0656 13.774L25.1344 8.94596L22.5344 9.98596L24.4656 14.814ZM28.7 11.36V2H23.5V11.36H28.7Z" fill="#009DFF" mask="url(#path-7-inside-4_6004_6901)"/>
</svg>
