<svg width="30" height="30" viewBox="0 0 30 30" fill="none" xmlns="http://www.w3.org/2000/svg">
<path d="M8.49964 2.00002H16.5787C19.365 2.00002 21.5381 2.58662 22.738 3.95979C23.8312 5.20631 24.1578 6.58615 23.8378 8.62591C24.2733 8.84293 24.6661 9.13645 24.9977 9.49248C26.0176 10.6657 26.2176 12.3321 25.8309 14.3319C24.8977 19.118 21.7114 20.7778 17.6386 20.7778H16.9986C16.7539 20.7807 16.5186 20.8721 16.336 21.0351C16.1534 21.198 16.036 21.4216 16.0054 21.6644L15.9588 21.9377L15.1655 26.9304L15.1255 27.1437C15.0875 27.3816 14.966 27.5981 14.7827 27.7545C14.5995 27.9109 14.3665 27.9968 14.1256 27.997H9.91947C9.7848 28.0078 9.64938 27.9895 9.52244 27.9433C9.39549 27.897 9.28 27.824 9.18384 27.7291C9.08768 27.6342 9.01311 27.5197 8.9652 27.3934C8.9173 27.267 8.89719 27.1319 8.90625 26.9971C9.46619 23.4242 10.0061 20.0712 10.5661 16.505C10.8935 16.4445 11.228 16.431 11.5593 16.465H14.3856C19.0517 16.465 22.6913 14.5785 23.7578 9.13252L23.8378 8.65924C23.5692 8.49573 23.2884 8.35311 22.9979 8.23262L22.758 8.1593L22.2514 8.03265C22.078 7.99265 21.9047 7.95932 21.7181 7.93266C21.028 7.82464 20.3302 7.77337 19.6317 7.77934H12.8058C12.6533 7.7775 12.5026 7.81176 12.3658 7.87933C12.2187 7.95042 12.0909 8.05605 11.9934 8.18721C11.8959 8.31837 11.8316 8.47117 11.8059 8.63258C10.9482 14.1075 10.0839 19.5757 9.21289 25.0373V25.1106H4.68008C4.58011 25.1127 4.48096 25.0922 4.38998 25.0507C4.299 25.0092 4.21852 24.9477 4.1545 24.8709C4.09048 24.7941 4.04457 24.7039 4.02016 24.6069C3.99575 24.5099 3.99348 24.4087 4.0135 24.3107L7.34644 2.97991C7.38952 2.70558 7.5296 2.45581 7.74122 2.27599C7.95284 2.09618 8.22195 1.99826 8.49964 2.00002Z" stroke="#009DFF" stroke-width="1.2" stroke-linecap="round" stroke-linejoin="round"/>
</svg>
