<svg width="30" height="30" viewBox="0 0 30 30" fill="none" xmlns="http://www.w3.org/2000/svg">
<path d="M28.9043 13.5886C28.6491 12.8618 27.9565 12.34 27.1453 12.34H27.1271C26.5985 12.34 26.1223 12.561 25.7828 12.9142C25.6092 12.7326 25.4005 12.5881 25.1695 12.4894C24.9384 12.3907 24.6898 12.3399 24.4385 12.34H24.4226C23.9578 12.34 23.5317 12.5109 23.2059 12.7911V12.6499C23.1945 12.5063 23.0783 12.3947 22.9325 12.3947H21.6839C21.5312 12.3947 21.4082 12.5177 21.4082 12.6704V19.4465C21.4082 19.5992 21.5312 19.7222 21.6839 19.7222H22.9325C22.9987 19.7222 23.0627 19.6982 23.1125 19.6547C23.1624 19.6111 23.1948 19.5509 23.2036 19.4852V14.6207C23.2036 14.6025 23.2036 14.5888 23.2059 14.5729C23.2264 14.3564 23.3859 14.1764 23.6365 14.1559H23.8666C23.9714 14.165 24.0603 14.2015 24.1286 14.2585C24.238 14.345 24.2973 14.4772 24.2973 14.623L24.3018 19.4625C24.3018 19.6151 24.4248 19.7404 24.5775 19.7404H25.8261C25.8967 19.7405 25.9646 19.7133 26.0155 19.6644C26.0665 19.6156 26.0966 19.5489 26.0995 19.4784V14.6185C26.0995 14.459 26.1724 14.3131 26.3023 14.2288C26.3661 14.1878 26.4436 14.1605 26.5324 14.1514H26.7625C27.0337 14.1742 27.1955 14.3792 27.1955 14.6185L27.2 19.4533C27.2 19.606 27.323 19.729 27.4757 19.729H28.7243C28.8701 19.729 28.9909 19.6151 29 19.4716V14.1696C28.9932 13.8711 28.9544 13.7321 28.9043 13.5886ZM20.4558 12.4129H19.7426V11.2509C19.7425 11.2137 19.7341 11.1771 19.7182 11.1436C19.7022 11.11 19.679 11.0804 19.6503 11.0569C19.6215 11.0334 19.5879 11.0165 19.5519 11.0075C19.5159 10.9985 19.4783 10.9976 19.4419 11.0048C18.6512 11.2213 18.8084 12.3172 17.3639 12.4106H17.2249C17.2044 12.4106 17.1839 12.4129 17.1634 12.4175C17.0426 12.4471 16.9492 12.5564 16.9492 12.6886V13.9372C16.9492 14.0898 17.0723 14.2129 17.2249 14.2129H17.9768L17.9745 19.5035C17.9745 19.6538 18.0976 19.7769 18.2479 19.7769H19.4829C19.6332 19.7769 19.7563 19.6538 19.7563 19.5035V14.2129H20.4558C20.6061 14.2129 20.7315 14.0876 20.7315 13.9372V12.6886C20.7315 12.5359 20.6084 12.4129 20.4558 12.4129Z" fill="#009DFF"/>
<path d="M15.9672 12.4129H14.7186C14.5682 12.4129 14.4429 12.536 14.4429 12.6886V15.2701C14.4406 15.4296 14.3108 15.5572 14.1513 15.5572H13.6295C13.4677 15.5572 13.3356 15.4273 13.3356 15.2656L13.331 12.6886C13.331 12.536 13.208 12.4129 13.0553 12.4129H11.8067C11.6541 12.4129 11.531 12.536 11.531 12.6886V15.5162C11.531 16.5893 12.2966 17.3572 13.372 17.3572C13.372 17.3572 14.1786 17.3572 14.2037 17.3617C14.3495 17.3777 14.4611 17.5007 14.4611 17.6511C14.4611 17.7992 14.3518 17.9222 14.206 17.9405C14.1991 17.9405 14.1923 17.9427 14.1855 17.945L12.3604 17.9519C12.2077 17.9519 12.0847 18.0749 12.0847 18.2276V19.4739C12.0847 19.6265 12.2077 19.7496 12.3604 19.7496H14.3996C15.4751 19.7496 16.2406 18.984 16.2406 17.9108V12.6886C16.2429 12.536 16.1199 12.4129 15.9672 12.4129ZM8.86752 12.4198H7.13589C6.98324 12.4198 6.85792 12.536 6.85792 12.6772V13.8484C6.85792 13.9987 6.99007 14.124 7.15184 14.124H8.80145C8.93132 14.1446 9.03385 14.2402 9.0498 14.3883V14.5501C9.03613 14.6914 8.9336 14.7939 8.80828 14.8053H7.9926C6.90577 14.8053 6.13337 15.5276 6.13337 16.5392V17.9906C6.13337 18.9977 6.79868 19.7131 7.87639 19.7131H10.1389C10.5445 19.7131 10.8748 19.4055 10.8748 19.0273V14.2927C10.8748 13.1443 10.2824 12.4198 8.86752 12.4198ZM9.06575 17.6283V17.8243C9.06575 17.8402 9.06347 17.8562 9.06119 17.8698C9.05891 17.8835 9.05436 17.8972 9.0498 17.9108C9.01107 18.0202 8.9017 18.1 8.77183 18.1H8.25234C8.09057 18.1 7.95842 17.9769 7.95842 17.8243V16.7557C7.95842 16.6053 8.09057 16.4823 8.25234 16.4823H8.77183C8.9336 16.4823 9.06575 16.6053 9.06575 16.7579V17.6283ZM3.99845 12.4106H1.27114C1.12076 12.4106 1 12.5337 1 12.6818V19.4625C1 19.6129 1.11164 19.7359 1.25291 19.7382H2.52429C2.67695 19.7382 2.79998 19.6151 2.79998 19.4625L2.80454 17.5668H3.99845C4.99642 17.5668 5.69363 16.8741 5.69363 15.8693V14.1104C5.69363 13.1079 4.99642 12.4106 3.99845 12.4106ZM3.88909 14.6982V15.4683C3.88909 15.6301 3.75922 15.7623 3.59744 15.7623H2.80682V14.2197H3.59744C3.75922 14.2197 3.88909 14.3496 3.88909 14.5114V14.6982Z" fill="#009DFF"/>
</svg>
