<svg width="30" height="30" viewBox="0 0 30 30" fill="none" xmlns="http://www.w3.org/2000/svg">
<path fill-rule="evenodd" clip-rule="evenodd" d="M28.7547 10.9276H27.5163C27.4513 10.9275 27.3891 10.9017 27.3432 10.8557C27.2973 10.8098 27.2715 10.7475 27.2715 10.6825L27.272 9.42882C27.272 9.29354 27.3818 9.18404 27.5168 9.18404L28.7555 9.18455C28.8905 9.18455 29 9.29431 29 9.42933L28.9995 10.6833C28.9995 10.8183 28.89 10.9276 28.7547 10.9276ZM27.1043 9.1843L26.2631 9.18404C26.2413 9.18404 26.2197 9.17974 26.1995 9.17139C26.1794 9.16304 26.1611 9.15079 26.1457 9.13536C26.1303 9.11993 26.118 9.10161 26.1097 9.08145C26.1014 9.06129 26.0971 9.03969 26.0972 9.01788V8.1659C26.0972 8.07402 26.1717 8 26.2633 8H27.1048C27.1965 8 27.2707 8.07453 27.2707 8.16641L27.2705 9.01788C27.2705 9.10977 27.196 9.1843 27.1043 9.1843Z" fill="#009DFF"/>
<mask id="mask0_6020_6842" style="mask-type:luminance" maskUnits="userSpaceOnUse" x="1" y="11" width="26" height="11">
<path d="M1 11.4868H26.0934V21.9712H1V11.4868Z" fill="white"/>
</mask>
<g mask="url(#mask0_6020_6842)">
<path opacity="0.963" fill-rule="evenodd" clip-rule="evenodd" d="M26.0934 12.2985V16.5443C26.0934 17.2274 25.9395 17.8057 25.6416 18.2718C25.0668 19.1751 23.9535 19.6562 22.3707 19.6562H22.359C20.776 19.6562 19.6627 19.1751 19.0879 18.2718C18.79 17.8057 18.6361 17.2274 18.6361 16.5443V12.2985C18.6361 11.6126 18.9161 11.4883 19.6693 11.4883H19.9064C20.6594 11.4883 20.9394 11.6126 20.9394 12.2985V13.9037L20.9399 13.9139V14.2656C20.9399 14.2778 20.9409 14.2891 20.9409 14.3016V16.5443C20.9409 16.8185 20.9937 17.0367 21.1027 17.2062C21.3082 17.5221 21.7145 17.6658 22.3649 17.6669C23.0152 17.6658 23.4215 17.5221 23.627 17.2057C23.736 17.0364 23.7886 16.8182 23.7886 16.5443V14.3016C23.7886 14.2891 23.7893 14.2778 23.7896 14.2656V13.9139L23.7901 13.9037V12.2985C23.7901 11.6126 24.0704 11.4883 24.8233 11.4883H25.0604C25.8134 11.4883 26.0934 11.6126 26.0934 12.2985ZM17.8635 13.9345L16.4635 19.5347C16.0531 21.1764 15.352 21.8811 14.0434 21.9666C14.0115 21.9695 13.9796 21.971 13.9477 21.9712C13.6656 21.9712 13.5765 21.8155 13.5242 21.5643L13.5002 21.4556C13.4762 21.3413 13.4612 21.2131 13.5278 21.1233C13.5924 21.037 13.708 21.0117 13.8856 20.9967C14.7621 20.9068 15.0595 20.5015 15.3517 19.5827C15.2131 19.6291 15.047 19.6541 14.867 19.6541C13.904 19.6541 13.646 18.9834 13.429 18.1727L12.2728 13.9376C12.2345 13.7936 12.209 13.6474 12.284 13.5496C12.3591 13.4516 12.5051 13.4381 12.6518 13.4381H12.7493C13.113 13.4381 13.2526 13.5453 13.3473 13.897L14.4916 18.0957C14.6396 18.6197 14.7882 18.7082 15.1593 18.7082C15.4622 18.7082 15.6394 18.6138 15.7655 18.0977L16.7757 13.8991C16.8561 13.5502 16.9988 13.4381 17.3622 13.4381H17.4717C17.6177 13.4381 17.7632 13.4514 17.84 13.5479C17.9168 13.6446 17.8969 13.7908 17.8635 13.9345ZM10.7978 16.774H9.45089C8.36792 16.774 7.94602 17.0492 7.94602 17.7554C7.94602 18.3994 8.36665 18.7126 9.23165 18.7126C10.541 18.7126 10.7975 18.3126 10.7975 17.6217L10.7978 16.774ZM9.2319 13.2599C11.004 13.2599 11.8654 13.9103 11.8654 15.2482V17.6582C11.8654 19.0416 11.0571 19.6585 9.24415 19.6585C7.7186 19.6585 6.87862 18.9826 6.87862 17.7554C6.87862 16.4902 7.69206 15.9011 9.4389 15.9011H10.7978V15.2482C10.7978 14.5165 10.3583 14.2181 9.28065 14.2181C8.68084 14.2181 8.13209 14.3067 7.96082 14.3496C7.88782 14.3677 7.82682 14.3766 7.7745 14.3766C7.66653 14.3766 7.5869 14.3381 7.53713 14.262C7.49476 14.1969 7.47485 14.104 7.47485 13.9703V13.8728C7.47485 13.531 7.60068 13.4486 7.9011 13.3835C8.07057 13.3493 8.518 13.2599 9.2319 13.2599ZM5.80764 14.0716C5.80764 15.079 5.55036 15.625 4.19327 15.625H2.10415V13.0249C2.10415 12.6642 2.23841 12.5302 2.5988 12.5302H4.19327C5.21575 12.5302 5.80764 12.7824 5.80764 14.0716ZM4.19327 11.4868H2.39206C1.42931 11.4868 1 11.9161 1 12.8789V19.0617C1 19.4336 1.11945 19.5531 1.49133 19.5531H1.61308C1.98496 19.5531 2.10415 19.4336 2.10415 19.0617V16.6564H4.19327C6.04808 16.6564 6.91205 15.835 6.91205 14.0716C6.91205 12.3079 6.04808 11.4868 4.19327 11.4868Z" fill="#009DFF"/>
</g>
<path opacity="0.921" fill-rule="evenodd" clip-rule="evenodd" d="M26.9408 13.2737L25.2731 13.2732C25.1858 13.2732 25.102 13.2385 25.0403 13.1767C24.9785 13.115 24.9438 13.0312 24.9438 12.9439L24.9446 11.2555C24.9446 11.0735 25.0921 10.9263 25.2739 10.9263L26.9416 10.9268C27.1236 10.9268 27.2708 11.0743 27.2708 11.256L27.2703 12.9447C27.2703 12.9879 27.2618 13.0308 27.2452 13.0707C27.2287 13.1107 27.2044 13.147 27.1738 13.1776C27.1432 13.2082 27.1069 13.2324 27.0669 13.2489C27.0269 13.2655 26.9841 13.2737 26.9408 13.2737Z" fill="#009DFF"/>
</svg>
