<svg width="30" height="30" viewBox="0 0 30 30" fill="none" xmlns="http://www.w3.org/2000/svg">
<path d="M20.2083 7.5C20.0933 7.5 20 7.59327 20 7.70833V9.79167C20 9.90673 20.0933 10 20.2083 10H22.2917C22.4067 10 22.5 9.90673 22.5 9.79167V7.70833C22.5 7.59327 22.4067 7.5 22.2917 7.5H20.2083ZM20 22.5V21.875C20 21.5298 20.2798 21.25 20.625 21.25C20.9702 21.25 21.25 21.5298 21.25 21.875V22.5H22.5V21.875C22.5 21.5298 22.7798 21.25 23.125 21.25C23.4702 21.25 23.75 21.5298 23.75 21.875V23.125C23.75 23.4702 23.4702 23.75 23.125 23.75H18.125C17.7798 23.75 17.5 23.4702 17.5 23.125V21.875C17.5 21.5298 17.7798 21.25 18.125 21.25C18.4702 21.25 18.75 21.5298 18.75 21.875V22.5H20ZM16.25 13.75H16.875C17.2202 13.75 17.5 14.0298 17.5 14.375C17.5 14.7202 17.2202 15 16.875 15H14.375C14.0298 15 13.75 14.7202 13.75 14.375C13.75 14.0298 14.0298 13.75 14.375 13.75H15V12.5H13.125C12.7798 12.5 12.5 12.2202 12.5 11.875C12.5 11.5298 12.7798 11.25 13.125 11.25H16.875C17.2202 11.25 17.5 11.5298 17.5 11.875C17.5 12.2202 17.2202 12.5 16.875 12.5H16.25V13.75ZM22.5 15H21.875C21.5298 15 21.25 14.7202 21.25 14.375C21.25 14.0298 21.5298 13.75 21.875 13.75H22.5V13.125C22.5 12.7798 22.7798 12.5 23.125 12.5C23.4702 12.5 23.75 12.7798 23.75 13.125V15.625C23.75 15.9702 23.4702 16.25 23.125 16.25C22.7798 16.25 22.5 15.9702 22.5 15.625V15ZM16.25 17.5H15.625C15.2798 17.5 15 17.2202 15 16.875C15 16.5298 15.2798 16.25 15.625 16.25H16.875C17.2202 16.25 17.5 16.5298 17.5 16.875V19.375C17.5 19.7202 17.2202 20 16.875 20H13.125C12.7798 20 12.5 19.7202 12.5 19.375C12.5 19.0298 12.7798 18.75 13.125 18.75H16.25V17.5ZM20.2083 6.25H22.2917C23.0971 6.25 23.75 6.90292 23.75 7.70833V9.79167C23.75 10.5971 23.0971 11.25 22.2917 11.25H20.2083C19.4029 11.25 18.75 10.5971 18.75 9.79167V7.70833C18.75 6.90292 19.4029 6.25 20.2083 6.25ZM7.70833 6.25H9.79167C10.5971 6.25 11.25 6.90292 11.25 7.70833V9.79167C11.25 10.5971 10.5971 11.25 9.79167 11.25H7.70833C6.90292 11.25 6.25 10.5971 6.25 9.79167V7.70833C6.25 6.90292 6.90292 6.25 7.70833 6.25ZM7.70833 7.5C7.59327 7.5 7.5 7.59327 7.5 7.70833V9.79167C7.5 9.90673 7.59327 10 7.70833 10H9.79167C9.90673 10 10 9.90673 10 9.79167V7.70833C10 7.59327 9.90673 7.5 9.79167 7.5H7.70833ZM7.70833 18.75H9.79167C10.5971 18.75 11.25 19.4029 11.25 20.2083V22.2917C11.25 23.0971 10.5971 23.75 9.79167 23.75H7.70833C6.90292 23.75 6.25 23.0971 6.25 22.2917V20.2083C6.25 19.4029 6.90292 18.75 7.70833 18.75ZM7.70833 20C7.59327 20 7.5 20.0933 7.5 20.2083V22.2917C7.5 22.4067 7.59327 22.5 7.70833 22.5H9.79167C9.90673 22.5 10 22.4067 10 22.2917V20.2083C10 20.0933 9.90673 20 9.79167 20H7.70833ZM16.25 7.5H13.125C12.7798 7.5 12.5 7.22018 12.5 6.875C12.5 6.52982 12.7798 6.25 13.125 6.25H16.875C17.2202 6.25 17.5 6.52982 17.5 6.875V9.375C17.5 9.72018 17.2202 10 16.875 10C16.5298 10 16.25 9.72018 16.25 9.375V7.5ZM13.125 10C12.7798 10 12.5 9.72018 12.5 9.375C12.5 9.02982 12.7798 8.75 13.125 8.75H14.375C14.7202 8.75 15 9.02982 15 9.375C15 9.72018 14.7202 10 14.375 10H13.125ZM6.875 17.5C6.52982 17.5 6.25 17.2202 6.25 16.875C6.25 16.5298 6.52982 16.25 6.875 16.25H9.375C9.72018 16.25 10 16.5298 10 16.875C10 17.2202 9.72018 17.5 9.375 17.5H6.875ZM11.875 17.5C11.5298 17.5 11.25 17.2202 11.25 16.875C11.25 16.5298 11.5298 16.25 11.875 16.25H13.125C13.4702 16.25 13.75 16.5298 13.75 16.875C13.75 17.2202 13.4702 17.5 13.125 17.5H11.875ZM13.75 22.5V23.125C13.75 23.4702 13.4702 23.75 13.125 23.75C12.7798 23.75 12.5 23.4702 12.5 23.125V21.875C12.5 21.5298 12.7798 21.25 13.125 21.25H15.625C15.9702 21.25 16.25 21.5298 16.25 21.875C16.25 22.2202 15.9702 22.5 15.625 22.5H13.75ZM11.25 13.75H11.875C12.2202 13.75 12.5 14.0298 12.5 14.375C12.5 14.7202 12.2202 15 11.875 15H10.625C10.2798 15 10 14.7202 10 14.375V13.75H9.375C9.02982 13.75 8.75 13.4702 8.75 13.125C8.75 12.7798 9.02982 12.5 9.375 12.5H10.625C10.9702 12.5 11.25 12.7798 11.25 13.125V13.75ZM6.25 13.125C6.25 12.7798 6.52982 12.5 6.875 12.5C7.22018 12.5 7.5 12.7798 7.5 13.125V14.375C7.5 14.7202 7.22018 15 6.875 15C6.52982 15 6.25 14.7202 6.25 14.375V13.125ZM18.75 13.125C18.75 12.7798 19.0298 12.5 19.375 12.5C19.7202 12.5 20 12.7798 20 13.125V15.625C20 15.9702 19.7202 16.25 19.375 16.25C19.0298 16.25 18.75 15.9702 18.75 15.625V13.125ZM21.25 18.75V18.125C21.25 17.7798 21.5298 17.5 21.875 17.5H23.125C23.4702 17.5 23.75 17.7798 23.75 18.125C23.75 18.4702 23.4702 18.75 23.125 18.75H22.5V19.375C22.5 19.7202 22.2202 20 21.875 20H19.375C19.0298 20 18.75 19.7202 18.75 19.375V18.125C18.75 17.7798 19.0298 17.5 19.375 17.5C19.7202 17.5 20 17.7798 20 18.125V18.75H21.25ZM3.75 8.125C3.75 8.47018 3.47018 8.75 3.125 8.75C2.77982 8.75 2.5 8.47018 2.5 8.125V5.625C2.5 3.89911 3.89911 2.5 5.625 2.5H8.125C8.47018 2.5 8.75 2.77982 8.75 3.125C8.75 3.47018 8.47018 3.75 8.125 3.75H5.625C4.58947 3.75 3.75 4.58947 3.75 5.625V8.125ZM21.875 3.75C21.5298 3.75 21.25 3.47018 21.25 3.125C21.25 2.77982 21.5298 2.5 21.875 2.5H24.375C26.1009 2.5 27.5 3.89911 27.5 5.625V8.125C27.5 8.47018 27.2202 8.75 26.875 8.75C26.5298 8.75 26.25 8.47018 26.25 8.125V5.625C26.25 4.58947 25.4105 3.75 24.375 3.75H21.875ZM8.125 26.25C8.47018 26.25 8.75 26.5298 8.75 26.875C8.75 27.2202 8.47018 27.5 8.125 27.5H5.625C3.89911 27.5 2.5 26.1009 2.5 24.375V21.875C2.5 21.5298 2.77982 21.25 3.125 21.25C3.47018 21.25 3.75 21.5298 3.75 21.875V24.375C3.75 25.4105 4.58947 26.25 5.625 26.25H8.125ZM26.25 21.875C26.25 21.5298 26.5298 21.25 26.875 21.25C27.2202 21.25 27.5 21.5298 27.5 21.875V24.375C27.5 26.1009 26.1009 27.5 24.375 27.5H21.875C21.5298 27.5 21.25 27.2202 21.25 26.875C21.25 26.5298 21.5298 26.25 21.875 26.25H24.375C25.4105 26.25 26.25 25.4105 26.25 24.375V21.875Z" fill="#009DFF"/>
</svg>
