<svg width="30" height="30" viewBox="0 0 30 30" fill="none" xmlns="http://www.w3.org/2000/svg">
<path fill-rule="evenodd" clip-rule="evenodd" d="M16.1589 10.6105L14.2067 11.0389V9.42049L16.1589 9V10.6105ZM20.2189 11.5069C19.4567 11.5069 18.9667 11.8719 18.6945 12.1257L18.5933 11.6339H16.8822V20.8841L18.8267 20.4637L18.8345 18.2185C19.1145 18.4248 19.5267 18.7183 20.2111 18.7183C21.6033 18.7183 22.8711 17.5759 22.8711 15.0611C22.8633 12.7604 21.58 11.5069 20.2189 11.5069ZM19.7522 16.973C19.2933 16.973 19.0211 16.8064 18.8345 16.6001L18.8267 13.6569C19.0289 13.4268 19.3089 13.2681 19.7522 13.2681C20.46 13.2681 20.95 14.0773 20.95 15.1166C20.95 16.1797 20.4678 16.973 19.7522 16.973ZM29 15.1404C29 13.1095 28.0355 11.5069 26.1922 11.5069C24.3411 11.5069 23.2211 13.1095 23.2211 15.1245C23.2211 17.5125 24.5433 18.7183 26.4411 18.7183C27.3667 18.7183 28.0667 18.5041 28.5955 18.2027V16.616C28.0667 16.8857 27.46 17.0523 26.69 17.0523C25.9355 17.0523 25.2667 16.7826 25.1811 15.8465H28.9845C28.9845 15.8027 28.9873 15.7034 28.9905 15.589C28.9948 15.4335 29 15.2501 29 15.1404ZM25.1578 14.3867C25.1578 13.4903 25.6945 13.1174 26.1845 13.1174C26.6589 13.1174 27.1645 13.4903 27.1645 14.3867H25.1578ZM14.2067 11.6418H16.1589V18.5835H14.2067V11.6418ZM11.99 11.6418L12.1145 12.2289C12.5733 11.3721 13.4833 11.5466 13.7322 11.6418V13.4665C13.4911 13.3792 12.7133 13.2681 12.2545 13.879V18.5835H10.31V11.6418H11.99ZM8.22554 9.92029L6.32777 10.3328L6.32 16.6874C6.32 17.8615 7.18331 18.7263 8.33446 18.7263C8.97223 18.7263 9.43892 18.6073 9.69554 18.4645V16.854C9.44669 16.9571 8.21777 17.3221 8.21777 16.1479V13.3316H9.69554V11.6418H8.21777L8.22554 9.92029ZM3.62892 13.2285C3.21669 13.2285 2.96777 13.3475 2.96777 13.6569C2.96777 13.9947 3.3961 14.1433 3.92754 14.3276C4.79386 14.6282 5.93409 15.0238 5.93892 16.4891C5.93892 17.9091 4.82669 18.7263 3.20892 18.7263C2.54 18.7263 1.80892 18.5914 1.08555 18.2741V16.3859C1.73892 16.7509 2.56331 17.0206 3.20892 17.0206C3.64446 17.0206 3.95554 16.9016 3.95554 16.5367C3.95554 16.1625 3.49123 15.9915 2.93067 15.785C2.07695 15.4704 1 15.0738 1 13.7521C1 12.3479 2.05 11.5069 3.62892 11.5069C4.27446 11.5069 4.91223 11.6101 5.55777 11.8719V13.7362C4.96669 13.4109 4.22 13.2285 3.62892 13.2285Z" fill="#009DFF"/>
</svg>
