<svg width="30" height="30" viewBox="0 0 30 30" fill="none" xmlns="http://www.w3.org/2000/svg">
<path d="M19.0896 15.7513C19.0999 15.7513 19.1111 15.7513 19.1223 15.7513C19.3378 15.7513 19.5478 15.7758 19.7494 15.8237L19.7308 15.82L19.7158 15.9583C19.6524 16.5049 19.2539 16.9424 18.735 17.0591L18.7266 17.061C18.6911 17.0685 18.65 17.0732 18.608 17.0732C18.3224 17.0732 18.0835 16.8747 18.0182 16.6075L18.0173 16.6037C18.0135 16.5783 18.0117 16.5482 18.0117 16.5181C18.0117 16.3676 18.0639 16.2293 18.1517 16.1201L18.1507 16.1211C18.3224 15.9197 18.5688 15.788 18.846 15.7682H18.8488C18.9197 15.7588 19.0037 15.7522 19.0877 15.7522L19.0896 15.7513ZM26.8992 14.5074C27.1951 14.5074 27.3742 14.7756 27.3742 15.3317C27.3742 16.1389 27.0523 16.8023 26.6454 16.8023C26.3402 16.8023 26.161 16.5247 26.161 15.9771C26.161 15.1614 26.4923 14.5074 26.8992 14.5074ZM7.50583 14.5074C7.80355 14.5074 7.9818 14.7756 7.9818 15.3317C7.9818 16.1389 7.65982 16.8023 7.25198 16.8023C6.94774 16.8023 6.76948 16.5247 6.76948 15.9771C6.76948 15.1614 7.09986 14.5074 7.50677 14.5074H7.50583ZM1.68782 13.417C1.62996 13.8752 1.5693 14.3315 1.48343 14.7455C1.86608 14.7361 2.20579 14.7267 3.12879 14.7267L1.01773 17.0309L1 17.857C1.51797 17.8222 2.16286 17.8109 2.90107 17.8109C3.5609 17.8109 4.22352 17.8203 4.64722 17.857C4.72282 17.3188 4.79841 16.9603 4.89174 16.52C4.5707 16.5379 4.01167 16.5473 3.12879 16.5473L5.23985 14.2318L5.26692 13.416C4.75735 13.4433 4.29911 13.4508 3.49463 13.4508C2.62109 13.4508 2.35791 13.4424 1.68782 13.416V13.417ZM7.66636 13.3106C6.30938 13.384 5.23705 14.5112 5.23705 15.8915C5.23705 15.9404 5.23798 15.9884 5.24078 16.0364V16.0298C5.23518 16.0815 5.23238 16.1408 5.23238 16.201C5.23238 17.1927 6.0294 17.9962 7.01307 17.9962C7.04946 17.9962 7.08493 17.9953 7.12039 17.9934H7.11573C8.4727 17.9228 9.54596 16.7957 9.54596 15.4173C9.54596 15.3646 9.5441 15.3119 9.5413 15.2602V15.2677C9.5469 15.215 9.5497 15.1548 9.5497 15.0927C9.5497 14.1076 8.75735 13.3088 7.78021 13.3088C7.74008 13.3088 7.70089 13.3097 7.66169 13.3125H7.66729L7.66636 13.3106ZM13.3574 13.3012C12.5408 13.4377 11.8791 13.9937 11.5898 14.7389L11.5842 14.7549C11.6393 14.4839 11.671 14.1734 11.671 13.8545C11.671 13.6757 11.6608 13.4988 11.6412 13.3248L11.643 13.3464C11.1997 13.4254 10.6818 13.4772 10.1545 13.4894H10.1423C10.1451 13.5656 10.1461 13.656 10.1461 13.7463C10.1461 14.1716 10.1134 14.5884 10.0509 14.9958L10.0565 14.9506L9.86141 16.297C9.78488 16.8258 9.70089 17.4364 9.61503 17.8222H11.1932C11.2016 17.5879 11.2604 17.2209 11.3024 16.8982L11.4377 15.9743C11.5488 15.3731 12.0229 14.6646 12.3878 14.6646C12.5996 14.6646 12.5922 14.8716 12.5324 15.2573L12.3794 16.2979C12.3028 16.8267 12.2189 17.4374 12.133 17.8231H13.727C13.7364 17.5888 13.7867 17.221 13.8297 16.8992L13.965 15.9752C14.0742 15.3731 14.5502 14.6655 14.9141 14.6655C15.126 14.6655 15.1185 14.8631 15.084 15.1313L14.7023 17.8241H16.1582L16.6687 14.7568C16.7797 13.9937 16.72 13.3031 15.8801 13.3031C15.0868 13.432 14.441 13.9627 14.1479 14.6777L14.1423 14.6928C14.2441 13.9759 14.1843 13.3031 13.3528 13.3031L13.3574 13.3012ZM27.0924 13.2523C25.7177 13.3266 24.6314 14.4679 24.6314 15.8651C24.6314 15.915 24.6323 15.9639 24.6351 16.0129V16.0063C24.6295 16.059 24.6267 16.1201 24.6267 16.1813C24.6267 17.1852 25.434 18 26.4307 18C26.4671 18 26.5035 17.9991 26.539 17.9972H26.5343C27.909 17.9247 28.9963 16.7834 28.9963 15.3862C28.9963 15.3326 28.9944 15.2799 28.9916 15.2272V15.2347C28.9972 15.1821 29 15.12 29 15.0579C29 14.0596 28.1974 13.2504 27.2072 13.2504C27.1671 13.2504 27.1269 13.2514 27.0877 13.2542H27.0933L27.0924 13.2523ZM19.4704 13.1789C19.3192 13.1817 19.1736 13.193 19.0299 13.2119L19.0495 13.21C18.4634 13.2777 17.9323 13.4584 17.4573 13.7284L17.4778 13.7171L17.7811 14.6448C18.1106 14.4566 18.4951 14.3212 18.9048 14.2638L18.9216 14.2619C19.5488 14.1847 19.8045 14.3795 19.8427 14.7032C19.8474 14.7464 19.8502 14.7972 19.8502 14.849C19.8502 14.9177 19.8455 14.9845 19.8362 15.0503L19.8371 15.0428L19.8213 15.1087C19.5898 15.0607 19.3238 15.0334 19.0504 15.0334C18.8712 15.0334 18.6939 15.0456 18.5212 15.0682L18.5418 15.0663C17.9799 15.1096 17.4862 15.3731 17.14 15.7692L17.1381 15.7711C16.9552 16.0232 16.846 16.3403 16.846 16.6828C16.846 16.79 16.8572 16.8954 16.8777 16.997L16.8759 16.9867C16.9701 17.5211 17.4265 17.921 17.9762 17.921C18.0817 17.921 18.1843 17.9059 18.2814 17.8786L18.2739 17.8805C18.7937 17.8231 19.2399 17.5465 19.5254 17.1447L19.5292 17.1391C19.5236 17.2708 19.5114 17.3941 19.4918 17.5145L19.4946 17.4966C19.4741 17.6265 19.4442 17.7413 19.406 17.8523L19.4106 17.8382L20.8619 17.8391C20.8544 17.6961 20.8541 17.5531 20.8609 17.4101C20.9033 16.8706 20.9994 16.0668 21.1493 14.9986C21.1624 14.897 21.1699 14.7803 21.1699 14.6608C21.1699 14.5347 21.1615 14.4115 21.1456 14.2901L21.1475 14.3042C21.0541 13.5468 20.4148 13.1648 19.4732 13.178L19.4704 13.1789ZM23.8773 12L22.4102 12.5561L22.2151 13.3906L21.6953 13.4151L21.5609 14.5648H22.0369L21.7905 16.3403C21.6374 17.4439 21.8325 17.9642 22.7993 17.9642C23.2856 17.9558 23.7401 17.8278 24.1377 17.6077L24.1227 17.6152L24.2916 16.5567C24.0826 16.6715 23.839 16.7514 23.5796 16.7797L23.5712 16.7806C23.2828 16.7806 23.2492 16.6282 23.3089 16.2067L23.5292 14.5648H24.5119C24.5474 14.323 24.665 13.5336 24.6986 13.3887H23.6897L23.8773 12Z" fill="#009DFF"/>
</svg>
