<svg width="31" height="30" viewBox="0 0 31 30" fill="none" xmlns="http://www.w3.org/2000/svg">
<path d="M8 10H13" stroke="#009DFF" stroke-width="2.5" stroke-linecap="round" stroke-linejoin="round"/>
<path d="M26.5416 11.25H23.2885C21.0581 11.25 19.25 12.9289 19.25 15C19.25 17.0711 21.0581 18.75 23.2885 18.75H26.5416C26.6459 18.75 26.6979 18.75 26.7419 18.7474C27.416 18.7063 27.9529 18.2078 27.9971 17.5818C28 17.5409 28 17.4925 28 17.3959V12.6041C28 12.5075 28 12.4591 27.9971 12.4182C27.9529 11.7923 27.416 11.2937 26.7419 11.2527C26.6979 11.25 26.6459 11.25 26.5416 11.25Z" stroke="#009DFF" stroke-width="2.5"/>
<path d="M26.7062 11.25C26.6091 8.90963 26.2957 7.47469 25.2855 6.46446C23.8211 5 21.464 5 16.75 5H13C8.28595 5 5.92894 5 4.46446 6.46446C3 7.92894 3 10.286 3 15C3 19.714 3 22.0711 4.46446 23.5355C5.92894 25 8.28595 25 13 25H16.75C21.464 25 23.8211 25 25.2855 23.5355C26.2957 22.5254 26.6091 21.0904 26.7062 18.75" stroke="#009DFF" stroke-width="2.5"/>
<path d="M22.9888 15H23" stroke="#009DFF" stroke-width="2.5" stroke-linecap="round" stroke-linejoin="round"/>
</svg>
