<svg xmlns="http://www.w3.org/2000/svg" xmlns:xlink="http://www.w3.org/1999/xlink" width="96" zoomAndPan="magnify" viewBox="0 0 72 72" height="96" preserveAspectRatio="xMidYMid meet" version="1.2"><defs><clipPath id="27b4e05e90"><path d="M 40 7.5 L 51.96875 7.5 L 51.96875 64 L 40 64 Z M 40 7.5 "/></clipPath><clipPath id="3eff0e9e99"><path d="M 20 7.5 L 32 7.5 L 32 64 L 20 64 Z M 20 7.5 "/></clipPath></defs><g id="5683791a5d"><g clip-rule="nonzero" clip-path="url(#27b4e05e90)"><path style=" stroke:none;fill-rule:nonzero;fill:#009dff;fill-opacity:1;" d="M 46.011719 7.5 C 45.65625 7.5 45.308594 7.535156 44.960938 7.601562 C 44.617188 7.671875 44.277344 7.773438 43.953125 7.910156 C 43.625 8.042969 43.316406 8.210938 43.023438 8.40625 C 42.730469 8.601562 42.457031 8.824219 42.207031 9.074219 C 41.957031 9.324219 41.734375 9.597656 41.539062 9.890625 C 41.34375 10.183594 41.179688 10.492188 41.042969 10.820312 C 40.90625 11.144531 40.804688 11.480469 40.738281 11.828125 C 40.667969 12.175781 40.632812 12.523438 40.632812 12.878906 L 40.632812 58.589844 C 40.632812 58.941406 40.667969 59.292969 40.738281 59.636719 C 40.804688 59.984375 40.90625 60.320312 41.042969 60.648438 C 41.179688 60.972656 41.34375 61.28125 41.539062 61.578125 C 41.734375 61.871094 41.957031 62.140625 42.207031 62.390625 C 42.457031 62.640625 42.730469 62.863281 43.023438 63.058594 C 43.316406 63.257812 43.625 63.421875 43.953125 63.558594 C 44.277344 63.691406 44.617188 63.792969 44.960938 63.863281 C 45.308594 63.933594 45.65625 63.964844 46.011719 63.964844 C 46.363281 63.964844 46.714844 63.933594 47.058594 63.863281 C 47.40625 63.792969 47.742188 63.691406 48.070312 63.558594 C 48.394531 63.421875 48.707031 63.257812 49 63.058594 C 49.292969 62.863281 49.5625 62.640625 49.8125 62.390625 C 50.0625 62.140625 50.285156 61.871094 50.484375 61.578125 C 50.679688 61.28125 50.84375 60.972656 50.980469 60.648438 C 51.113281 60.320312 51.214844 59.984375 51.285156 59.636719 C 51.355469 59.292969 51.390625 58.941406 51.390625 58.589844 L 51.390625 12.878906 C 51.390625 12.523438 51.355469 12.175781 51.285156 11.828125 C 51.214844 11.480469 51.113281 11.144531 50.980469 10.820312 C 50.84375 10.492188 50.679688 10.183594 50.484375 9.890625 C 50.285156 9.597656 50.0625 9.324219 49.8125 9.074219 C 49.5625 8.824219 49.292969 8.601562 49 8.40625 C 48.707031 8.210938 48.394531 8.042969 48.070312 7.910156 C 47.742188 7.773438 47.40625 7.671875 47.058594 7.601562 C 46.714844 7.535156 46.363281 7.5 46.011719 7.5 Z M 46.011719 7.5 "/></g><g clip-rule="nonzero" clip-path="url(#3eff0e9e99)"><path style=" stroke:none;fill-rule:nonzero;fill:#009dff;fill-opacity:1;" d="M 25.675781 7.5 C 25.324219 7.5 24.976562 7.535156 24.628906 7.601562 C 24.28125 7.671875 23.945312 7.773438 23.621094 7.910156 C 23.292969 8.042969 22.984375 8.210938 22.691406 8.40625 C 22.394531 8.601562 22.125 8.824219 21.875 9.074219 C 21.625 9.324219 21.402344 9.597656 21.207031 9.890625 C 21.011719 10.183594 20.84375 10.492188 20.710938 10.820312 C 20.574219 11.144531 20.472656 11.480469 20.402344 11.828125 C 20.335938 12.175781 20.300781 12.523438 20.300781 12.878906 L 20.300781 58.589844 C 20.300781 58.941406 20.335938 59.292969 20.402344 59.636719 C 20.472656 59.984375 20.574219 60.320312 20.710938 60.648438 C 20.84375 60.972656 21.011719 61.28125 21.207031 61.578125 C 21.402344 61.871094 21.625 62.140625 21.875 62.390625 C 22.125 62.640625 22.394531 62.863281 22.691406 63.058594 C 22.984375 63.257812 23.292969 63.421875 23.621094 63.558594 C 23.945312 63.691406 24.28125 63.792969 24.628906 63.863281 C 24.976562 63.933594 25.324219 63.964844 25.675781 63.964844 C 26.03125 63.964844 26.378906 63.933594 26.726562 63.863281 C 27.074219 63.792969 27.410156 63.691406 27.734375 63.558594 C 28.0625 63.421875 28.371094 63.257812 28.664062 63.058594 C 28.960938 62.863281 29.230469 62.640625 29.480469 62.390625 C 29.730469 62.140625 29.953125 61.871094 30.148438 61.578125 C 30.34375 61.28125 30.511719 60.972656 30.644531 60.648438 C 30.78125 60.320312 30.882812 59.984375 30.953125 59.636719 C 31.019531 59.292969 31.054688 58.941406 31.054688 58.589844 L 31.054688 12.878906 C 31.054688 12.523438 31.019531 12.175781 30.953125 11.828125 C 30.882812 11.480469 30.78125 11.144531 30.644531 10.820312 C 30.511719 10.492188 30.34375 10.183594 30.148438 9.890625 C 29.953125 9.597656 29.730469 9.324219 29.480469 9.074219 C 29.230469 8.824219 28.960938 8.601562 28.664062 8.40625 C 28.371094 8.210938 28.0625 8.042969 27.734375 7.910156 C 27.410156 7.773438 27.074219 7.671875 26.726562 7.601562 C 26.378906 7.535156 26.03125 7.5 25.675781 7.5 Z M 25.675781 7.5 "/></g></g></svg>