<svg width="31" height="30" viewBox="0 0 31 30" fill="none" xmlns="http://www.w3.org/2000/svg">
<path d="M9.40616 2.81252H16.9812C19.5937 2.81252 21.6312 3.36252 22.7562 4.65002C23.7812 5.81877 24.0874 7.11252 23.7874 9.02502C24.1957 9.2285 24.564 9.50371 24.8749 9.83752C25.8312 10.9375 26.0187 12.5 25.6562 14.375C24.7812 18.8625 21.7937 20.4188 17.9749 20.4188H17.3749C17.1455 20.4215 16.9248 20.5072 16.7536 20.66C16.5824 20.8128 16.4723 21.0224 16.4437 21.25L16.3999 21.5063L15.6562 26.1875L15.6187 26.3875C15.583 26.6105 15.469 26.8136 15.2972 26.9602C15.1254 27.1068 14.907 27.1874 14.6812 27.1875H10.7374C10.6111 27.1977 10.4842 27.1805 10.3651 27.1372C10.2461 27.0938 10.1378 27.0253 10.0477 26.9364C9.95752 26.8474 9.8876 26.74 9.84268 26.6216C9.79777 26.5031 9.77892 26.3764 9.78741 26.25C10.3124 22.9 10.8187 19.7563 11.3437 16.4125C11.6507 16.3558 11.9643 16.3431 12.2749 16.375H14.9249C19.2999 16.375 22.7124 14.6063 23.7124 9.50002L23.7874 9.05627C23.5355 8.90297 23.2723 8.76924 22.9999 8.65627L22.7749 8.58752L22.2999 8.46877C22.1374 8.43127 21.9749 8.40002 21.7999 8.37502C21.1528 8.27375 20.4986 8.22567 19.8437 8.23127H13.4437C13.3007 8.22954 13.1593 8.26167 13.0312 8.32502C12.8932 8.39167 12.7734 8.49071 12.682 8.61369C12.5905 8.73667 12.5302 8.87994 12.5062 9.03127C11.702 14.1646 10.8916 19.2917 10.0749 24.4125V24.4813H5.82491C5.73117 24.4832 5.63821 24.464 5.5529 24.425C5.4676 24.3861 5.39214 24.3285 5.33212 24.2565C5.2721 24.1845 5.22905 24.0999 5.20616 24.009C5.18328 23.918 5.18114 23.8231 5.19991 23.7313L8.32491 3.73127C8.36531 3.47405 8.49665 3.23987 8.69506 3.07127C8.89348 2.90268 9.14579 2.81087 9.40616 2.81252Z" stroke="#009DFF" stroke-width="1.25" stroke-linecap="round" stroke-linejoin="round"/>
</svg>
