<svg width="31" height="30" viewBox="0 0 31 30" fill="none" xmlns="http://www.w3.org/2000/svg">
<mask id="path-1-inside-1_1716_1762" fill="white">
<path d="M7.5 5H9.5V23L7.5 25V5Z"/>
</mask>
<path d="M9.5 5H11.5V3H9.5V5ZM7.5 5V3H5.5V5H7.5ZM7.5 25H5.5V29.8284L8.91421 26.4142L7.5 25ZM9.5 23L10.9142 24.4142L11.5 23.8284V23H9.5ZM9.5 3H7.5V7H9.5V3ZM5.5 5V25H9.5V5H5.5ZM8.91421 26.4142L10.9142 24.4142L8.08579 21.5858L6.08579 23.5858L8.91421 26.4142ZM11.5 23V5H7.5V23H11.5Z" fill="#009DFF" mask="url(#path-1-inside-1_1716_1762)"/>
<mask id="path-3-inside-2_1716_1762" fill="white">
<path d="M12.5 5H14.5V19.4L12.5 21V5Z"/>
</mask>
<path d="M14.5 5H16.5V3H14.5V5ZM12.5 5V3H10.5V5H12.5ZM12.5 21H10.5V25.1612L13.7494 22.5617L12.5 21ZM14.5 19.4L15.7494 20.9617L16.5 20.3613V19.4H14.5ZM14.5 3H12.5V7H14.5V3ZM10.5 5V21H14.5V5H10.5ZM13.7494 22.5617L15.7494 20.9617L13.2506 17.8383L11.2506 19.4383L13.7494 22.5617ZM16.5 19.4V5H12.5V19.4H16.5Z" fill="#009DFF" mask="url(#path-3-inside-2_1716_1762)"/>
<mask id="path-5-inside-3_1716_1762" fill="white">
<path d="M17.5 5H19.5V15.8L17.5 17V5Z"/>
</mask>
<path d="M19.5 5H21.5V3H19.5V5ZM17.5 5V3H15.5V5H17.5ZM17.5 17H15.5V20.5324L18.529 18.715L17.5 17ZM19.5 15.8L20.529 17.515L21.5 16.9324V15.8H19.5ZM19.5 3H17.5V7H19.5V3ZM15.5 5V17H19.5V5H15.5ZM18.529 18.715L20.529 17.515L18.471 14.085L16.471 15.285L18.529 18.715ZM21.5 15.8V5H17.5V15.8H21.5Z" fill="#009DFF" mask="url(#path-5-inside-3_1716_1762)"/>
<mask id="path-7-inside-4_1716_1762" fill="white">
<path d="M22.5 5H24.5V12.2L22.5 13V5Z"/>
</mask>
<path d="M24.5 5H26.5V3H24.5V5ZM22.5 5V3H20.5V5H22.5ZM22.5 13H20.5V15.9541L23.2428 14.857L22.5 13ZM24.5 12.2L25.2428 14.057L26.5 13.5541V12.2H24.5ZM24.5 3H22.5V7H24.5V3ZM20.5 5V13H24.5V5H20.5ZM23.2428 14.857L25.2428 14.057L23.7572 10.343L21.7572 11.143L23.2428 14.857ZM26.5 12.2V5H22.5V12.2H26.5Z" fill="#009DFF" mask="url(#path-7-inside-4_1716_1762)"/>
</svg>
