<svg xmlns="http://www.w3.org/2000/svg" xmlns:xlink="http://www.w3.org/1999/xlink" width="96" zoomAndPan="magnify" viewBox="0 0 72 72" height="96" preserveAspectRatio="xMidYMid meet" version="1.2"><defs><clipPath id="3e285a2de1"><path d="M 7.5 10.277344 L 64.5 10.277344 L 64.5 52 L 7.5 52 Z M 7.5 10.277344 "/></clipPath></defs><g id="84ed97c628"><path style=" stroke:none;fill-rule:evenodd;fill:#009dff;fill-opacity:1;" d="M 43.445312 61.164062 C 43.082031 61.164062 42.789062 60.871094 42.789062 60.511719 L 29.207031 60.511719 C 29.207031 61.375 27.898438 61.371094 27.898438 60.511719 L 27.898438 50.296875 C 27.898438 49.9375 28.191406 49.640625 28.554688 49.640625 L 43.445312 49.640625 C 43.804688 49.640625 44.101562 49.9375 44.101562 50.296875 L 44.101562 60.511719 C 44.101562 60.871094 43.808594 61.164062 43.445312 61.164062 Z M 43.445312 61.164062 "/><path style=" stroke:none;fill-rule:evenodd;fill:#009dff;fill-opacity:1;" d="M 49.15625 61.710938 L 22.839844 61.710938 C 21.257812 61.710938 21.257812 59.308594 22.839844 59.308594 L 49.15625 59.308594 C 50.738281 59.308594 50.738281 61.710938 49.15625 61.710938 Z M 49.15625 61.710938 "/><g clip-rule="nonzero" clip-path="url(#3e285a2de1)"><path style=" stroke:none;fill-rule:evenodd;fill:#009dff;fill-opacity:1;" d="M 61.070312 51.496094 L 10.929688 51.496094 C 9.042969 51.496094 7.511719 49.964844 7.511719 48.082031 L 7.511719 13.695312 C 7.511719 11.8125 9.042969 10.277344 10.929688 10.277344 L 61.070312 10.277344 C 62.953125 10.277344 64.484375 11.8125 64.484375 13.695312 L 64.484375 48.082031 C 64.484375 49.964844 62.953125 51.496094 61.070312 51.496094 Z M 9.914062 42.679688 L 62.085938 42.679688 L 62.085938 13.695312 C 62.085938 13.136719 61.628906 12.679688 61.070312 12.679688 L 10.929688 12.679688 C 10.371094 12.679688 9.914062 13.136719 9.914062 13.695312 Z M 38.078125 47.472656 L 33.921875 47.472656 C 33.058594 47.472656 33.058594 46.160156 33.921875 46.160156 L 38.078125 46.160156 C 38.9375 46.160156 38.9375 47.472656 38.078125 47.472656 Z M 38.078125 47.472656 "/></g></g></svg>