<svg xmlns="http://www.w3.org/2000/svg" xmlns:xlink="http://www.w3.org/1999/xlink" width="96" zoomAndPan="magnify" viewBox="0 0 72 72" height="96" preserveAspectRatio="xMidYMid meet" version="1.2"><defs><clipPath id="db3dbb7907"><path d="M 28.125 23.25 L 43.875 23.25 L 43.875 48.75 L 28.125 48.75 Z M 28.125 23.25 "/></clipPath></defs><g id="6b634fbb45"><g clip-rule="nonzero" clip-path="url(#db3dbb7907)"><path style=" stroke:none;fill-rule:nonzero;fill:#009dff;fill-opacity:1;" d="M 43.371094 37.410156 C 43.039062 36.75 42.578125 36.183594 41.992188 35.707031 C 41.402344 35.234375 40.703125 34.820312 39.894531 34.472656 C 39.082031 34.125 38.199219 33.792969 37.238281 33.472656 C 36.742188 33.3125 36.304688 33.160156 35.929688 33.019531 C 35.554688 32.878906 35.238281 32.730469 34.984375 32.570312 C 34.730469 32.414062 34.542969 32.242188 34.414062 32.054688 C 34.289062 31.871094 34.226562 31.652344 34.226562 31.398438 C 34.226562 31.144531 34.285156 30.929688 34.402344 30.753906 C 34.519531 30.574219 34.675781 30.433594 34.878906 30.324219 C 35.074219 30.214844 35.308594 30.136719 35.570312 30.085938 C 35.832031 30.039062 36.113281 30.011719 36.410156 30.011719 C 36.699219 30.011719 36.984375 30.054688 37.265625 30.140625 C 37.546875 30.226562 37.8125 30.335938 38.066406 30.46875 C 38.320312 30.597656 38.558594 30.746094 38.78125 30.90625 C 39.003906 31.070312 39.203125 31.230469 39.386719 31.382812 L 39.507812 31.492188 C 39.632812 31.601562 39.75 31.691406 39.851562 31.761719 C 39.957031 31.835938 40.074219 31.871094 40.199219 31.871094 C 40.351562 31.871094 40.507812 31.796875 40.660156 31.640625 L 42.738281 29.429688 C 42.855469 29.300781 42.945312 29.1875 43.003906 29.089844 C 43.0625 28.988281 43.089844 28.878906 43.089844 28.761719 C 43.089844 28.644531 43.03125 28.503906 42.910156 28.34375 C 42.785156 28.179688 42.621094 28.007812 42.414062 27.824219 C 42.203125 27.644531 41.960938 27.457031 41.6875 27.261719 C 41.410156 27.066406 41.117188 26.878906 40.808594 26.699219 C 40.332031 26.4375 39.847656 26.222656 39.363281 26.054688 C 38.878906 25.886719 38.386719 25.757812 37.878906 25.667969 L 37.878906 23.847656 C 37.878906 23.667969 37.804688 23.519531 37.652344 23.414062 C 37.503906 23.304688 37.363281 23.25 37.226562 23.25 L 34.671875 23.25 C 34.472656 23.25 34.324219 23.308594 34.226562 23.425781 C 34.125 23.542969 34.074219 23.683594 34.074219 23.847656 L 34.074219 25.734375 C 33.289062 25.890625 32.578125 26.125 31.949219 26.449219 C 31.320312 26.769531 30.789062 27.160156 30.355469 27.621094 C 29.921875 28.082031 29.585938 28.609375 29.351562 29.199219 C 29.113281 29.785156 28.996094 30.429688 28.996094 31.125 C 28.996094 31.921875 29.132812 32.644531 29.40625 33.292969 C 29.675781 33.9375 30.082031 34.53125 30.625 35.070312 C 31.167969 35.609375 31.847656 36.097656 32.664062 36.535156 C 33.476562 36.976562 34.429688 37.386719 35.515625 37.765625 C 35.757812 37.847656 36.050781 37.949219 36.382812 38.070312 C 36.71875 38.191406 37.039062 38.339844 37.347656 38.511719 C 37.65625 38.683594 37.914062 38.882812 38.128906 39.101562 C 38.339844 39.324219 38.449219 39.574219 38.449219 39.855469 C 38.449219 40.109375 38.410156 40.351562 38.332031 40.574219 C 38.253906 40.800781 38.125 41 37.945312 41.171875 C 37.765625 41.34375 37.519531 41.484375 37.207031 41.585938 C 36.894531 41.691406 36.507812 41.742188 36.042969 41.742188 C 35.546875 41.742188 35.070312 41.65625 34.617188 41.484375 C 34.167969 41.3125 33.710938 41.074219 33.246094 40.765625 C 32.9375 40.558594 32.664062 40.347656 32.425781 40.136719 C 32.1875 39.921875 31.988281 39.753906 31.835938 39.625 C 31.707031 39.515625 31.601562 39.433594 31.507812 39.382812 C 31.417969 39.328125 31.332031 39.300781 31.25 39.300781 C 31.132812 39.300781 30.980469 39.367188 30.789062 39.503906 L 28.441406 41.742188 C 28.234375 41.933594 28.128906 42.105469 28.128906 42.257812 C 28.128906 42.394531 28.234375 42.578125 28.441406 42.800781 C 28.449219 42.8125 28.457031 42.820312 28.46875 42.824219 C 28.476562 42.828125 28.484375 42.839844 28.496094 42.855469 C 28.503906 42.867188 28.511719 42.871094 28.523438 42.878906 C 28.53125 42.882812 28.539062 42.894531 28.550781 42.910156 L 28.589844 42.953125 C 28.734375 43.105469 28.933594 43.308594 29.179688 43.5625 C 29.429688 43.816406 29.734375 44.074219 30.097656 44.335938 C 30.695312 44.769531 31.328125 45.148438 32 45.464844 C 32.667969 45.78125 33.359375 46.015625 34.074219 46.171875 L 34.074219 48.152344 C 34.074219 48.550781 34.273438 48.75 34.671875 48.75 L 37.226562 48.75 C 37.660156 48.75 37.878906 48.550781 37.878906 48.152344 L 37.878906 46.210938 C 38.746094 46.058594 39.546875 45.796875 40.273438 45.429688 C 41.003906 45.0625 41.632812 44.605469 42.167969 44.050781 C 42.703125 43.5 43.117188 42.867188 43.417969 42.15625 C 43.714844 41.449219 43.867188 40.667969 43.867188 39.816406 C 43.867188 38.875 43.699219 38.074219 43.371094 37.410156 "/></g><path style=" stroke:none;fill-rule:nonzero;fill:#009dff;fill-opacity:1;" d="M 23.390625 25.007812 L 22.65625 13.40625 C 22.628906 12.96875 22.222656 12.652344 21.792969 12.730469 L 10.363281 14.839844 C 9.742188 14.957031 9.546875 15.75 10.042969 16.140625 L 22.207031 25.632812 C 22.707031 26.019531 23.429688 25.636719 23.390625 25.007812 Z M 23.390625 25.007812 "/><path style=" stroke:none;fill-rule:nonzero;fill:#009dff;fill-opacity:1;" d="M 54.070312 15.742188 C 49.207031 11.421875 43.289062 9.242188 37.367188 9.023438 L 37.324219 12.105469 C 41.964844 12.289062 46.59375 13.828125 50.574219 16.84375 C 61.328125 24.992188 63.109375 40.589844 54.175781 50.976562 C 46.515625 59.878906 33.15625 61.71875 23.378906 55.222656 C 11.964844 47.640625 9.460938 32.140625 17.609375 21.386719 L 15.164062 19.53125 C 6.289062 31.242188 8.589844 47.929688 20.296875 56.800781 C 32.449219 66.011719 49.960938 63.1875 58.539062 50.296875 C 65.808594 39.371094 63.886719 24.457031 54.070312 15.742188 Z M 54.070312 15.742188 "/><path style=" stroke:none;fill-rule:nonzero;fill:#009dff;fill-opacity:1;" d="M 35.804688 10.542969 C 35.792969 11.390625 36.46875 12.09375 37.320312 12.105469 L 37.367188 9.023438 C 36.519531 9.011719 35.820312 9.691406 35.804688 10.542969 Z M 35.804688 10.542969 "/></g></svg>