<svg xmlns="http://www.w3.org/2000/svg" xmlns:xlink="http://www.w3.org/1999/xlink" width="96" zoomAndPan="magnify" viewBox="0 0 72 72" height="96" preserveAspectRatio="xMidYMid meet" version="1.2"><defs><clipPath id="b321b8c090"><path d="M 8.640625 7.5 L 63.390625 7.5 L 63.390625 64.5 L 8.640625 64.5 Z M 8.640625 7.5 "/></clipPath></defs><g id="32ad3e295c"><path style=" stroke:none;fill-rule:nonzero;fill:#009dff;fill-opacity:1;" d="M 55.066406 62.007812 C 55.441406 62.007812 55.800781 61.9375 56.144531 61.792969 C 56.492188 61.652344 56.796875 61.449219 57.058594 61.183594 C 57.324219 60.917969 57.527344 60.613281 57.667969 60.269531 C 57.8125 59.925781 57.882812 59.566406 57.882812 59.191406 C 57.882812 58.820312 57.8125 58.460938 57.667969 58.113281 C 57.527344 57.769531 57.324219 57.464844 57.058594 57.199219 C 56.796875 56.9375 56.492188 56.734375 56.144531 56.589844 C 55.800781 56.445312 55.441406 56.375 55.066406 56.375 C 54.695312 56.375 54.335938 56.445312 53.988281 56.589844 C 53.644531 56.734375 53.339844 56.9375 53.078125 57.199219 C 52.8125 57.464844 52.609375 57.769531 52.464844 58.113281 C 52.324219 58.460938 52.25 58.820312 52.25 59.191406 C 52.25 59.566406 52.320312 59.925781 52.464844 60.269531 C 52.605469 60.617188 52.808594 60.921875 53.074219 61.183594 C 53.339844 61.449219 53.644531 61.652344 53.988281 61.796875 C 54.335938 61.9375 54.695312 62.007812 55.066406 62.007812 Z M 55.066406 57.675781 C 55.269531 57.675781 55.460938 57.714844 55.648438 57.792969 C 55.832031 57.867188 55.996094 57.976562 56.140625 58.121094 C 56.28125 58.261719 56.390625 58.425781 56.46875 58.613281 C 56.546875 58.796875 56.585938 58.992188 56.585938 59.191406 C 56.585938 59.394531 56.546875 59.585938 56.46875 59.773438 C 56.390625 59.957031 56.28125 60.121094 56.140625 60.265625 C 55.996094 60.40625 55.832031 60.515625 55.648438 60.59375 C 55.460938 60.671875 55.269531 60.707031 55.066406 60.707031 C 54.867188 60.707031 54.671875 60.671875 54.488281 60.59375 C 54.300781 60.515625 54.136719 60.40625 53.996094 60.265625 C 53.851562 60.121094 53.742188 59.957031 53.667969 59.773438 C 53.589844 59.585938 53.550781 59.394531 53.550781 59.191406 C 53.550781 58.992188 53.589844 58.796875 53.667969 58.613281 C 53.746094 58.425781 53.855469 58.261719 53.996094 58.121094 C 54.140625 57.980469 54.300781 57.871094 54.488281 57.792969 C 54.671875 57.714844 54.867188 57.675781 55.066406 57.675781 Z M 55.066406 57.675781 "/><g clip-rule="nonzero" clip-path="url(#b321b8c090)"><path style=" stroke:none;fill-rule:nonzero;fill:#009dff;fill-opacity:1;" d="M 60.929688 17.335938 C 61.246094 17.335938 61.550781 17.273438 61.84375 17.152344 C 62.136719 17.03125 62.394531 16.859375 62.621094 16.632812 C 62.84375 16.410156 63.019531 16.152344 63.140625 15.859375 C 63.261719 15.566406 63.320312 15.257812 63.320312 14.941406 L 63.320312 9.894531 C 63.320312 9.578125 63.261719 9.269531 63.140625 8.976562 C 63.019531 8.683594 62.84375 8.425781 62.621094 8.203125 C 62.394531 7.976562 62.136719 7.804688 61.84375 7.683594 C 61.550781 7.5625 61.246094 7.5 60.929688 7.5 L 43.109375 7.5 C 42.792969 7.5 42.484375 7.5625 42.191406 7.683594 C 41.898438 7.804688 41.640625 7.976562 41.417969 8.203125 C 41.191406 8.425781 41.019531 8.683594 40.898438 8.976562 C 40.777344 9.269531 40.714844 9.578125 40.714844 9.894531 L 40.714844 14.941406 C 40.714844 15.257812 40.777344 15.566406 40.898438 15.859375 C 41.019531 16.152344 41.191406 16.410156 41.417969 16.632812 C 41.640625 16.859375 41.898438 17.03125 42.191406 17.152344 C 42.484375 17.273438 42.792969 17.335938 43.109375 17.335938 L 49.5 17.335938 L 49.5 21.191406 L 33.21875 21.191406 L 33.21875 14.019531 C 33.226562 13.765625 33.117188 13.578125 32.894531 13.457031 C 32.671875 13.332031 32.453125 13.335938 32.234375 13.46875 L 30.132812 14.757812 L 28.472656 13.5 C 28.230469 13.320312 27.980469 13.3125 27.726562 13.480469 L 25.808594 14.734375 L 24.238281 13.492188 C 24.125 13.402344 23.996094 13.351562 23.851562 13.347656 C 23.707031 13.34375 23.578125 13.386719 23.457031 13.46875 L 21.671875 14.726562 L 19.289062 13.445312 C 19.066406 13.332031 18.851562 13.339844 18.636719 13.46875 C 18.429688 13.59375 18.324219 13.777344 18.324219 14.019531 L 18.324219 21.191406 L 13.191406 21.191406 C 10.699219 21.191406 8.671875 23.273438 8.671875 25.828125 L 8.671875 59.851562 C 8.671875 62.421875 10.699219 64.5 13.191406 64.5 L 58.816406 64.5 C 61.296875 64.5 63.320312 62.421875 63.320312 59.851562 L 63.320312 25.828125 C 63.320312 23.273438 61.308594 21.191406 58.816406 21.191406 L 55.285156 21.191406 L 55.285156 17.335938 Z M 50.800781 21.191406 L 50.800781 17.335938 L 53.984375 17.335938 L 53.984375 21.191406 Z M 34.910156 40.050781 L 34.910156 36.867188 L 38.082031 36.867188 L 38.082031 40.050781 Z M 38.082031 44.828125 L 38.082031 48.003906 L 34.910156 48.003906 L 34.910156 44.828125 Z M 30.476562 44.828125 L 30.476562 48.003906 L 27.292969 48.003906 L 27.292969 44.828125 Z M 27.292969 40.050781 L 27.292969 36.867188 L 30.476562 36.867188 L 30.476562 40.050781 Z M 22.234375 44.828125 L 22.234375 48.003906 L 19.0625 48.003906 L 19.0625 44.828125 Z M 19.0625 40.050781 L 19.0625 36.867188 L 22.234375 36.867188 L 22.234375 40.050781 Z M 53.953125 44.828125 L 53.953125 48.003906 L 50.777344 48.003906 L 50.777344 44.828125 Z M 50.777344 40.050781 L 50.777344 36.867188 L 53.953125 36.867188 L 53.953125 40.050781 Z M 45.992188 44.828125 L 45.992188 48.003906 L 42.816406 48.003906 L 42.816406 44.828125 Z M 42.816406 36.867188 L 45.992188 36.867188 L 45.992188 40.050781 L 42.816406 40.050781 Z M 59.195312 30.53125 C 59.195312 30.675781 59.167969 30.816406 59.113281 30.949219 C 59.058594 31.082031 58.976562 31.203125 58.875 31.304688 C 58.773438 31.40625 58.652344 31.484375 58.519531 31.542969 C 58.386719 31.597656 58.246094 31.625 58.101562 31.625 L 44.527344 31.625 C 44.382812 31.625 44.242188 31.597656 44.109375 31.542969 C 43.972656 31.484375 43.855469 31.40625 43.753906 31.304688 C 43.652344 31.203125 43.570312 31.082031 43.515625 30.949219 C 43.460938 30.816406 43.433594 30.675781 43.433594 30.53125 L 43.433594 25.980469 C 43.433594 25.835938 43.460938 25.695312 43.515625 25.5625 C 43.570312 25.425781 43.652344 25.308594 43.753906 25.207031 C 43.855469 25.101562 43.972656 25.023438 44.109375 24.96875 C 44.242188 24.914062 44.382812 24.886719 44.527344 24.886719 L 58.101562 24.886719 C 58.246094 24.886719 58.386719 24.914062 58.519531 24.96875 C 58.652344 25.023438 58.773438 25.101562 58.875 25.207031 C 58.976562 25.308594 59.058594 25.425781 59.113281 25.5625 C 59.167969 25.695312 59.195312 25.835938 59.195312 25.980469 Z M 19.625 15.105469 L 21.410156 16.070312 C 21.648438 16.1875 21.875 16.175781 22.09375 16.023438 L 23.804688 14.8125 L 25.367188 16.046875 C 25.476562 16.136719 25.601562 16.183594 25.746094 16.1875 C 25.886719 16.195312 26.015625 16.160156 26.132812 16.078125 L 28.050781 14.824219 L 29.699219 16.058594 C 29.933594 16.230469 30.179688 16.246094 30.433594 16.101562 L 31.917969 15.179688 L 31.917969 28.210938 L 19.625 28.210938 Z M 18.972656 29.511719 L 32.570312 29.511719 C 32.75 29.511719 32.902344 29.445312 33.027344 29.320312 C 33.15625 29.195312 33.21875 29.039062 33.21875 28.863281 L 33.21875 24.886719 L 36.511719 24.886719 L 36.511719 30.996094 L 15.152344 30.996094 L 15.152344 24.886719 L 18.324219 24.886719 L 18.324219 28.863281 C 18.324219 29.039062 18.386719 29.195312 18.515625 29.320312 C 18.640625 29.445312 18.796875 29.511719 18.972656 29.511719 Z M 62.023438 59.851562 C 62.023438 61.707031 60.582031 63.199219 58.816406 63.199219 L 13.191406 63.199219 C 11.414062 63.199219 9.972656 61.707031 9.972656 59.851562 L 9.972656 54.308594 L 62.023438 54.308594 Z M 43.109375 16.035156 C 42.964844 16.035156 42.824219 16.007812 42.691406 15.953125 C 42.554688 15.898438 42.4375 15.820312 42.335938 15.714844 C 42.230469 15.613281 42.152344 15.496094 42.097656 15.359375 C 42.042969 15.226562 42.015625 15.085938 42.015625 14.941406 L 42.015625 9.894531 C 42.015625 9.75 42.042969 9.609375 42.097656 9.476562 C 42.152344 9.339844 42.230469 9.222656 42.335938 9.121094 C 42.4375 9.015625 42.554688 8.9375 42.691406 8.882812 C 42.824219 8.828125 42.964844 8.800781 43.109375 8.800781 L 60.929688 8.800781 C 61.074219 8.800781 61.214844 8.828125 61.347656 8.882812 C 61.480469 8.9375 61.601562 9.015625 61.703125 9.121094 C 61.804688 9.222656 61.882812 9.339844 61.941406 9.476562 C 61.996094 9.609375 62.023438 9.75 62.023438 9.894531 L 62.023438 14.941406 C 62.023438 15.085938 61.996094 15.226562 61.941406 15.359375 C 61.882812 15.496094 61.804688 15.613281 61.703125 15.714844 C 61.601562 15.820312 61.480469 15.898438 61.347656 15.953125 C 61.214844 16.007812 61.074219 16.035156 60.929688 16.035156 Z M 43.109375 16.035156 "/></g><path style=" stroke:none;fill-rule:nonzero;fill:#009dff;fill-opacity:1;" d="M 24.738281 20.457031 L 29.644531 20.457031 L 29.644531 21.753906 L 24.738281 21.753906 Z M 24.738281 20.457031 "/><path style=" stroke:none;fill-rule:nonzero;fill:#009dff;fill-opacity:1;" d="M 21.910156 20.457031 L 23.382812 20.457031 L 23.382812 21.753906 L 21.910156 21.753906 Z M 21.910156 20.457031 "/><path style=" stroke:none;fill-rule:nonzero;fill:#009dff;fill-opacity:1;" d="M 24.640625 23.585938 L 29.546875 23.585938 L 29.546875 24.886719 L 24.640625 24.886719 Z M 24.640625 23.585938 "/><path style=" stroke:none;fill-rule:nonzero;fill:#009dff;fill-opacity:1;" d="M 21.800781 23.585938 L 23.273438 23.585938 L 23.273438 24.886719 L 21.800781 24.886719 Z M 21.800781 23.585938 "/><path style=" stroke:none;fill-rule:nonzero;fill:#009dff;fill-opacity:1;" d="M 44.742188 11.769531 L 58.285156 11.769531 L 58.285156 13.066406 L 44.742188 13.066406 Z M 44.742188 11.769531 "/><path style=" stroke:none;fill-rule:nonzero;fill:#009dff;fill-opacity:1;" d="M 45.621094 27.605469 L 48.296875 27.605469 L 48.296875 28.90625 L 45.621094 28.90625 Z M 45.621094 27.605469 "/><path style=" stroke:none;fill-rule:nonzero;fill:#009dff;fill-opacity:1;" d="M 50.148438 27.605469 L 52.824219 27.605469 L 52.824219 28.90625 L 50.148438 28.90625 Z M 50.148438 27.605469 "/><path style=" stroke:none;fill-rule:nonzero;fill:#009dff;fill-opacity:1;" d="M 54.925781 27.605469 L 57.601562 27.605469 L 57.601562 28.90625 L 54.925781 28.90625 Z M 54.925781 27.605469 "/></g></svg>