<svg xmlns="http://www.w3.org/2000/svg" xmlns:xlink="http://www.w3.org/1999/xlink" width="96" zoomAndPan="magnify" viewBox="0 0 72 72" height="96" preserveAspectRatio="xMidYMid meet" version="1.0"><defs><clipPath id="bf9c1ea54e"><path d="M 7.5 7.5 L 64.5 7.5 L 64.5 64.5 L 7.5 64.5 Z M 7.5 7.5 " clip-rule="nonzero"/></clipPath></defs><g clip-path="url(#bf9c1ea54e)"><path fill="#009dff" d="M 39.691406 8.464844 C 39.578125 8.046875 39.21875 7.746094 38.785156 7.703125 C 36.957031 7.523438 35.113281 7.523438 33.28125 7.703125 C 32.851562 7.746094 32.492188 8.046875 32.378906 8.464844 L 31.375 12.132812 C 30.269531 12.347656 29.183594 12.640625 28.117188 13.003906 C 28.117188 13.003906 25.417969 10.332031 25.417969 10.332031 C 25.109375 10.027344 24.644531 9.941406 24.253906 10.121094 C 22.578125 10.882812 20.980469 11.804688 19.484375 12.875 C 19.132812 13.125 18.972656 13.570312 19.082031 13.988281 L 20.050781 17.664062 C 19.199219 18.402344 18.402344 19.199219 17.664062 20.050781 C 17.664062 20.050781 13.988281 19.082031 13.988281 19.082031 C 13.566406 18.972656 13.125 19.132812 12.875 19.484375 C 11.804688 20.980469 10.882812 22.578125 10.121094 24.253906 C 9.941406 24.648438 10.023438 25.109375 10.328125 25.417969 L 13.003906 28.117188 C 12.640625 29.183594 12.347656 30.269531 12.132812 31.375 C 12.132812 31.375 8.464844 32.378906 8.464844 32.378906 C 8.046875 32.492188 7.742188 32.851562 7.703125 33.28125 C 7.523438 35.113281 7.523438 36.957031 7.703125 38.789062 C 7.742188 39.21875 8.046875 39.578125 8.464844 39.691406 L 12.132812 40.695312 C 12.347656 41.796875 12.640625 42.886719 13.003906 43.953125 C 13.003906 43.949219 10.328125 46.652344 10.328125 46.652344 C 10.023438 46.960938 9.941406 47.421875 10.121094 47.816406 C 10.882812 49.492188 11.804688 51.085938 12.875 52.585938 C 13.125 52.9375 13.566406 53.097656 13.988281 52.984375 L 17.664062 52.019531 C 18.402344 52.871094 19.199219 53.667969 20.050781 54.40625 C 20.050781 54.40625 19.082031 58.082031 19.082031 58.082031 C 18.972656 58.5 19.132812 58.941406 19.484375 59.195312 C 20.980469 60.265625 22.578125 61.1875 24.253906 61.949219 C 24.644531 62.125 25.109375 62.042969 25.417969 61.738281 L 28.117188 59.0625 C 29.183594 59.429688 30.269531 59.722656 31.375 59.9375 C 31.375 59.9375 32.378906 63.605469 32.378906 63.605469 C 32.492188 64.023438 32.851562 64.324219 33.28125 64.367188 C 35.113281 64.542969 36.957031 64.542969 38.785156 64.367188 C 39.21875 64.324219 39.578125 64.023438 39.691406 63.605469 L 40.691406 59.9375 C 41.796875 59.722656 42.886719 59.429688 43.953125 59.0625 C 43.949219 59.0625 46.652344 61.738281 46.652344 61.738281 C 46.957031 62.042969 47.421875 62.125 47.816406 61.949219 C 49.492188 61.1875 51.085938 60.265625 52.585938 59.195312 C 52.9375 58.941406 53.097656 58.5 52.984375 58.082031 L 52.019531 54.40625 C 52.867188 53.667969 53.667969 52.871094 54.40625 52.019531 C 54.40625 52.019531 58.082031 52.984375 58.082031 52.984375 C 58.5 53.097656 58.941406 52.9375 59.191406 52.585938 C 60.261719 51.085938 61.1875 49.492188 61.945312 47.816406 C 62.125 47.421875 62.042969 46.960938 61.738281 46.652344 L 59.0625 43.949219 C 59.429688 42.886719 59.71875 41.796875 59.9375 40.695312 C 59.9375 40.695312 63.605469 39.691406 63.605469 39.691406 C 64.019531 39.578125 64.324219 39.21875 64.367188 38.789062 C 64.542969 36.957031 64.542969 35.113281 64.367188 33.28125 C 64.324219 32.851562 64.019531 32.492188 63.605469 32.378906 L 59.9375 31.375 C 59.71875 30.269531 59.429688 29.183594 59.0625 28.117188 C 59.0625 28.117188 61.738281 25.417969 61.738281 25.417969 C 62.042969 25.109375 62.125 24.648438 61.945312 24.253906 C 61.1875 22.578125 60.261719 20.980469 59.191406 19.484375 C 58.941406 19.132812 58.5 18.972656 58.082031 19.082031 L 54.40625 20.050781 C 53.667969 19.199219 52.867188 18.402344 52.019531 17.664062 C 52.019531 17.664062 52.984375 13.988281 52.984375 13.988281 C 53.097656 13.570312 52.9375 13.125 52.585938 12.875 C 51.085938 11.804688 49.492188 10.882812 47.816406 10.121094 C 47.421875 9.941406 46.957031 10.027344 46.652344 10.332031 L 43.949219 13.003906 C 42.886719 12.640625 41.796875 12.347656 40.691406 12.132812 C 40.691406 12.132812 39.691406 8.464844 39.691406 8.464844 Z M 37.875 9.71875 L 38.855469 13.316406 C 38.964844 13.707031 39.289062 14 39.691406 14.066406 C 41.109375 14.304688 42.503906 14.679688 43.851562 15.183594 C 44.230469 15.324219 44.660156 15.234375 44.949219 14.949219 L 47.601562 12.324219 C 48.703125 12.859375 49.769531 13.476562 50.785156 14.160156 C 50.785156 14.164062 49.839844 17.769531 49.839844 17.769531 C 49.734375 18.164062 49.871094 18.582031 50.183594 18.839844 C 51.296875 19.753906 52.316406 20.773438 53.230469 21.886719 C 53.488281 22.199219 53.90625 22.335938 54.296875 22.230469 L 57.90625 21.28125 C 58.59375 22.300781 59.207031 23.363281 59.746094 24.46875 C 59.746094 24.46875 57.121094 27.121094 57.121094 27.121094 C 56.835938 27.40625 56.742188 27.835938 56.886719 28.21875 C 57.390625 29.566406 57.765625 30.957031 58 32.378906 C 58.066406 32.78125 58.363281 33.105469 58.753906 33.210938 L 62.351562 34.195312 C 62.4375 35.421875 62.4375 36.648438 62.351562 37.875 C 62.351562 37.875 58.753906 38.859375 58.753906 38.859375 C 58.363281 38.964844 58.066406 39.289062 58 39.691406 C 57.765625 41.109375 57.390625 42.503906 56.886719 43.851562 C 56.742188 44.234375 56.835938 44.660156 57.121094 44.949219 L 59.746094 47.601562 C 59.207031 48.703125 58.59375 49.769531 57.90625 50.785156 C 57.90625 50.785156 54.296875 49.839844 54.296875 49.839844 C 53.90625 49.734375 53.488281 49.871094 53.230469 50.183594 C 52.316406 51.296875 51.296875 52.316406 50.183594 53.230469 C 49.871094 53.488281 49.734375 53.90625 49.839844 54.300781 L 50.785156 57.90625 C 49.769531 58.59375 48.703125 59.207031 47.601562 59.746094 C 47.601562 59.746094 44.949219 57.121094 44.949219 57.121094 C 44.660156 56.835938 44.230469 56.742188 43.851562 56.886719 C 42.503906 57.390625 41.109375 57.765625 39.691406 58 C 39.289062 58.066406 38.964844 58.363281 38.855469 58.753906 L 37.875 62.351562 C 36.648438 62.4375 35.417969 62.4375 34.195312 62.351562 C 34.195312 62.351562 33.210938 58.753906 33.210938 58.753906 C 33.105469 58.363281 32.777344 58.066406 32.378906 58 C 30.957031 57.765625 29.566406 57.390625 28.214844 56.886719 C 27.835938 56.742188 27.40625 56.835938 27.117188 57.121094 L 24.46875 59.746094 C 23.363281 59.207031 22.300781 58.59375 21.28125 57.90625 C 21.28125 57.90625 22.230469 54.300781 22.230469 54.300781 C 22.332031 53.90625 22.199219 53.488281 21.882812 53.230469 C 20.773438 52.316406 19.753906 51.296875 18.839844 50.183594 C 18.582031 49.871094 18.164062 49.734375 17.769531 49.839844 L 14.164062 50.785156 C 13.476562 49.769531 12.859375 48.703125 12.320312 47.601562 C 12.320312 47.601562 14.945312 44.949219 14.945312 44.949219 C 15.234375 44.660156 15.324219 44.234375 15.183594 43.851562 C 14.675781 42.503906 14.304688 41.109375 14.066406 39.691406 C 14 39.289062 13.707031 38.964844 13.316406 38.859375 L 9.714844 37.875 C 9.628906 36.648438 9.628906 35.421875 9.714844 34.195312 C 9.714844 34.195312 13.316406 33.210938 13.316406 33.210938 C 13.707031 33.105469 14 32.78125 14.066406 32.378906 C 14.304688 30.957031 14.675781 29.566406 15.183594 28.21875 C 15.324219 27.835938 15.234375 27.40625 14.945312 27.121094 L 12.320312 24.46875 C 12.859375 23.363281 13.476562 22.300781 14.160156 21.28125 C 14.164062 21.28125 17.769531 22.230469 17.769531 22.230469 C 18.164062 22.335938 18.582031 22.199219 18.839844 21.886719 C 19.753906 20.773438 20.773438 19.753906 21.882812 18.839844 C 22.199219 18.582031 22.332031 18.164062 22.230469 17.769531 L 21.28125 14.164062 C 22.300781 13.476562 23.363281 12.859375 24.46875 12.324219 C 24.46875 12.324219 27.117188 14.949219 27.117188 14.949219 C 27.40625 15.234375 27.835938 15.324219 28.214844 15.183594 C 29.566406 14.679688 30.957031 14.304688 32.378906 14.066406 C 32.777344 14 33.105469 13.707031 33.210938 13.316406 L 34.195312 9.71875 C 35.417969 9.628906 36.648438 9.628906 37.875 9.71875 Z M 36.035156 20.394531 C 27.402344 20.394531 20.394531 27.402344 20.394531 36.035156 C 20.394531 44.664062 27.402344 51.675781 36.035156 51.675781 C 44.664062 51.675781 51.671875 44.664062 51.671875 36.035156 C 51.671875 27.402344 44.664062 20.394531 36.035156 20.394531 Z M 36.035156 22.476562 C 43.515625 22.476562 49.589844 28.554688 49.589844 36.035156 C 49.589844 43.515625 43.515625 49.589844 36.035156 49.589844 C 28.550781 49.589844 22.476562 43.515625 22.476562 36.035156 C 22.476562 28.554688 28.550781 22.476562 36.035156 22.476562 Z M 36.035156 22.476562 " fill-opacity="1" fill-rule="evenodd"/></g></svg>