<svg width="96" height="96" viewBox="0 0 96 96" fill="none" xmlns="http://www.w3.org/2000/svg">
<path fill-rule="evenodd" clip-rule="evenodd" d="M57.1152 8.60896C55.634 8 53.756 8 50 8C46.244 8 44.366 8 42.8848 8.60896C40.9096 9.42092 39.3404 10.9783 38.5222 12.9385C38.1488 13.8334 38.0026 14.874 37.9454 16.392C37.8614 18.6227 36.7086 20.6876 34.7607 21.8037C32.8127 22.9198 30.4345 22.8782 28.4459 21.835C27.0927 21.1252 26.1116 20.7305 25.144 20.6041C23.0244 20.3271 20.8807 20.8972 19.1846 22.1888C17.9126 23.1575 16.9736 24.7716 15.0956 27.9997C13.2176 31.2279 12.2787 32.8419 12.0694 34.4196C11.7903 36.5232 12.3647 38.6506 13.6662 40.334C14.2602 41.1024 15.0951 41.748 16.3908 42.556C18.2956 43.744 19.5213 45.7676 19.5212 48C19.521 50.2324 18.2954 52.2556 16.3908 53.4432C15.0949 54.2516 14.2599 54.8976 13.6658 55.666C12.3643 57.3492 11.79 59.4764 12.069 61.58C12.2783 63.1576 13.2173 64.772 15.0952 68C16.9732 71.228 17.9122 72.8424 19.1842 73.8108C20.8803 75.1024 23.024 75.6724 25.1436 75.3956C26.1111 75.2692 27.0922 74.8744 28.4453 74.1648C30.4341 73.1216 32.8124 73.08 34.7605 74.196C36.7085 75.3124 37.8613 77.3772 37.9454 79.6084C38.0026 81.126 38.1488 82.1668 38.5222 83.0616C39.3404 85.0216 40.9096 86.5792 42.8848 87.3912C44.366 88 46.244 88 50 88C53.756 88 55.634 88 57.1152 87.3912C59.0904 86.5792 60.6596 85.0216 61.4776 83.0616C61.8512 82.1668 61.9976 81.126 62.0548 79.608C62.1388 77.3772 63.2912 75.3124 65.2392 74.196C67.1872 73.0796 69.5656 73.1216 71.5544 74.1648C72.9076 74.8744 73.8884 75.2688 74.856 75.3952C76.9756 75.6724 79.1192 75.1024 80.8152 73.8108C82.0876 72.842 83.0264 71.228 84.9044 67.9996C86.7824 64.7716 87.7212 63.1576 87.9308 61.58C88.2096 59.4764 87.6352 57.3488 86.334 55.6656C85.7396 54.8972 84.9048 54.2512 83.6088 53.4432C81.7044 52.2556 80.4788 50.232 80.4788 47.9996C80.4788 45.7672 81.7044 43.7444 83.6088 42.5568C84.9052 41.7484 85.74 41.1028 86.3344 40.334C87.6356 38.6509 88.21 36.5235 87.9312 34.4199C87.7216 32.8422 86.7828 31.2281 84.9048 28C83.0268 24.7719 82.088 23.1578 80.8156 22.1891C79.1196 20.8974 76.976 20.3274 74.8564 20.6044C73.8888 20.7308 72.9076 21.1254 71.5548 21.8352C69.566 22.8784 67.1876 22.9201 65.2396 21.8038C63.2916 20.6876 62.1388 18.6226 62.0544 16.3918C61.9972 14.8739 61.8512 13.8333 61.4776 12.9385C60.6596 10.9783 59.0904 9.42092 57.1152 8.60896ZM50 60C56.678 60 62.0912 54.6276 62.0912 48C62.0912 41.3724 56.678 36 50 36C43.322 36 37.9086 41.3724 37.9086 48C37.9086 54.6276 43.322 60 50 60Z" fill="white"/>
</svg>
