<svg width="31" height="30" viewBox="0 0 31 30" fill="none" xmlns="http://www.w3.org/2000/svg">
<g clip-path="url(#clip0_1716_1918)">
<path d="M28.4312 4.91379H2.56913C1.56931 4.91379 0.758789 5.72431 0.758789 6.72413V23.2759C0.758789 24.2757 1.56931 25.0862 2.56913 25.0862H28.4312C29.431 25.0862 30.2415 24.2757 30.2415 23.2759V6.72413C30.2415 5.72431 29.431 4.91379 28.4312 4.91379Z" fill="white" stroke="#F3F3F3" stroke-width="1.03448"/>
<path fill-rule="evenodd" clip-rule="evenodd" d="M16.3564 12.0521L14.9139 12.3686V11.1728L16.3564 10.8621V12.0521ZM19.3564 12.7145C18.7932 12.7145 18.4312 12.9841 18.23 13.1717L18.1553 12.8083H16.8909V19.6434L18.3277 19.3328L18.3334 17.6738C18.5403 17.8262 18.8449 18.0431 19.3507 18.0431C20.3794 18.0431 21.3162 17.1989 21.3162 15.3407C21.3104 13.6407 20.3622 12.7145 19.3564 12.7145ZM19.0116 16.7534C18.6725 16.7534 18.4713 16.6303 18.3334 16.4779L18.3277 14.3031C18.4771 14.1331 18.684 14.0158 19.0116 14.0158C19.5346 14.0158 19.8967 14.6138 19.8967 15.3817C19.8967 16.1673 19.5403 16.7534 19.0116 16.7534ZM25.8449 15.3993C25.8449 13.8986 25.1323 12.7145 23.7702 12.7145C22.4024 12.7145 21.5748 13.8986 21.5748 15.3876C21.5748 17.1521 22.5518 18.0431 23.9541 18.0431C24.638 18.0431 25.1553 17.8848 25.5461 17.6621V16.4896C25.1553 16.6889 24.707 16.812 24.138 16.812C23.5805 16.812 23.0863 16.6128 23.0231 15.921H25.8334C25.8334 15.8887 25.8355 15.8153 25.8379 15.7308C25.8411 15.6159 25.8449 15.4804 25.8449 15.3993ZM23.0058 14.8424C23.0058 14.18 23.4024 13.9045 23.7645 13.9045C24.1151 13.9045 24.4886 14.18 24.4886 14.8424H23.0058ZM14.9139 12.8141H16.3564V17.9435H14.9139V12.8141ZM13.276 12.8141L13.3679 13.2479C13.707 12.6148 14.3794 12.7438 14.5633 12.8141V14.1624C14.3851 14.0979 13.8104 14.0158 13.4714 14.4672V17.9435H12.0346V12.8141H13.276ZM10.4943 11.5421L9.09205 11.8469L9.08631 16.5424C9.08631 17.41 9.72422 18.049 10.5748 18.049C11.0461 18.049 11.3909 17.961 11.5805 17.8555V16.6655C11.3967 16.7417 10.4886 17.0114 10.4886 16.1438V14.0627H11.5805V12.8141H10.4886L10.4943 11.5421ZM7.09783 13.9866C6.79322 13.9866 6.60929 14.0745 6.60929 14.3031C6.60929 14.5527 6.92579 14.6625 7.31848 14.7987C7.95862 15.0208 8.80115 15.3131 8.80472 16.3959C8.80472 17.4451 7.98288 18.049 6.78748 18.049C6.2932 18.049 5.753 17.9493 5.21849 17.7148V16.3196C5.70127 16.5893 6.31043 16.7886 6.78748 16.7886C7.10931 16.7886 7.33917 16.7007 7.33917 16.431C7.33917 16.1545 6.99608 16.0282 6.58188 15.8756C5.95105 15.6432 5.15527 15.3501 5.15527 14.3735C5.15527 13.3359 5.93114 12.7145 7.09783 12.7145C7.57483 12.7145 8.04608 12.7907 8.52308 12.9841V14.3617C8.08632 14.1214 7.53458 13.9866 7.09783 13.9866Z" fill="#6772E5"/>
</g>
<defs>
<clipPath id="clip0_1716_1918">
<rect width="30" height="30" fill="white" transform="translate(0.5)"/>
</clipPath>
</defs>
</svg>
