<svg xmlns="http://www.w3.org/2000/svg" xmlns:xlink="http://www.w3.org/1999/xlink" width="96" zoomAndPan="magnify" viewBox="0 0 72 72" height="96" preserveAspectRatio="xMidYMid meet" version="1.2"><defs><clipPath id="392299dc38"><path d="M 51 12 L 54 12 L 54 15 L 51 15 Z M 51 12 "/></clipPath><clipPath id="cb56a93c3a"><path d="M 42.777344 64.792969 L 7.761719 40.273438 L 38.304688 -3.347656 L 73.320312 21.175781 Z M 42.777344 64.792969 "/></clipPath><clipPath id="376a8b95d2"><path d="M 42.777344 64.792969 L 7.761719 40.273438 L 38.304688 -3.347656 L 73.320312 21.175781 Z M 42.777344 64.792969 "/></clipPath><clipPath id="e5736e4681"><path d="M 14 34 L 34 34 L 34 55 L 14 55 Z M 14 34 "/></clipPath><clipPath id="1606c4fa49"><path d="M 42.777344 64.792969 L 7.761719 40.273438 L 38.304688 -3.347656 L 73.320312 21.175781 Z M 42.777344 64.792969 "/></clipPath><clipPath id="f885671113"><path d="M 42.777344 64.792969 L 7.761719 40.273438 L 38.304688 -3.347656 L 73.320312 21.175781 Z M 42.777344 64.792969 "/></clipPath><clipPath id="63c04124f3"><path d="M 20 8 L 60 8 L 60 47 L 20 47 Z M 20 8 "/></clipPath><clipPath id="e1173aa753"><path d="M 42.777344 64.792969 L 7.761719 40.273438 L 38.304688 -3.347656 L 73.320312 21.175781 Z M 42.777344 64.792969 "/></clipPath><clipPath id="25a51cf925"><path d="M 42.777344 64.792969 L 7.761719 40.273438 L 38.304688 -3.347656 L 73.320312 21.175781 Z M 42.777344 64.792969 "/></clipPath><clipPath id="886bda0603"><path d="M 7 23 L 55 23 L 55 65 L 7 65 Z M 7 23 "/></clipPath><clipPath id="d106813eff"><path d="M 42.777344 64.792969 L 7.761719 40.273438 L 38.304688 -3.347656 L 73.320312 21.175781 Z M 42.777344 64.792969 "/></clipPath><clipPath id="9f759355c4"><path d="M 42.777344 64.792969 L 7.761719 40.273438 L 38.304688 -3.347656 L 73.320312 21.175781 Z M 42.777344 64.792969 "/></clipPath></defs><g id="e081e1845e"><g clip-rule="nonzero" clip-path="url(#392299dc38)"><g clip-rule="nonzero" clip-path="url(#cb56a93c3a)"><g clip-rule="nonzero" clip-path="url(#376a8b95d2)"><path style=" stroke:none;fill-rule:nonzero;fill:#ffffff;fill-opacity:1;" d="M 51.601562 12.800781 C 51.246094 13.304688 51.40625 14.066406 51.976562 14.464844 C 52.542969 14.863281 53.304688 14.765625 53.667969 14.25 C 54.019531 13.746094 53.863281 12.984375 53.292969 12.585938 C 52.730469 12.171875 51.972656 12.269531 51.601562 12.800781 Z M 51.601562 12.800781 "/></g></g></g><g clip-rule="nonzero" clip-path="url(#e5736e4681)"><g clip-rule="nonzero" clip-path="url(#1606c4fa49)"><g clip-rule="nonzero" clip-path="url(#f885671113)"><path style=" stroke:none;fill-rule:nonzero;fill:#ffffff;fill-opacity:1;" d="M 32.15625 44.460938 L 32.0625 44.398438 C 31.082031 43.710938 29.65625 43.996094 28.960938 44.992188 L 27.867188 46.554688 C 26.828125 48.039062 24.820312 48.367188 23.363281 47.347656 C 21.90625 46.328125 21.546875 44.300781 22.566406 42.84375 L 25.730469 38.324219 C 26.492188 37.238281 26.230469 35.75 25.144531 34.992188 C 24.058594 34.230469 22.570312 34.492188 21.808594 35.578125 L 14.980469 45.332031 L 27.9375 54.402344 L 32.679688 47.632812 C 33.359375 46.609375 33.164062 45.167969 32.15625 44.460938 Z M 32.15625 44.460938 "/></g></g></g><g clip-rule="nonzero" clip-path="url(#63c04124f3)"><g clip-rule="nonzero" clip-path="url(#e1173aa753)"><g clip-rule="nonzero" clip-path="url(#25a51cf925)"><path style=" stroke:none;fill-rule:nonzero;fill:#ffffff;fill-opacity:1;" d="M 57.683594 37.359375 L 47.507812 30.234375 C 47.125 29.964844 46.980469 29.46875 47.246094 29.085938 L 56.664062 15.636719 C 58.101562 13.582031 57.613281 10.753906 55.546875 9.304688 C 53.480469 7.859375 50.664062 8.355469 49.21875 10.421875 L 39.800781 23.871094 C 39.53125 24.253906 39.027344 24.296875 38.644531 24.027344 L 28.46875 16.902344 C 26.972656 15.855469 24.570312 16.324219 23.539062 17.796875 L 20.792969 21.71875 L 55.785156 46.21875 L 58.53125 42.296875 C 59.570312 40.8125 59.167969 38.398438 57.683594 37.359375 Z M 51 15.855469 C 49.648438 14.910156 49.292969 13.082031 50.199219 11.78125 C 51.109375 10.484375 52.9375 10.183594 54.304688 11.140625 C 55.65625 12.085938 56.011719 13.917969 55.101562 15.214844 C 54.195312 16.511719 52.351562 16.804688 51 15.855469 Z M 51 15.855469 "/></g></g></g><g clip-rule="nonzero" clip-path="url(#886bda0603)"><g clip-rule="nonzero" clip-path="url(#d106813eff)"><g clip-rule="nonzero" clip-path="url(#9f759355c4)"><path style=" stroke:none;fill-rule:nonzero;fill:#ffffff;fill-opacity:1;" d="M 7.828125 40.320312 L 13.550781 44.328125 L 20.359375 34.601562 C 21.660156 32.75 24.203125 32.300781 26.058594 33.597656 C 27.914062 34.898438 28.363281 37.441406 27.0625 39.296875 L 23.910156 43.800781 C 23.417969 44.503906 23.597656 45.460938 24.273438 45.933594 C 24.976562 46.425781 25.933594 46.246094 26.414062 45.554688 L 27.507812 43.992188 C 28.753906 42.21875 31.234375 41.746094 32.996094 42.976562 L 33.089844 43.042969 C 34.867188 44.285156 35.25 46.785156 34.015625 48.546875 L 29.265625 55.332031 L 42.726562 64.757812 L 54.75 47.585938 L 19.785156 23.101562 Z M 7.828125 40.320312 "/></g></g></g></g></svg>