<svg xmlns="http://www.w3.org/2000/svg" xmlns:xlink="http://www.w3.org/1999/xlink" width="96" zoomAndPan="magnify" viewBox="0 0 72 72" height="96" preserveAspectRatio="xMidYMid meet" version="1.2"><defs><clipPath id="47afd3e5c0"><path d="M 32 33 L 63.710938 33 L 63.710938 64.5 L 32 64.5 Z M 32 33 "/></clipPath><clipPath id="552d7566c5"><path d="M 8.210938 20 L 19 20 L 19 31 L 8.210938 31 Z M 8.210938 20 "/></clipPath><clipPath id="97d458e065"><path d="M 23 7.5 L 37 7.5 L 37 22 L 23 22 Z M 23 7.5 "/></clipPath></defs><g id="89ed04f880"><path style=" stroke:none;fill-rule:nonzero;fill:#009dff;fill-opacity:1;" d="M 32.867188 33.417969 C 32.90625 33.378906 32.949219 33.335938 32.992188 33.296875 C 34.332031 31.972656 35.777344 30.828125 36.070312 31.117188 L 27.199219 22.25 C 26.597656 21.648438 25.53125 21.738281 24.8125 22.453125 L 21.902344 25.367188 C 21.183594 26.082031 21.09375 27.152344 21.695312 27.753906 L 30.5625 36.621094 C 30.386719 36.4375 30.765625 35.804688 31.398438 35.027344 C 31.808594 34.523438 32.324219 33.960938 32.867188 33.417969 Z M 32.867188 33.417969 "/><g clip-rule="nonzero" clip-path="url(#47afd3e5c0)"><path style=" stroke:none;fill-rule:nonzero;fill:#009dff;fill-opacity:1;" d="M 38.296875 33.34375 C 38.007812 33.058594 36.597656 34.167969 35.273438 35.46875 L 35.265625 35.457031 L 35.140625 35.582031 C 33.765625 36.957031 32.542969 38.480469 32.835938 38.785156 L 58.414062 64.363281 C 59.398438 63.578125 60.328125 62.726562 61.195312 61.816406 L 61.203125 61.824219 C 61.203125 61.824219 62.964844 59.824219 63.714844 58.761719 Z M 38.296875 33.34375 "/></g><g clip-rule="nonzero" clip-path="url(#552d7566c5)"><path style=" stroke:none;fill-rule:nonzero;fill:#009dff;fill-opacity:1;" d="M 18.640625 23.050781 C 18.640625 23.050781 14.964844 24.050781 14.066406 23.734375 C 13.167969 23.417969 10.921875 20.339844 10.921875 20.339844 C 10.921875 20.339844 11.921875 24.019531 11.605469 24.917969 C 11.289062 25.816406 8.210938 28.0625 8.210938 28.0625 C 8.210938 28.0625 11.984375 27.09375 12.785156 27.378906 C 13.59375 27.660156 15.933594 30.769531 15.933594 30.769531 C 15.933594 30.769531 14.964844 27 15.257812 26.167969 C 15.550781 25.335938 18.640625 23.050781 18.640625 23.050781 Z M 18.640625 23.050781 "/></g><g clip-rule="nonzero" clip-path="url(#97d458e065)"><path style=" stroke:none;fill-rule:nonzero;fill:#009dff;fill-opacity:1;" d="M 29.511719 16.992188 C 30.722656 17.238281 34.488281 21.101562 34.488281 21.101562 C 34.488281 21.101562 32.398438 16.179688 32.664062 14.871094 C 32.933594 13.5625 36.78125 9.855469 36.78125 9.855469 C 36.78125 9.855469 31.863281 11.945312 30.554688 11.679688 C 29.246094 11.414062 25.539062 7.5625 25.539062 7.5625 C 25.539062 7.5625 27.601562 12.621094 27.363281 13.789062 C 27.121094 14.960938 23.246094 18.804688 23.246094 18.804688 C 23.246094 18.804688 28.300781 16.746094 29.511719 16.992188 Z M 29.511719 16.992188 "/></g><path style=" stroke:none;fill-rule:nonzero;fill:#009dff;fill-opacity:1;" d="M 36.566406 26.992188 C 36.566406 26.992188 39.273438 25.957031 39.910156 26.105469 C 40.550781 26.25 42.5 28.34375 42.5 28.34375 C 42.5 28.34375 41.449219 25.710938 41.609375 25.019531 C 41.765625 24.328125 43.851562 22.410156 43.851562 22.410156 C 43.851562 22.410156 41.21875 23.457031 40.527344 23.300781 C 39.835938 23.144531 37.917969 21.058594 37.917969 21.058594 C 37.917969 21.058594 38.949219 23.765625 38.808594 24.382812 C 38.667969 25 36.566406 26.992188 36.566406 26.992188 Z M 36.566406 26.992188 "/></g></svg>