<svg xmlns="http://www.w3.org/2000/svg" xmlns:xlink="http://www.w3.org/1999/xlink" width="96" zoomAndPan="magnify" viewBox="0 0 72 72" height="96" preserveAspectRatio="xMidYMid meet" version="1.2"><defs><clipPath id="7499986b45"><path d="M 7.5 11.449219 L 64.5 11.449219 L 64.5 64.488281 L 7.5 64.488281 Z M 7.5 11.449219 "/></clipPath><clipPath id="7f57c92ee5"><path d="M 47 7.5 L 52 7.5 L 52 19 L 47 19 Z M 47 7.5 "/></clipPath><clipPath id="7b5bfb0b73"><path d="M 20 7.5 L 25 7.5 L 25 19 L 20 19 Z M 20 7.5 "/></clipPath><clipPath id="8256ca8045"><path d="M 28.125 31.050781 L 43.875 31.050781 L 43.875 56.550781 L 28.125 56.550781 Z M 28.125 31.050781 "/></clipPath></defs><g id="363f427075"><g clip-rule="nonzero" clip-path="url(#7499986b45)"><path style=" stroke:none;fill-rule:nonzero;fill:#009dff;fill-opacity:1;" d="M 11.835938 27.402344 L 60.164062 27.402344 L 60.164062 57.449219 C 60.164062 58.953125 58.945312 60.171875 57.441406 60.171875 L 14.558594 60.171875 C 13.054688 60.171875 11.835938 58.953125 11.835938 57.449219 Z M 12.949219 11.957031 C 9.9375 11.957031 7.5 14.394531 7.5 17.40625 L 7.5 59.039062 C 7.5 62.050781 9.9375 64.488281 12.949219 64.488281 L 59.050781 64.488281 C 62.0625 64.488281 64.5 62.050781 64.5 59.039062 L 64.5 17.40625 C 64.5 14.394531 62.0625 11.957031 59.050781 11.957031 L 53.796875 11.957031 L 53.796875 16.355469 C 53.777344 18.910156 51.6875 20.96875 49.132812 20.945312 C 46.601562 20.925781 44.558594 18.878906 44.535156 16.355469 L 44.535156 11.957031 L 27.464844 11.957031 L 27.464844 16.355469 C 27.464844 18.910156 25.386719 20.984375 22.832031 20.984375 C 20.273438 20.984375 18.203125 18.910156 18.199219 16.355469 L 18.199219 11.957031 L 12.949219 11.957031 "/></g><g clip-rule="nonzero" clip-path="url(#7f57c92ee5)"><path style=" stroke:none;fill-rule:nonzero;fill:#009dff;fill-opacity:1;" d="M 51.296875 16.292969 L 51.296875 9.691406 C 51.296875 8.511719 50.339844 7.558594 49.160156 7.558594 C 47.988281 7.566406 47.042969 8.515625 47.035156 9.691406 L 47.035156 16.292969 C 47.042969 17.472656 48 18.425781 49.171875 18.417969 C 50.347656 18.414062 51.296875 17.46875 51.296875 16.292969 "/></g><g clip-rule="nonzero" clip-path="url(#7b5bfb0b73)"><path style=" stroke:none;fill-rule:nonzero;fill:#009dff;fill-opacity:1;" d="M 24.964844 9.691406 C 24.957031 8.511719 24 7.558594 22.828125 7.566406 C 21.652344 7.566406 20.703125 8.515625 20.703125 9.691406 L 20.703125 16.292969 C 20.703125 17.472656 21.660156 18.425781 22.839844 18.417969 C 24.011719 18.414062 24.957031 17.46875 24.964844 16.292969 L 24.964844 9.691406 "/></g><g clip-rule="nonzero" clip-path="url(#8256ca8045)"><path style=" stroke:none;fill-rule:nonzero;fill:#009dff;fill-opacity:1;" d="M 43.371094 45.210938 C 43.039062 44.550781 42.578125 43.984375 41.992188 43.507812 C 41.402344 43.03125 40.703125 42.621094 39.894531 42.273438 C 39.082031 41.925781 38.199219 41.589844 37.238281 41.273438 C 36.742188 41.113281 36.304688 40.960938 35.929688 40.820312 C 35.554688 40.679688 35.238281 40.53125 34.984375 40.371094 C 34.730469 40.214844 34.542969 40.042969 34.414062 39.855469 C 34.289062 39.671875 34.226562 39.449219 34.226562 39.195312 C 34.226562 38.945312 34.285156 38.730469 34.402344 38.550781 C 34.519531 38.375 34.675781 38.234375 34.878906 38.125 C 35.074219 38.015625 35.308594 37.9375 35.570312 37.886719 C 35.832031 37.835938 36.113281 37.8125 36.410156 37.8125 C 36.699219 37.8125 36.984375 37.855469 37.265625 37.941406 C 37.546875 38.027344 37.8125 38.136719 38.066406 38.265625 C 38.320312 38.398438 38.558594 38.546875 38.78125 38.707031 C 39.003906 38.871094 39.203125 39.03125 39.386719 39.183594 L 39.507812 39.292969 C 39.632812 39.402344 39.75 39.492188 39.851562 39.5625 C 39.957031 39.636719 40.074219 39.671875 40.199219 39.671875 C 40.351562 39.671875 40.507812 39.59375 40.660156 39.441406 L 42.738281 37.226562 C 42.855469 37.101562 42.945312 36.988281 43.003906 36.890625 C 43.0625 36.789062 43.089844 36.679688 43.089844 36.5625 C 43.089844 36.445312 43.03125 36.304688 42.910156 36.140625 C 42.785156 35.980469 42.621094 35.808594 42.414062 35.625 C 42.203125 35.445312 41.960938 35.257812 41.6875 35.0625 C 41.410156 34.867188 41.117188 34.679688 40.808594 34.5 C 40.332031 34.238281 39.847656 34.023438 39.363281 33.855469 C 38.878906 33.6875 38.386719 33.558594 37.878906 33.46875 L 37.878906 31.648438 C 37.878906 31.464844 37.804688 31.320312 37.652344 31.214844 C 37.503906 31.105469 37.363281 31.050781 37.226562 31.050781 L 34.671875 31.050781 C 34.472656 31.050781 34.324219 31.109375 34.226562 31.226562 C 34.125 31.34375 34.074219 31.484375 34.074219 31.648438 L 34.074219 33.535156 C 33.289062 33.6875 32.578125 33.925781 31.949219 34.246094 C 31.320312 34.570312 30.789062 34.960938 30.355469 35.421875 C 29.921875 35.882812 29.585938 36.410156 29.351562 36.996094 C 29.113281 37.585938 28.996094 38.230469 28.996094 38.925781 C 28.996094 39.722656 29.132812 40.445312 29.40625 41.089844 C 29.675781 41.738281 30.082031 42.332031 30.625 42.871094 C 31.167969 43.410156 31.847656 43.898438 32.664062 44.335938 C 33.476562 44.777344 34.429688 45.183594 35.515625 45.566406 C 35.757812 45.648438 36.050781 45.75 36.382812 45.871094 C 36.71875 45.992188 37.039062 46.140625 37.347656 46.3125 C 37.65625 46.484375 37.914062 46.679688 38.128906 46.902344 C 38.339844 47.125 38.449219 47.375 38.449219 47.65625 C 38.449219 47.910156 38.410156 48.148438 38.332031 48.375 C 38.253906 48.601562 38.125 48.800781 37.945312 48.972656 C 37.765625 49.144531 37.519531 49.285156 37.207031 49.386719 C 36.894531 49.492188 36.507812 49.542969 36.042969 49.542969 C 35.546875 49.542969 35.070312 49.457031 34.617188 49.285156 C 34.167969 49.113281 33.710938 48.875 33.246094 48.566406 C 32.9375 48.359375 32.664062 48.148438 32.425781 47.933594 C 32.1875 47.722656 31.988281 47.550781 31.835938 47.425781 C 31.707031 47.316406 31.601562 47.234375 31.507812 47.179688 C 31.417969 47.125 31.332031 47.097656 31.25 47.097656 C 31.132812 47.097656 30.980469 47.167969 30.789062 47.304688 L 28.441406 49.542969 C 28.234375 49.734375 28.128906 49.90625 28.128906 50.058594 C 28.128906 50.195312 28.234375 50.375 28.441406 50.601562 C 28.449219 50.613281 28.457031 50.617188 28.46875 50.625 C 28.476562 50.628906 28.484375 50.640625 28.496094 50.65625 C 28.503906 50.667969 28.511719 50.671875 28.523438 50.675781 C 28.53125 50.683594 28.539062 50.695312 28.550781 50.710938 L 28.589844 50.753906 C 28.734375 50.90625 28.933594 51.109375 29.179688 51.363281 C 29.429688 51.617188 29.734375 51.875 30.097656 52.136719 C 30.695312 52.570312 31.328125 52.949219 32 53.265625 C 32.667969 53.582031 33.359375 53.816406 34.074219 53.96875 L 34.074219 55.953125 C 34.074219 56.351562 34.273438 56.550781 34.671875 56.550781 L 37.226562 56.550781 C 37.660156 56.550781 37.878906 56.351562 37.878906 55.953125 L 37.878906 54.011719 C 38.746094 53.855469 39.546875 53.597656 40.273438 53.230469 C 41.003906 52.863281 41.632812 52.40625 42.167969 51.851562 C 42.703125 51.300781 43.117188 50.667969 43.417969 49.957031 C 43.714844 49.246094 43.867188 48.464844 43.867188 47.617188 C 43.867188 46.675781 43.699219 45.871094 43.371094 45.210938 "/></g></g></svg>