<svg xmlns="http://www.w3.org/2000/svg" xmlns:xlink="http://www.w3.org/1999/xlink" width="96" zoomAndPan="magnify" viewBox="0 0 72 72" height="96" preserveAspectRatio="xMidYMid meet" version="1.2"><defs><clipPath id="129ba961c1"><path d="M 12 7.820312 L 30 7.820312 L 30 38 L 12 38 Z M 12 7.820312 "/></clipPath><clipPath id="8444b45efc"><path d="M 12 52 L 25 52 L 25 64.070312 L 12 64.070312 Z M 12 52 "/></clipPath><clipPath id="113432f3cb"><path d="M 29 47 L 43 47 L 43 64.070312 L 29 64.070312 Z M 29 47 "/></clipPath><clipPath id="660683c383"><path d="M 47 35 L 60 35 L 60 64.070312 L 47 64.070312 Z M 47 35 "/></clipPath><clipPath id="10acea0be4"><path d="M 7.5 16 L 64.5 16 L 64.5 50 L 7.5 50 Z M 7.5 16 "/></clipPath></defs><g id="8f0aa21d27"><g clip-rule="nonzero" clip-path="url(#129ba961c1)"><path style=" stroke:none;fill-rule:nonzero;fill:#ffffff;fill-opacity:1;" d="M 19.023438 34.480469 L 19.273438 34.523438 L 19.273438 36.886719 C 19.273438 37.296875 19.605469 37.628906 20.011719 37.628906 L 22.574219 37.628906 C 22.984375 37.628906 23.316406 37.296875 23.316406 36.886719 L 23.316406 34.542969 L 23.5625 34.496094 C 25.390625 34.15625 26.871094 33.410156 27.953125 32.277344 C 29.128906 31.046875 29.726562 29.46875 29.726562 27.570312 C 29.726562 27.066406 29.6875 26.582031 29.605469 26.132812 C 29.523438 25.679688 29.414062 25.273438 29.28125 24.914062 C 29.148438 24.550781 28.953125 24.199219 28.714844 23.863281 C 28.476562 23.546875 28.234375 23.261719 27.984375 23.015625 C 27.734375 22.769531 27.421875 22.53125 27.035156 22.285156 C 26.664062 22.050781 26.304688 21.847656 25.972656 21.675781 C 25.632812 21.507812 25.214844 21.324219 24.726562 21.144531 C 24.238281 20.964844 23.789062 20.804688 23.378906 20.671875 C 22.964844 20.535156 22.46875 20.375 21.886719 20.199219 C 20.597656 19.785156 19.675781 19.386719 19.140625 19.011719 C 18.636719 18.65625 18.390625 18.222656 18.390625 17.6875 C 18.390625 17.140625 18.597656 16.722656 19.023438 16.421875 C 19.46875 16.105469 20.113281 15.945312 20.941406 15.945312 C 22.496094 15.945312 24.113281 16.488281 25.75 17.5625 C 26.074219 17.769531 26.503906 17.707031 26.738281 17.410156 L 28.824219 14.796875 C 28.949219 14.640625 29.003906 14.4375 28.980469 14.234375 C 28.953125 14.035156 28.851562 13.859375 28.691406 13.746094 C 28.007812 13.242188 27.222656 12.785156 26.351562 12.378906 C 25.433594 11.953125 24.488281 11.621094 23.546875 11.390625 L 23.316406 11.335938 L 23.316406 8.554688 C 23.316406 8.148438 22.984375 7.816406 22.574219 7.816406 L 20.011719 7.816406 C 19.605469 7.816406 19.273438 8.148438 19.273438 8.554688 L 19.273438 11.132812 L 19.019531 11.175781 C 17.183594 11.464844 15.707031 12.195312 14.632812 13.34375 C 13.46875 14.59375 12.878906 16.160156 12.878906 18.007812 C 12.878906 18.4375 12.910156 18.859375 12.972656 19.253906 C 13.039062 19.65625 13.144531 20.027344 13.28125 20.363281 C 13.425781 20.707031 13.582031 21.023438 13.753906 21.304688 C 13.929688 21.605469 14.152344 21.882812 14.414062 22.132812 C 14.664062 22.382812 14.914062 22.609375 15.167969 22.8125 C 15.421875 23.023438 15.730469 23.226562 16.082031 23.410156 C 16.421875 23.589844 16.746094 23.753906 17.050781 23.902344 C 17.363281 24.054688 17.726562 24.207031 18.132812 24.351562 C 18.539062 24.496094 18.914062 24.625 19.246094 24.734375 C 19.578125 24.839844 19.960938 24.960938 20.410156 25.097656 C 20.886719 25.238281 21.308594 25.378906 21.664062 25.511719 C 22.011719 25.644531 22.335938 25.785156 22.636719 25.933594 C 22.917969 26.066406 23.160156 26.207031 23.351562 26.34375 C 23.53125 26.480469 23.679688 26.625 23.8125 26.792969 C 23.9375 26.949219 24.027344 27.121094 24.082031 27.308594 C 24.136719 27.488281 24.164062 27.699219 24.164062 27.925781 C 24.164062 28.523438 23.933594 28.988281 23.464844 29.339844 C 22.453125 30.101562 20.492188 30.058594 18.464844 29.226562 C 17.550781 28.851562 16.6875 28.3125 15.90625 27.628906 C 15.765625 27.511719 15.582031 27.441406 15.402344 27.441406 C 15.382812 27.441406 15.363281 27.441406 15.34375 27.445312 C 15.144531 27.460938 14.964844 27.550781 14.839844 27.707031 L 12.699219 30.3125 C 12.449219 30.617188 12.476562 31.058594 12.761719 31.328125 C 14.546875 32.988281 16.65625 34.050781 19.023438 34.480469 Z M 19.023438 34.480469 "/></g><g clip-rule="nonzero" clip-path="url(#8444b45efc)"><path style=" stroke:none;fill-rule:nonzero;fill:#ffffff;fill-opacity:1;" d="M 19.945312 52.984375 C 17.4375 53.222656 14.851562 53.382812 12.226562 53.425781 L 12.226562 62.0625 C 12.226562 63.183594 13.128906 64.066406 14.230469 64.066406 L 22.351562 64.066406 C 23.472656 64.066406 24.355469 63.183594 24.355469 62.0625 L 24.355469 52.421875 C 24.335938 52.441406 24.292969 52.441406 24.273438 52.441406 C 23.03125 52.621094 21.628906 52.800781 19.945312 52.984375 Z M 19.945312 52.984375 "/></g><g clip-rule="nonzero" clip-path="url(#113432f3cb)"><path style=" stroke:none;fill-rule:nonzero;fill:#ffffff;fill-opacity:1;" d="M 33.796875 50.515625 C 32.53125 50.859375 31.25 51.160156 29.945312 51.417969 L 29.945312 62.0625 C 29.945312 63.183594 30.847656 64.066406 31.949219 64.066406 L 40.089844 64.066406 C 41.191406 64.066406 42.09375 63.183594 42.09375 62.0625 L 42.09375 47.730469 C 40.851562 48.253906 39.566406 48.714844 38.246094 49.152344 C 36.902344 49.636719 35.378906 50.097656 33.796875 50.515625 Z M 33.796875 50.515625 "/></g><g clip-rule="nonzero" clip-path="url(#660683c383)"><path style=" stroke:none;fill-rule:nonzero;fill:#ffffff;fill-opacity:1;" d="M 52.917969 41.859375 C 51.511719 42.921875 49.890625 43.941406 48.125 44.886719 C 47.984375 44.964844 47.84375 45.046875 47.707031 45.105469 L 47.707031 62.0625 C 47.707031 63.183594 48.605469 64.066406 49.710938 64.066406 L 57.828125 64.066406 C 58.949219 64.066406 59.832031 63.183594 59.832031 62.0625 L 59.832031 35.265625 C 58.007812 37.648438 55.703125 39.855469 52.917969 41.859375 Z M 52.917969 41.859375 "/></g><g clip-rule="nonzero" clip-path="url(#10acea0be4)"><path style=" stroke:none;fill-rule:nonzero;fill:#ffffff;fill-opacity:1;" d="M 62.855469 17.675781 C 62.710938 16.441406 61.375 15.734375 60.273438 16.308594 L 49.648438 21.875 C 48.386719 22.539062 48.382812 24.34375 49.640625 25.007812 L 53.09375 26.839844 C 51.855469 29.242188 49.792969 31.511719 46.855469 33.621094 C 45.808594 34.414062 44.585938 35.1875 43.199219 35.9375 C 41.996094 36.605469 40.71875 37.226562 39.382812 37.804688 C 39.300781 37.835938 39.21875 37.871094 39.140625 37.90625 C 37.804688 38.472656 36.414062 39.003906 34.953125 39.480469 C 34.640625 39.589844 34.300781 39.695312 33.972656 39.800781 C 32.933594 40.128906 31.867188 40.4375 30.773438 40.722656 C 29.660156 41.015625 28.527344 41.285156 27.386719 41.523438 C 27.074219 41.585938 26.757812 41.644531 26.445312 41.707031 C 25.234375 41.941406 24.015625 42.160156 22.777344 42.328125 C 21.550781 42.515625 20.289062 42.667969 19.019531 42.800781 C 18.917969 42.808594 18.816406 42.816406 18.71875 42.828125 C 16.078125 43.082031 13.324219 43.21875 10.523438 43.21875 C 8.863281 43.21875 7.515625 44.5625 7.515625 46.222656 C 7.515625 47.882812 8.863281 49.230469 10.523438 49.230469 L 10.523438 49.234375 C 30.421875 49.234375 47.242188 43.15625 55.289062 34.136719 C 55.351562 34.066406 55.417969 34 55.480469 33.929688 C 56.097656 33.226562 56.648438 32.5 57.15625 31.761719 C 57.222656 31.664062 57.296875 31.566406 57.363281 31.46875 C 57.753906 30.875 58.097656 30.269531 58.417969 29.65625 L 61.625 31.359375 C 62.886719 32.027344 64.375 31.007812 64.214844 29.59375 Z M 62.855469 17.675781 "/></g></g></svg>