<svg width="66" height="66" viewBox="0 0 66 66" fill="none" xmlns="http://www.w3.org/2000/svg">
<path d="M28 61C41.8071 61 53 49.8071 53 36C53 22.1929 41.8071 11 28 11C14.1929 11 3 22.1929 3 36C3 49.8071 14.1929 61 28 61Z" fill="white" stroke="#AA0000" stroke-width="2.5"/>
<path d="M28 21V51Z" fill="white"/>
<path d="M28 21V51" stroke="#AA0000" stroke-width="2.5" stroke-linecap="round"/>
<path d="M35.5 29.75C35.5 26.2982 32.1423 23.5 28 23.5C23.8577 23.5 20.5 26.2982 20.5 29.75C20.5 33.2017 23.8577 36 28 36C32.1423 36 35.5 38.7983 35.5 42.25C35.5 45.7017 32.1423 48.5 28 48.5C23.8577 48.5 20.5 45.7017 20.5 42.25" fill="white"/>
<path d="M35.5 29.75C35.5 26.2982 32.1423 23.5 28 23.5C23.8577 23.5 20.5 26.2982 20.5 29.75C20.5 33.2017 23.8577 36 28 36C32.1423 36 35.5 38.7983 35.5 42.25C35.5 45.7017 32.1423 48.5 28 48.5C23.8577 48.5 20.5 45.7017 20.5 42.25" stroke="#AA0000" stroke-width="2.5" stroke-linecap="round"/>
<path d="M51 29C57.6274 29 63 23.6274 63 17C63 10.3726 57.6274 5 51 5C44.3726 5 39 10.3726 39 17C39 23.6274 44.3726 29 51 29Z" fill="white" stroke="#AA0000" stroke-width="2.5"/>
<path d="M50.52 9.80005V17.48H55.32" fill="white"/>
<path d="M50.52 9.80005V17.48H55.32" stroke="#AA0000" stroke-width="2.5" stroke-linecap="round" stroke-linejoin="round"/>
<path d="M18.0059 17.5206L45.5684 45.0831L37.0831 53.5684L9.52058 26.0059L18.0059 17.5206Z" fill="white"/>
<path d="M13.5415 24.8366C13.6027 24.4736 13.8125 24.0706 14.1708 23.6275C14.4206 23.3116 14.76 22.9533 15.189 22.5527C15.4247 22.3358 15.7901 22.0129 16.285 21.5839C16.6999 21.2257 16.9662 20.9876 17.0841 20.8697C17.2255 20.7377 17.3905 20.6718 17.579 20.6718C17.7723 20.6765 17.9373 20.7472 18.074 20.8839C18.206 21.0253 18.272 21.1903 18.272 21.3789C18.2673 21.591 18.1659 21.7819 17.9679 21.9516C17.7747 22.126 17.5177 22.3547 17.1972 22.6375C16.6739 23.0948 16.3251 23.4059 16.1507 23.5709C15.7641 23.9292 15.4695 24.2379 15.2668 24.4972C15.0547 24.7565 14.9368 24.9497 14.9132 25.077C14.8567 25.3976 14.9156 25.7064 15.09 26.0033C15.2644 26.3003 15.5049 26.5266 15.8113 26.6822C16.1271 26.8377 16.4477 26.8849 16.7729 26.8236C17.315 26.7246 17.8972 26.3781 18.5195 25.7841C18.741 25.572 19.0192 25.2797 19.3539 24.9073C19.797 24.4076 20.068 24.1036 20.167 23.9952C20.3273 23.8349 20.497 23.7595 20.6762 23.7689C20.86 23.783 21.0179 23.8514 21.1499 23.9739C21.2866 24.1012 21.3644 24.2544 21.3833 24.4336C21.4116 24.6127 21.3456 24.7871 21.1853 24.9568C21.091 25.0511 20.827 25.3434 20.3933 25.8336C20.035 26.239 19.7286 26.5596 19.4741 26.7953C18.6538 27.5778 17.843 28.0445 17.0416 28.1954C16.5891 28.2802 16.1295 28.2496 15.6628 28.1034C15.2008 27.9526 14.8001 27.7263 14.4607 27.4246C14.1166 27.1182 13.8549 26.734 13.6758 26.272C13.4967 25.8101 13.4519 25.3316 13.5415 24.8366ZM21.3473 34.2405C21.1305 34.0897 21.0338 33.8799 21.0574 33.6112C21.114 32.9229 21.2672 31.9731 21.517 30.7616C21.7339 29.4982 21.8658 28.6261 21.913 28.1453C21.7291 28.3385 21.3237 28.7675 20.6968 29.4322C20.0651 30.1016 19.5348 30.6508 19.1058 31.0798C18.9738 31.2117 18.8347 31.2848 18.6886 31.299C18.5472 31.3084 18.4128 31.2777 18.2855 31.207C18.163 31.1316 18.064 31.0326 17.9885 30.91C17.9178 30.7828 17.8872 30.6484 17.8966 30.507C17.9108 30.3609 17.9838 30.2218 18.1158 30.0898C18.5307 29.675 19.1906 28.9914 20.0957 28.0392C20.9914 27.087 21.6867 26.3822 22.1817 25.9249C22.3231 25.793 22.4905 25.7293 22.6837 25.734C22.877 25.7387 23.0396 25.8118 23.1716 25.9532C23.2329 26.0239 23.2824 26.1017 23.3201 26.1866C23.3814 26.3044 23.4073 26.4341 23.3979 26.5755C23.3791 26.7546 23.3531 27.0398 23.3201 27.4311C23.2824 27.8271 23.2541 28.124 23.2353 28.322C23.2259 28.8594 23.1127 29.7551 22.8959 31.009L22.7474 31.8364C23.8552 30.7568 24.7461 29.8706 25.4202 29.1776C25.5805 29.0174 25.7479 28.9443 25.9223 28.9584C26.1061 28.9726 26.2617 29.0433 26.389 29.1706C26.5257 29.2978 26.6035 29.4511 26.6223 29.6302C26.6459 29.814 26.5799 29.9885 26.4243 30.1534C25.7879 30.7993 24.4161 32.1569 22.309 34.2264C22.1723 34.3537 22.012 34.4197 21.8281 34.4244C21.649 34.4244 21.4887 34.3631 21.3473 34.2405ZM24.3311 36.39C24.185 36.5361 24.0176 36.6045 23.8291 36.595C23.6452 36.5903 23.4826 36.522 23.3412 36.39C23.2045 36.2627 23.1385 36.0977 23.1432 35.895C23.1385 35.7017 23.2045 35.5367 23.3412 35.4C23.4072 35.334 23.5415 35.195 23.7442 34.9828C23.9564 34.7707 24.2038 34.5185 24.4867 34.2262C24.7742 33.9387 25.0712 33.637 25.3776 33.3211C25.6935 33.0053 25.9952 32.7036 26.2827 32.416C26.5703 32.1285 26.8178 31.881 27.0252 31.6736C27.2373 31.4709 27.3788 31.3389 27.4495 31.2776C27.5909 31.1456 27.7559 31.0843 27.9444 31.0937C28.1377 31.0984 28.3027 31.1692 28.4394 31.3059C28.463 31.3294 28.4842 31.3554 28.5031 31.3836C28.5125 31.3931 28.5266 31.4025 28.5455 31.4119C29.2149 31.8928 29.7028 32.3052 30.0092 32.6494C30.6079 33.3329 30.8695 34.0424 30.7941 34.7778C30.7564 35.1549 30.6503 35.4872 30.4759 35.7748C30.3062 36.067 30.087 36.2957 29.8183 36.4607C29.559 36.6257 29.2738 36.7129 28.9627 36.7223C28.5761 36.7412 28.1872 36.6681 27.796 36.5031C27.4047 36.3381 27.0582 36.1189 26.7565 35.8455C26.6858 35.7842 26.5868 35.6852 26.4595 35.5485C26.3322 35.4118 26.2073 35.2727 26.0848 35.1313C25.9669 34.9946 25.8915 34.8956 25.8585 34.8343C25.1561 35.5556 24.647 36.0741 24.3311 36.39ZM27.704 34.8131C27.8832 34.9828 28.0812 35.1148 28.298 35.2091C28.5196 35.2987 28.7128 35.3364 28.8778 35.3222C29.0098 35.3128 29.123 35.2515 29.2172 35.1384C29.3209 35.0252 29.3846 34.8579 29.4082 34.6363C29.4412 34.3016 29.2903 33.9481 28.9556 33.5757C28.734 33.3258 28.4064 33.0406 27.9727 32.7201C27.6522 33.0312 27.275 33.4036 26.8414 33.8373L26.8484 33.8444L27.1454 34.2121C27.2586 34.3441 27.3575 34.4572 27.4424 34.5515C27.5273 34.6458 27.6145 34.733 27.704 34.8131ZM26.7444 39.1144C26.8151 38.9305 26.9377 38.8032 27.1121 38.7325L32.776 36.2364C32.9033 36.1846 33.0353 36.1704 33.172 36.194C33.3087 36.2176 33.4289 36.2765 33.5326 36.3708C33.6552 36.4556 33.7377 36.5759 33.7801 36.7314C33.832 36.887 33.8343 37.0402 33.7872 37.191L33.0094 39.0154L32.1043 41.1508L31.3194 42.9115C31.244 43.0812 31.1403 43.1991 31.0083 43.2651C30.881 43.3264 30.7443 43.3452 30.5981 43.3217C30.4567 43.3028 30.3271 43.2486 30.2092 43.159C30.1008 43.0695 30.023 42.954 29.9759 42.8125C29.9335 42.6758 29.9452 42.5226 30.0112 42.3529L30.5345 41.0094C30.0207 40.4673 29.4927 39.9488 28.9506 39.4538L27.6707 40.0407C27.4774 40.1114 27.2936 40.1067 27.1192 40.0265C26.9542 39.9464 26.8293 39.8215 26.7444 39.6518C26.669 39.4821 26.669 39.3029 26.7444 39.1144ZM30.3719 38.8527C30.4614 38.9423 30.5699 39.0507 30.6971 39.178C30.8291 39.31 30.98 39.4608 31.1497 39.6306L31.7931 38.2376L30.3719 38.8527ZM31.4914 44.4836C31.3547 44.3469 31.2816 44.1843 31.2722 43.9957C31.2675 43.8024 31.3311 43.6351 31.4631 43.4937C31.5857 43.3711 31.7318 43.3004 31.9015 43.2815C32.0807 43.2627 32.2386 43.3028 32.3753 43.4018C33.2003 42.5862 34.2373 41.5444 35.4866 40.2763C35.397 40.1396 35.3593 39.9888 35.3734 39.8238C35.3876 39.6588 35.4559 39.515 35.5785 39.3925C35.7152 39.2558 35.8802 39.1898 36.0735 39.1945C36.2667 39.1992 36.4317 39.2699 36.5684 39.4066L37.3604 40.2127C37.4971 40.3494 37.5631 40.5144 37.5584 40.7077C37.5537 40.901 37.483 41.0659 37.3463 41.2027C37.2284 41.3205 37.0846 41.3841 36.9149 41.3936C36.7499 41.4077 36.5967 41.3676 36.4553 41.2734C35.2297 42.5273 34.2067 43.5597 33.3865 44.3705C33.4855 44.5072 33.5279 44.658 33.5137 44.823C33.5043 44.9927 33.443 45.1389 33.3299 45.2614C33.1932 45.3982 33.0282 45.4689 32.8349 45.4736C32.6464 45.483 32.4814 45.4217 32.3399 45.2897L31.4914 44.4836ZM34.2337 47.1835C34.2007 47.1505 34.1724 47.1175 34.1489 47.0845C34.0216 46.9478 33.9579 46.7852 33.9579 46.5966C33.9627 46.4033 34.031 46.2407 34.163 46.1087C34.3799 45.9013 35.0563 45.2201 36.1924 44.0652C37.3238 42.9149 38.0073 42.2408 38.243 42.0428C38.375 41.9203 38.5376 41.8613 38.7309 41.8661C38.9289 41.8755 39.0939 41.9509 39.2259 42.0923C39.2825 42.1206 39.332 42.156 39.3744 42.1984C39.5771 42.3634 39.7256 42.4883 39.8199 42.5732C39.8811 42.625 39.9707 42.7052 40.0886 42.8136C40.2064 42.922 40.3243 43.0399 40.4421 43.1671C40.5694 43.2944 40.6731 43.4123 40.7532 43.5207C40.8664 43.681 40.9937 43.8695 41.1351 44.0864C41.2671 44.3032 41.3684 44.5319 41.4391 44.7723C41.5098 45.0127 41.5499 45.2555 41.5593 45.5006C41.5829 45.9673 41.5004 46.4175 41.3119 46.8512C41.128 47.2896 40.8522 47.6879 40.4845 48.0462C40.1121 48.4092 39.7232 48.6944 39.3178 48.9018C38.903 49.1092 38.4622 49.2341 37.9955 49.2765C37.5335 49.3143 37.0904 49.2624 36.6662 49.121C36.2278 48.9654 35.754 48.6566 35.2449 48.1947C35.1412 48.1004 34.9644 47.9236 34.7145 47.6643C34.46 47.4098 34.2997 47.2495 34.2337 47.1835ZM36.1712 47.1835C36.5436 47.5088 36.8547 47.7162 37.1046 47.8058C37.5241 47.9519 37.9696 47.9401 38.441 47.7704C38.7521 47.6573 39.042 47.4805 39.3107 47.2401C39.5794 46.9997 39.7916 46.731 39.9471 46.434C40.1121 46.137 40.1876 45.8447 40.1734 45.5572C40.1546 45.2083 40.0249 44.8713 39.7845 44.546C39.5488 44.2254 39.2047 43.8719 38.7521 43.4853C38.2996 43.9285 37.9531 44.2702 37.7127 44.5106C37.5006 44.7228 37.2696 44.9538 37.0197 45.2036C36.7746 45.4582 36.5295 45.708 36.2843 45.9531C36.0439 46.203 35.8247 46.4269 35.6267 46.6249C35.8483 46.8653 36.0298 47.0515 36.1712 47.1835Z" fill="#AA0000"/>
<path d="M15 15L49 49" stroke="#AA0000" stroke-width="2" stroke-linecap="round"/>
<path d="M7 23L41 57" stroke="#AA0000" stroke-width="2" stroke-linecap="round"/>
</svg>
