<svg xmlns="http://www.w3.org/2000/svg" xmlns:xlink="http://www.w3.org/1999/xlink" width="96" zoomAndPan="magnify" viewBox="0 0 72 72" height="96" preserveAspectRatio="xMidYMid meet" version="1.2"><defs><clipPath id="aa9ad21972"><path d="M 8.382812 7.5 L 63.613281 7.5 L 63.613281 64.5 L 8.382812 64.5 Z M 8.382812 7.5 "/></clipPath></defs><g id="e653b40942"><g clip-rule="nonzero" clip-path="url(#aa9ad21972)"><path style=" stroke:none;fill-rule:evenodd;fill:#009dff;fill-opacity:1;" d="M 21.125 58.425781 L 21.125 60.925781 C 21.125 62.886719 19.53125 64.484375 17.566406 64.484375 C 15.601562 64.484375 14.007812 62.886719 14.007812 60.925781 L 14.007812 50.613281 C 14.007812 50.601562 14.007812 50.589844 14.007812 50.578125 C 14.019531 49.574219 14.449219 48.582031 15.277344 47.890625 C 15.933594 47.335938 16.734375 47.0625 17.53125 47.054688 C 17.542969 47.054688 17.554688 47.054688 17.566406 47.054688 L 27.875 47.054688 C 29.839844 47.054688 31.4375 48.648438 31.4375 50.613281 C 31.4375 52.4375 30.0625 53.941406 28.292969 54.148438 C 30.667969 55.113281 33.265625 55.644531 35.988281 55.644531 C 47.300781 55.644531 56.488281 46.460938 56.488281 35.148438 C 56.488281 33.183594 58.082031 31.589844 60.046875 31.589844 C 62.011719 31.589844 63.605469 33.183594 63.605469 35.148438 C 63.605469 50.390625 51.230469 62.765625 35.988281 62.765625 C 30.519531 62.765625 25.417969 61.171875 21.125 58.425781 Z M 57.96875 21.4375 C 57.960938 22.4375 57.527344 23.429688 56.703125 24.125 C 56.042969 24.679688 55.246094 24.953125 54.445312 24.960938 C 54.433594 24.960938 54.421875 24.960938 54.410156 24.960938 L 44.101562 24.960938 C 42.136719 24.960938 40.542969 23.367188 40.542969 21.402344 C 40.542969 19.578125 41.917969 18.070312 43.6875 17.863281 C 41.308594 16.898438 38.710938 16.367188 35.988281 16.367188 C 24.675781 16.367188 15.492188 25.554688 15.492188 36.867188 C 15.492188 38.832031 13.894531 40.425781 11.929688 40.425781 C 9.964844 40.425781 8.371094 38.832031 8.371094 36.867188 C 8.371094 21.625 20.746094 9.25 35.988281 9.25 C 41.460938 9.25 46.5625 10.84375 50.851562 13.589844 L 50.851562 11.089844 C 50.851562 9.125 52.445312 7.53125 54.410156 7.53125 C 56.375 7.53125 57.972656 9.125 57.972656 11.089844 L 57.972656 21.402344 C 57.972656 21.414062 57.972656 21.425781 57.96875 21.4375 Z M 57.96875 21.4375 "/></g></g></svg>