<svg width="31" height="30" viewBox="0 0 31 30" fill="none" xmlns="http://www.w3.org/2000/svg">
<g clip-path="url(#clip0_1716_2862)">
<path d="M5.5 5H13V12.5H5.5V5ZM25.5 5V12.5H18V5H25.5ZM18 18.75H20.5V16.25H18V13.75H20.5V16.25H23V13.75H25.5V16.25H23V18.75H25.5V22.5H23V25H20.5V22.5H16.75V25H14.25V20H18V18.75ZM20.5 18.75V22.5H23V18.75H20.5ZM5.5 25V17.5H13V25H5.5ZM8 7.5V10H10.5V7.5H8ZM20.5 7.5V10H23V7.5H20.5ZM8 20V22.5H10.5V20H8ZM5.5 13.75H8V16.25H5.5V13.75ZM11.75 13.75H16.75V18.75H14.25V16.25H11.75V13.75ZM14.25 7.5H16.75V12.5H14.25V7.5ZM3 2.5V7.5H0.5V2.5C0.5 1.83696 0.763392 1.20107 1.23223 0.732233C1.70107 0.263392 2.33696 0 3 0L8 0V2.5H3ZM28 0C28.663 0 29.2989 0.263392 29.7678 0.732233C30.2366 1.20107 30.5 1.83696 30.5 2.5V7.5H28V2.5H23V0H28ZM3 22.5V27.5H8V30H3C2.33696 30 1.70107 29.7366 1.23223 29.2678C0.763392 28.7989 0.5 28.163 0.5 27.5V22.5H3ZM28 27.5V22.5H30.5V27.5C30.5 28.163 30.2366 28.7989 29.7678 29.2678C29.2989 29.7366 28.663 30 28 30H23V27.5H28Z" fill="#009DFF"/>
</g>
<defs>
<clipPath id="clip0_1716_2862">
<rect width="30" height="30" fill="white" transform="translate(0.5)"/>
</clipPath>
</defs>
</svg>
