<svg xmlns="http://www.w3.org/2000/svg" xmlns:xlink="http://www.w3.org/1999/xlink" width="96" zoomAndPan="magnify" viewBox="0 0 72 72" height="96" preserveAspectRatio="xMidYMid meet" version="1.2"><defs><clipPath id="b995b54297"><path d="M 12.371094 7.5 L 59.621094 7.5 L 59.621094 64.5 L 12.371094 64.5 Z M 12.371094 7.5 "/></clipPath><clipPath id="0d381c423f"><path d="M 23.929688 37.5 L 35.179688 37.5 L 35.179688 54 L 23.929688 54 Z M 23.929688 37.5 "/></clipPath><clipPath id="fe2edc69fc"><path d="M 36.824219 37.5 L 49.574219 37.5 L 49.574219 54 L 36.824219 54 Z M 36.824219 37.5 "/></clipPath></defs><g id="8585592aba"><g clip-rule="nonzero" clip-path="url(#b995b54297)"><path style=" stroke:none;fill-rule:nonzero;fill:#ffffff;fill-opacity:1;" d="M 59.582031 62.128906 L 56.113281 23.496094 C 56.023438 22.4375 55.132812 21.640625 54.074219 21.640625 L 46.925781 21.640625 L 46.925781 18.402344 C 46.914062 12.390625 42.023438 7.5 36.011719 7.5 C 30.003906 7.5 25.113281 12.390625 25.113281 18.402344 L 25.113281 21.628906 L 17.953125 21.628906 C 16.890625 21.628906 16.011719 22.4375 15.910156 23.484375 L 12.433594 62.277344 C 12.386719 62.847656 12.570312 63.417969 12.957031 63.839844 C 13.34375 64.261719 13.894531 64.5 14.460938 64.5 L 57.550781 64.5 C 58.679688 64.5 59.59375 63.585938 59.59375 62.460938 C 59.605469 62.355469 59.59375 62.242188 59.582031 62.128906 Z M 29.207031 18.402344 C 29.207031 14.648438 32.261719 11.582031 36.011719 11.582031 C 39.765625 11.582031 42.820312 14.636719 42.820312 18.402344 L 42.820312 21.628906 L 29.207031 21.628906 Z M 16.707031 60.417969 L 19.820312 25.722656 L 25.113281 25.722656 L 25.113281 29.382812 C 25.113281 30.511719 26.023438 31.421875 27.152344 31.421875 C 28.28125 31.421875 29.195312 30.511719 29.195312 29.382812 L 29.195312 25.722656 L 42.820312 25.722656 L 42.820312 29.382812 C 42.820312 30.511719 43.730469 31.421875 44.859375 31.421875 C 45.988281 31.421875 46.902344 30.511719 46.902344 29.382812 L 46.902344 25.722656 L 52.203125 25.722656 L 55.316406 60.417969 Z M 16.707031 60.417969 "/></g><g clip-rule="nonzero" clip-path="url(#0d381c423f)"><path style=" stroke:none;fill-rule:nonzero;fill:#ffffff;fill-opacity:1;" d="M 35.101562 37.589844 C 35.042969 37.535156 34.976562 37.507812 34.898438 37.503906 L 32 37.503906 C 31.921875 37.503906 31.855469 37.53125 31.796875 37.589844 C 31.742188 37.644531 31.714844 37.710938 31.714844 37.792969 L 31.714844 48.324219 C 31.71875 48.546875 31.664062 48.75 31.546875 48.9375 C 31.441406 49.105469 31.316406 49.257812 31.171875 49.390625 C 31.027344 49.527344 30.867188 49.644531 30.691406 49.738281 C 30.519531 49.832031 30.335938 49.90625 30.144531 49.953125 C 29.953125 50.003906 29.757812 50.027344 29.558594 50.027344 C 29.359375 50.027344 29.164062 50.003906 28.972656 49.953125 C 28.78125 49.90625 28.597656 49.832031 28.425781 49.738281 C 28.25 49.640625 28.089844 49.527344 27.945312 49.390625 C 27.800781 49.253906 27.675781 49.101562 27.570312 48.9375 C 27.453125 48.746094 27.394531 48.542969 27.398438 48.320312 L 27.398438 37.792969 C 27.398438 37.710938 27.371094 37.644531 27.3125 37.589844 C 27.257812 37.535156 27.191406 37.503906 27.109375 37.503906 L 24.214844 37.503906 C 24.136719 37.503906 24.070312 37.535156 24.011719 37.589844 C 23.957031 37.644531 23.929688 37.710938 23.929688 37.792969 L 23.929688 48.394531 C 24.105469 51.300781 26.796875 53.589844 29.578125 53.578125 C 30.226562 53.566406 30.855469 53.449219 31.464844 53.226562 C 32.074219 53.007812 32.628906 52.691406 33.132812 52.28125 C 33.636719 51.871094 34.054688 51.390625 34.394531 50.835938 C 34.734375 50.285156 34.976562 49.691406 35.113281 49.058594 C 35.164062 48.839844 35.183594 48.617188 35.179688 48.394531 L 35.183594 37.792969 C 35.183594 37.710938 35.15625 37.644531 35.101562 37.589844 Z M 35.101562 37.589844 "/></g><g clip-rule="nonzero" clip-path="url(#fe2edc69fc)"><path style=" stroke:none;fill-rule:nonzero;fill:#ffffff;fill-opacity:1;" d="M 43.738281 37.515625 L 37.195312 37.515625 C 36.992188 37.515625 36.824219 37.683594 36.824219 37.890625 L 36.824219 53.617188 C 36.824219 53.824219 36.992188 53.992188 37.195312 53.992188 L 39.820312 53.992188 C 40.027344 53.992188 40.195312 53.824219 40.195312 53.617188 L 40.195312 48.746094 L 43.613281 48.746094 C 47.113281 48.746094 49.5625 46.417969 49.5625 43.082031 C 49.5625 39.753906 47.21875 37.515625 43.738281 37.515625 Z M 42.988281 46.125 L 40.195312 46.125 L 40.195312 40.128906 L 43 40.128906 C 45.039062 40.128906 46.1875 41.183594 46.1875 43.148438 C 46.1875 45.058594 45.003906 46.125 42.988281 46.125 Z M 42.988281 46.125 "/></g></g></svg>