<svg width="31" height="30" viewBox="0 0 31 30" fill="none" xmlns="http://www.w3.org/2000/svg">
<path d="M19.612 15.75C19.6223 15.75 19.6336 15.75 19.6448 15.75C19.8614 15.75 20.0723 15.7744 20.2748 15.8222L20.2561 15.8184L20.2411 15.9562C20.1773 16.5009 19.777 16.9369 19.2557 17.0531L19.2473 17.055C19.2117 17.0625 19.1704 17.0672 19.1282 17.0672C18.8414 17.0672 18.6014 16.8694 18.5357 16.6031L18.5348 16.5994C18.5311 16.5741 18.5292 16.5441 18.5292 16.5141C18.5292 16.3641 18.5817 16.2262 18.6698 16.1175L18.6689 16.1184C18.8414 15.9178 19.0889 15.7866 19.3673 15.7669H19.3701C19.4414 15.7575 19.5257 15.7509 19.6101 15.7509L19.612 15.75ZM27.457 14.5106C27.7542 14.5106 27.9342 14.7778 27.9342 15.3319C27.9342 16.1362 27.6107 16.7972 27.202 16.7972C26.8954 16.7972 26.7154 16.5206 26.7154 15.975C26.7154 15.1622 27.0482 14.5106 27.457 14.5106ZM7.97574 14.5106C8.2748 14.5106 8.45387 14.7778 8.45387 15.3319C8.45387 16.1362 8.13043 16.7972 7.72074 16.7972C7.41512 16.7972 7.23605 16.5206 7.23605 15.975C7.23605 15.1622 7.56793 14.5106 7.97668 14.5106H7.97574ZM2.13137 13.4241C2.07324 13.8806 2.0123 14.3353 1.92605 14.7478C2.31043 14.7384 2.65168 14.7291 3.57887 14.7291L1.45824 17.025L1.44043 17.8481C1.96074 17.8134 2.60855 17.8022 3.35012 17.8022C4.01293 17.8022 4.67855 17.8116 5.10418 17.8481C5.18012 17.3119 5.25605 16.9547 5.3498 16.5159C5.0273 16.5337 4.46574 16.5431 3.57887 16.5431L5.69949 14.2359L5.72668 13.4231C5.2148 13.4503 4.75449 13.4578 3.94637 13.4578C3.06887 13.4578 2.80449 13.4494 2.13137 13.4231V13.4241ZM8.13699 13.3181C6.77387 13.3912 5.69668 14.5144 5.69668 15.8897C5.69668 15.9384 5.69762 15.9862 5.70043 16.0341V16.0275C5.6948 16.0791 5.69199 16.1381 5.69199 16.1981C5.69199 17.1862 6.49262 17.9869 7.48074 17.9869C7.5173 17.9869 7.55293 17.9859 7.58855 17.9841H7.58387C8.94699 17.9137 10.0251 16.7906 10.0251 15.4172C10.0251 15.3647 10.0232 15.3122 10.0204 15.2606V15.2681C10.0261 15.2156 10.0289 15.1556 10.0289 15.0937C10.0289 14.1122 9.23293 13.3162 8.25137 13.3162C8.21105 13.3162 8.17168 13.3172 8.1323 13.32H8.13793L8.13699 13.3181ZM13.8539 13.3087C13.0336 13.4447 12.3689 13.9987 12.0782 14.7412L12.0726 14.7572C12.1279 14.4872 12.1598 14.1778 12.1598 13.86C12.1598 13.6819 12.1495 13.5056 12.1298 13.3322L12.1317 13.3537C11.6864 13.4325 11.1661 13.4841 10.6364 13.4962H10.6242C10.627 13.5722 10.6279 13.6622 10.6279 13.7522C10.6279 14.1759 10.5951 14.5912 10.5323 14.9972L10.5379 14.9522L10.342 16.2937C10.2651 16.8206 10.1807 17.4291 10.0945 17.8134H11.6798C11.6882 17.58 11.7473 17.2144 11.7895 16.8928L11.9254 15.9722C12.037 15.3731 12.5132 14.6672 12.8798 14.6672C13.0926 14.6672 13.0851 14.8734 13.0251 15.2578L12.8714 16.2947C12.7945 16.8216 12.7101 17.43 12.6239 17.8144H14.2251C14.2345 17.5809 14.2851 17.2144 14.3282 16.8937L14.4642 15.9731C14.5739 15.3731 15.052 14.6681 15.4176 14.6681C15.6304 14.6681 15.6229 14.865 15.5882 15.1322L15.2048 17.8153H16.6673L17.1801 14.7591C17.2917 13.9987 17.2317 13.3106 16.3879 13.3106C15.5911 13.4391 14.9423 13.9678 14.6479 14.6803L14.6423 14.6953C14.7445 13.9809 14.6845 13.3106 13.8492 13.3106L13.8539 13.3087ZM27.6511 13.26C26.2701 13.3341 25.1789 14.4712 25.1789 15.8634C25.1789 15.9131 25.1798 15.9619 25.1826 16.0106V16.0041C25.177 16.0566 25.1742 16.1175 25.1742 16.1784C25.1742 17.1787 25.9851 17.9906 26.9864 17.9906C27.0229 17.9906 27.0595 17.9897 27.0951 17.9878H27.0904C28.4714 17.9156 29.5636 16.7784 29.5636 15.3862C29.5636 15.3328 29.5617 15.2803 29.5589 15.2278V15.2353C29.5645 15.1828 29.5673 15.1209 29.5673 15.0591C29.5673 14.0644 28.7611 13.2581 27.7664 13.2581C27.7261 13.2581 27.6857 13.2591 27.6464 13.2619H27.652L27.6511 13.26ZM19.9945 13.1869C19.8426 13.1897 19.6964 13.2009 19.552 13.2197L19.5717 13.2178C18.9829 13.2853 18.4495 13.4653 17.9723 13.7344L17.9929 13.7231L18.2976 14.6475C18.6286 14.46 19.0148 14.325 19.4264 14.2678L19.4432 14.2659C20.0732 14.1891 20.3301 14.3831 20.3686 14.7056C20.3732 14.7487 20.3761 14.7994 20.3761 14.8509C20.3761 14.9194 20.3714 14.9859 20.362 15.0516L20.3629 15.0441L20.347 15.1097C20.1145 15.0619 19.8473 15.0347 19.5726 15.0347C19.3926 15.0347 19.2145 15.0469 19.0411 15.0694L19.0617 15.0675C18.4973 15.1106 18.0014 15.3731 17.6536 15.7678L17.6517 15.7697C17.4679 16.0209 17.3582 16.3369 17.3582 16.6781C17.3582 16.785 17.3695 16.89 17.3901 16.9912L17.3882 16.9809C17.4829 17.5134 17.9414 17.9119 18.4936 17.9119C18.5995 17.9119 18.7026 17.8969 18.8001 17.8697L18.7926 17.8716C19.3148 17.8144 19.7629 17.5387 20.0498 17.1384L20.0536 17.1328C20.0479 17.2641 20.0357 17.3869 20.0161 17.5069L20.0189 17.4891C19.9982 17.6184 19.9682 17.7328 19.9298 17.8434L19.9345 17.8294L21.3923 17.8303C21.3848 17.6878 21.3845 17.5453 21.3914 17.4028C21.4339 16.8653 21.5304 16.0644 21.6811 15C21.6942 14.8987 21.7017 14.7825 21.7017 14.6634C21.7017 14.5378 21.6932 14.415 21.6773 14.2941L21.6792 14.3081C21.5854 13.5534 20.9432 13.1728 19.9973 13.1859L19.9945 13.1869ZM24.4214 12.0122L22.9476 12.5662L22.7517 13.3978L22.2295 13.4222L22.0945 14.5678H22.5726L22.3251 16.3369C22.1714 17.4366 22.3673 17.955 23.3386 17.955C23.827 17.9466 24.2836 17.8191 24.6829 17.5997L24.6679 17.6072L24.8376 16.5525C24.6276 16.6669 24.3829 16.7466 24.1223 16.7747L24.1139 16.7756C23.8242 16.7756 23.7904 16.6237 23.8504 16.2037L24.0717 14.5678H25.0589C25.0945 14.3269 25.2126 13.5403 25.2464 13.3959H24.2329L24.4214 12.0122Z" fill="#009DFF"/>
</svg>
