<svg xmlns="http://www.w3.org/2000/svg" xmlns:xlink="http://www.w3.org/1999/xlink" width="96" zoomAndPan="magnify" viewBox="0 0 72 72" height="96" preserveAspectRatio="xMidYMid meet" version="1.0"><defs><clipPath id="42192d9b23"><path d="M 7.5 7.5 L 64.5 7.5 L 64.5 64.5 L 7.5 64.5 Z M 7.5 7.5 " clip-rule="nonzero"/></clipPath></defs><g clip-path="url(#42192d9b23)"><path fill="#009dff" d="M 56.152344 15.847656 C 50.769531 10.464844 43.613281 7.5 36 7.5 C 28.386719 7.5 21.230469 10.464844 15.847656 15.847656 C 10.464844 21.230469 7.5 28.386719 7.5 36 C 7.5 43.613281 10.464844 50.769531 15.847656 56.152344 C 21.230469 61.535156 28.386719 64.5 36 64.5 C 43.613281 64.5 50.769531 61.535156 56.152344 56.152344 C 61.535156 50.769531 64.5 43.613281 64.5 36 C 64.5 28.386719 61.535156 21.230469 56.152344 15.847656 Z M 17.140625 17.140625 C 22.179688 12.101562 28.875 9.328125 36 9.328125 C 43.125 9.328125 49.820312 12.101562 54.859375 17.140625 C 59.894531 22.179688 62.671875 28.875 62.671875 36 C 62.671875 41.921875 60.75 47.546875 57.210938 52.171875 C 54.394531 48.230469 49.894531 45.90625 45.007812 45.90625 L 26.992188 45.90625 C 22.105469 45.90625 17.605469 48.230469 14.789062 52.171875 C 11.246094 47.546875 9.328125 41.921875 9.328125 36 C 9.328125 28.875 12.101562 22.179688 17.140625 17.140625 Z M 36 44.402344 C 43.320312 44.402344 49.277344 38.445312 49.277344 31.121094 C 49.277344 23.800781 43.320312 17.84375 36 17.84375 C 28.675781 17.84375 22.71875 23.800781 22.71875 31.121094 C 22.71875 38.445312 28.675781 44.402344 36 44.402344 Z M 36 44.402344 " fill-opacity="1" fill-rule="nonzero"/></g></svg>