<svg width="40" height="40" viewBox="0 0 40 40" fill="none" xmlns="http://www.w3.org/2000/svg">
<path fill-rule="evenodd" clip-rule="evenodd" d="M20.0269 14.9985C17.2654 14.9985 15.0269 17.237 15.0269 19.9985C15.0269 22.76 17.2654 24.9985 20.0269 24.9985C22.7884 24.9985 25.0269 22.76 25.0269 19.9985C25.0269 17.237 22.7884 14.9985 20.0269 14.9985ZM18.3602 19.9985C18.3602 19.078 19.1064 18.3319 20.0269 18.3319C20.9474 18.3319 21.6936 19.078 21.6936 19.9985C21.6936 20.919 20.9474 21.6652 20.0269 21.6652C19.1064 21.6652 18.3602 20.919 18.3602 19.9985Z" fill="black"/>
<path fill-rule="evenodd" clip-rule="evenodd" d="M36.4103 18.7989C32.597 11.9175 26.3806 8.33105 20.027 8.33105C13.6732 8.33105 7.45689 11.9175 3.64368 18.7989C3.27091 19.4717 3.26631 20.3012 3.62744 20.9771C7.38001 27.9999 13.6316 31.6644 20.027 31.6644C26.4223 31.6644 32.674 27.9999 36.4265 20.9771C36.7876 20.3012 36.783 19.4717 36.4103 18.7989ZM20.027 28.331C15.1286 28.331 10.0945 25.6184 6.84651 19.9122C10.1413 14.3246 15.1489 11.6644 20.027 11.6644C24.905 11.6644 29.9126 14.3246 33.2075 19.9122C29.9595 25.6184 24.9253 28.331 20.027 28.331Z" fill="black"/>
</svg>
