<svg width="40" height="40" viewBox="0 0 40 40" fill="none" xmlns="http://www.w3.org/2000/svg">
<path fill-rule="evenodd" clip-rule="evenodd" d="M20.0269 14.9985C17.2654 14.9985 15.0269 17.237 15.0269 19.9985C15.0269 22.76 17.2654 24.9985 20.0269 24.9985C22.7884 24.9985 25.0269 22.76 25.0269 19.9985C25.0269 17.237 22.7884 14.9985 20.0269 14.9985ZM18.3602 19.9985C18.3602 19.078 19.1064 18.3319 20.0269 18.3319C20.9474 18.3319 21.6935 19.078 21.6935 19.9985C21.6935 20.919 20.9474 21.6652 20.0269 21.6652C19.1064 21.6652 18.3602 20.919 18.3602 19.9985Z" fill="black"/>
<path fill-rule="evenodd" clip-rule="evenodd" d="M36.05 18.4678C32.2367 11.5864 26.0203 8 19.6667 8C13.313 8 7.0966 11.5864 3.28338 18.4678C2.91062 19.1407 2.90602 19.9702 3.26715 20.646C7.01972 27.6688 13.2713 31.3333 19.6667 31.3333C26.062 31.3333 32.3137 27.6688 36.0662 20.646C36.4273 19.9702 36.4227 19.1407 36.05 18.4678ZM19.6667 28C14.7683 28 9.7342 25.2873 6.48622 19.5812C9.78104 13.9936 14.7887 11.3333 19.6667 11.3333C24.5447 11.3333 29.5523 13.9936 32.8472 19.5812C29.5992 25.2873 24.565 28 19.6667 28Z" fill="black"/>
<rect x="7" y="30" width="32" height="4" rx="2" transform="rotate(-45 7 30)" fill="white"/>
<rect x="9" y="29" width="28" height="3" rx="1.5" transform="rotate(-45 9 29)" fill="black"/>
</svg>
