<svg width="30" height="30" viewBox="0 0 30 30" fill="none" xmlns="http://www.w3.org/2000/svg">
<path d="M15 0C23.2843 0 30 6.71573 30 15C30 23.2843 23.2843 30 15 30C6.71573 30 0 23.2843 0 15C0 6.71573 6.71573 0 15 0Z" fill="#FF7223"/>
<path d="M15 7.5V16.5Z" fill="white"/>
<path d="M15 7.5V16.5" stroke="white" stroke-width="3" stroke-linecap="round"/>
<path d="M14.9996 23.5C15.828 23.5 16.4996 22.8284 16.4996 22C16.4996 21.1716 15.828 20.5 14.9996 20.5C14.1712 20.5 13.4996 21.1716 13.4996 22C13.4996 22.8284 14.1712 23.5 14.9996 23.5Z" fill="white"/>
</svg>
