<svg width="100" height="100" viewBox="0 0 100 100" fill="none" xmlns="http://www.w3.org/2000/svg">
<path d="M17 63.8311H83.5518" stroke="white" stroke-width="5" stroke-miterlimit="10" stroke-linecap="round"/>
<path d="M22.5566 63.8311H77.9972V64.4387C77.9972 67.2398 76.8844 69.9261 74.9038 71.9068C72.9231 73.8875 70.2368 75.0002 67.4357 75.0002H33.1181C30.317 75.0002 27.6307 73.8875 25.65 71.9068C23.6694 69.9261 22.5566 67.2398 22.5566 64.4387V63.9179V63.8311Z" stroke="white" stroke-width="5" stroke-miterlimit="10"/>
<path d="M50.2769 36.1123C57.6288 36.1123 64.6795 39.0328 69.8781 44.2314C75.0766 49.4299 77.9972 56.4807 77.9972 63.8326H22.5566C22.5566 56.4807 25.4772 49.4299 30.6757 44.2314C35.8743 39.0328 42.925 36.1123 50.2769 36.1123Z" stroke="white" stroke-width="5" stroke-miterlimit="10"/>
<path d="M50.2763 36.1113C53.3446 36.1113 55.832 33.6239 55.832 30.5556C55.832 27.4873 53.3446 25 50.2763 25C47.208 25 44.7207 27.4873 44.7207 30.5556C44.7207 33.6239 47.208 36.1113 50.2763 36.1113Z" stroke="white" stroke-width="5" stroke-miterlimit="10"/>
</svg>
